<mxfile host="drawio-plugin" modified="2025-01-13T02:02:17.376Z" agent="Mozilla/5.0 (Windows NT 10.0; Win64; x64) AppleWebKit/537.36 (KHTML, like Gecko) Chrome/122.0.0.0 Safari/537.36" etag="VBCMpuchtxnEJJdwbRex" version="22.1.22" type="embed" pages="4">
  <diagram name="비동기방식 ATB TCP/IP 처리구조" id="htPihaVPFNdD0V0eJ1_w">
    <mxGraphModel dx="1512" dy="486" grid="1" gridSize="10" guides="1" tooltips="1" connect="1" arrows="1" fold="1" page="1" pageScale="1" pageWidth="827" pageHeight="1169" math="0" shadow="0">
      <root>
        <mxCell id="0" />
        <mxCell id="1" parent="0" />
        <mxCell id="qRW-2U6ZaDBaV4uJN_RA-1" value="ATB" style="ellipse;whiteSpace=wrap;html=1;aspect=fixed;fontStyle=1" parent="1" vertex="1">
          <mxGeometry x="560" y="240" width="80" height="80" as="geometry" />
        </mxCell>
        <mxCell id="qRW-2U6ZaDBaV4uJN_RA-2" value="LGU" style="ellipse;whiteSpace=wrap;html=1;aspect=fixed;fontStyle=1" parent="1" vertex="1">
          <mxGeometry x="1010" y="240" width="80" height="80" as="geometry" />
        </mxCell>
        <mxCell id="qRW-2U6ZaDBaV4uJN_RA-4" value="" style="endArrow=classic;html=1;rounded=0;fontStyle=1" parent="1" edge="1">
          <mxGeometry width="50" height="50" relative="1" as="geometry">
            <mxPoint x="680" y="250" as="sourcePoint" />
            <mxPoint x="970" y="250" as="targetPoint" />
          </mxGeometry>
        </mxCell>
        <mxCell id="qRW-2U6ZaDBaV4uJN_RA-5" value="" style="endArrow=classic;html=1;rounded=0;fontStyle=1;fontColor=#FF412B;strokeColor=#FF412B;strokeWidth=3;" parent="1" edge="1">
          <mxGeometry width="50" height="50" relative="1" as="geometry">
            <mxPoint x="980" y="319" as="sourcePoint" />
            <mxPoint x="680" y="319" as="targetPoint" />
          </mxGeometry>
        </mxCell>
        <mxCell id="qRW-2U6ZaDBaV4uJN_RA-7" value="25030" style="text;html=1;align=center;verticalAlign=middle;whiteSpace=wrap;rounded=0;fontStyle=1" parent="1" vertex="1">
          <mxGeometry x="599" y="320" width="60" height="30" as="geometry" />
        </mxCell>
        <mxCell id="qRW-2U6ZaDBaV4uJN_RA-8" value="25030" style="text;html=1;align=center;verticalAlign=middle;whiteSpace=wrap;rounded=0;fontStyle=1" parent="1" vertex="1">
          <mxGeometry x="1020" y="330" width="60" height="30" as="geometry" />
        </mxCell>
        <mxCell id="qRW-2U6ZaDBaV4uJN_RA-9" value="송신" style="text;html=1;align=center;verticalAlign=middle;whiteSpace=wrap;rounded=0;fontStyle=1" parent="1" vertex="1">
          <mxGeometry x="780" y="200" width="60" height="30" as="geometry" />
        </mxCell>
        <mxCell id="qRW-2U6ZaDBaV4uJN_RA-10" value="수신" style="text;html=1;align=center;verticalAlign=middle;whiteSpace=wrap;rounded=0;fontStyle=1" parent="1" vertex="1">
          <mxGeometry x="780" y="340" width="60" height="30" as="geometry" />
        </mxCell>
        <mxCell id="qRW-2U6ZaDBaV4uJN_RA-12" value="비동기 방식" style="text;html=1;align=center;verticalAlign=middle;whiteSpace=wrap;rounded=0;fontStyle=1" parent="1" vertex="1">
          <mxGeometry x="310" y="130" width="160" height="30" as="geometry" />
        </mxCell>
        <mxCell id="qRW-2U6ZaDBaV4uJN_RA-31" value="APP" style="shape=ext;double=1;whiteSpace=wrap;html=1;aspect=fixed;fontStyle=1" parent="1" vertex="1">
          <mxGeometry x="60" y="210" width="160" height="160" as="geometry" />
        </mxCell>
        <mxCell id="qRW-2U6ZaDBaV4uJN_RA-32" value="25303" style="text;html=1;align=center;verticalAlign=middle;whiteSpace=wrap;rounded=0;fontStyle=1" parent="1" vertex="1">
          <mxGeometry x="529" y="210" width="60" height="30" as="geometry" />
        </mxCell>
        <mxCell id="qRW-2U6ZaDBaV4uJN_RA-34" value="" style="curved=1;endArrow=classic;html=1;rounded=0;fontStyle=1" parent="1" edge="1">
          <mxGeometry width="50" height="50" relative="1" as="geometry">
            <mxPoint x="220" y="270" as="sourcePoint" />
            <mxPoint x="540" y="270" as="targetPoint" />
            <Array as="points">
              <mxPoint x="420" y="240" />
            </Array>
          </mxGeometry>
        </mxCell>
        <mxCell id="qRW-2U6ZaDBaV4uJN_RA-35" value="" style="curved=1;endArrow=classic;html=1;rounded=0;fontStyle=1" parent="1" edge="1">
          <mxGeometry width="50" height="50" relative="1" as="geometry">
            <mxPoint x="540" y="280" as="sourcePoint" />
            <mxPoint x="230" y="280" as="targetPoint" />
            <Array as="points">
              <mxPoint x="410" y="300" />
            </Array>
          </mxGeometry>
        </mxCell>
        <mxCell id="qRW-2U6ZaDBaV4uJN_RA-36" value="요청/요청 결과 회신" style="text;html=1;align=center;verticalAlign=middle;whiteSpace=wrap;rounded=0;fontStyle=1" parent="1" vertex="1">
          <mxGeometry x="330" y="210" width="120" height="30" as="geometry" />
        </mxCell>
        <mxCell id="qRW-2U6ZaDBaV4uJN_RA-37" value="Nodata 회신" style="curved=1;endArrow=classic;html=1;rounded=0;fontStyle=1" parent="1" edge="1">
          <mxGeometry width="50" height="50" relative="1" as="geometry">
            <mxPoint x="231" y="340" as="sourcePoint" />
            <mxPoint x="541" y="340" as="targetPoint" />
            <Array as="points">
              <mxPoint x="411" y="360" />
            </Array>
          </mxGeometry>
        </mxCell>
        <mxCell id="qRW-2U6ZaDBaV4uJN_RA-38" value="Callback(응답을 회신)" style="text;html=1;align=center;verticalAlign=middle;whiteSpace=wrap;rounded=0;fontStyle=1" parent="1" vertex="1">
          <mxGeometry x="325" y="380" width="150" height="30" as="geometry" />
        </mxCell>
        <mxCell id="mtSyWqE7l3mlczT5jApb-1" value="ATB" style="ellipse;whiteSpace=wrap;html=1;aspect=fixed;fontStyle=1" parent="1" vertex="1">
          <mxGeometry x="585" y="620" width="80" height="80" as="geometry" />
        </mxCell>
        <mxCell id="mtSyWqE7l3mlczT5jApb-2" value="LGU" style="ellipse;whiteSpace=wrap;html=1;aspect=fixed;fontStyle=1" parent="1" vertex="1">
          <mxGeometry x="1035" y="620" width="80" height="80" as="geometry" />
        </mxCell>
        <mxCell id="mtSyWqE7l3mlczT5jApb-3" value="" style="endArrow=classic;html=1;rounded=0;fontStyle=1" parent="1" edge="1">
          <mxGeometry width="50" height="50" relative="1" as="geometry">
            <mxPoint x="705" y="630" as="sourcePoint" />
            <mxPoint x="995" y="630" as="targetPoint" />
          </mxGeometry>
        </mxCell>
        <mxCell id="mtSyWqE7l3mlczT5jApb-5" value="25030" style="text;html=1;align=center;verticalAlign=middle;whiteSpace=wrap;rounded=0;fontStyle=1" parent="1" vertex="1">
          <mxGeometry x="624" y="700" width="60" height="30" as="geometry" />
        </mxCell>
        <mxCell id="mtSyWqE7l3mlczT5jApb-6" value="25030" style="text;html=1;align=center;verticalAlign=middle;whiteSpace=wrap;rounded=0;fontStyle=1" parent="1" vertex="1">
          <mxGeometry x="1045" y="710" width="60" height="30" as="geometry" />
        </mxCell>
        <mxCell id="mtSyWqE7l3mlczT5jApb-7" value="송신" style="text;html=1;align=center;verticalAlign=middle;whiteSpace=wrap;rounded=0;fontStyle=1" parent="1" vertex="1">
          <mxGeometry x="805" y="580" width="60" height="30" as="geometry" />
        </mxCell>
        <mxCell id="mtSyWqE7l3mlczT5jApb-8" value="수신" style="text;html=1;align=center;verticalAlign=middle;whiteSpace=wrap;rounded=0;fontStyle=1" parent="1" vertex="1">
          <mxGeometry x="805" y="720" width="60" height="30" as="geometry" />
        </mxCell>
        <mxCell id="mtSyWqE7l3mlczT5jApb-9" value="동기 방식" style="text;html=1;align=center;verticalAlign=middle;whiteSpace=wrap;rounded=0;fontStyle=1" parent="1" vertex="1">
          <mxGeometry x="335" y="530" width="160" height="30" as="geometry" />
        </mxCell>
        <mxCell id="mtSyWqE7l3mlczT5jApb-10" value="APP" style="shape=ext;double=1;whiteSpace=wrap;html=1;aspect=fixed;fontStyle=1" parent="1" vertex="1">
          <mxGeometry x="85" y="590" width="160" height="160" as="geometry" />
        </mxCell>
        <mxCell id="mtSyWqE7l3mlczT5jApb-11" value="25303" style="text;html=1;align=center;verticalAlign=middle;whiteSpace=wrap;rounded=0;fontStyle=1" parent="1" vertex="1">
          <mxGeometry x="554" y="590" width="60" height="30" as="geometry" />
        </mxCell>
        <mxCell id="mtSyWqE7l3mlczT5jApb-12" value="" style="curved=1;endArrow=classic;html=1;rounded=0;fontStyle=1" parent="1" edge="1">
          <mxGeometry width="50" height="50" relative="1" as="geometry">
            <mxPoint x="245" y="650" as="sourcePoint" />
            <mxPoint x="565" y="650" as="targetPoint" />
            <Array as="points">
              <mxPoint x="445" y="620" />
            </Array>
          </mxGeometry>
        </mxCell>
        <mxCell id="mtSyWqE7l3mlczT5jApb-13" value="" style="curved=1;endArrow=classic;html=1;rounded=0;fontStyle=1" parent="1" edge="1">
          <mxGeometry width="50" height="50" relative="1" as="geometry">
            <mxPoint x="565" y="660" as="sourcePoint" />
            <mxPoint x="255" y="660" as="targetPoint" />
            <Array as="points">
              <mxPoint x="435" y="680" />
            </Array>
          </mxGeometry>
        </mxCell>
        <mxCell id="mtSyWqE7l3mlczT5jApb-14" value="요청/응답" style="text;html=1;align=center;verticalAlign=middle;whiteSpace=wrap;rounded=0;fontStyle=1" parent="1" vertex="1">
          <mxGeometry x="355" y="600" width="120" height="30" as="geometry" />
        </mxCell>
        <mxCell id="XKpTqG_WQQ2gKYtZA530-11" value="" style="curved=1;endArrow=classic;html=1;rounded=0;fontStyle=1" parent="1" edge="1">
          <mxGeometry width="50" height="50" relative="1" as="geometry">
            <mxPoint x="550" y="330" as="sourcePoint" />
            <mxPoint x="230" y="330" as="targetPoint" />
            <Array as="points">
              <mxPoint x="430" y="300" />
            </Array>
          </mxGeometry>
        </mxCell>
        <mxCell id="XKpTqG_WQQ2gKYtZA530-19" value="data 회신" style="curved=1;endArrow=classic;html=1;rounded=0;fontStyle=1" parent="1" edge="1">
          <mxGeometry width="50" height="50" relative="1" as="geometry">
            <mxPoint x="256" y="710" as="sourcePoint" />
            <mxPoint x="566" y="710" as="targetPoint" />
            <Array as="points">
              <mxPoint x="436" y="730" />
            </Array>
          </mxGeometry>
        </mxCell>
        <mxCell id="XKpTqG_WQQ2gKYtZA530-21" value="" style="curved=1;endArrow=classic;html=1;rounded=0;fontStyle=1" parent="1" edge="1">
          <mxGeometry width="50" height="50" relative="1" as="geometry">
            <mxPoint x="575" y="700" as="sourcePoint" />
            <mxPoint x="255" y="700" as="targetPoint" />
            <Array as="points">
              <mxPoint x="455" y="670" />
            </Array>
          </mxGeometry>
        </mxCell>
        <mxCell id="XKpTqG_WQQ2gKYtZA530-22" value="요청/응답" style="text;html=1;align=center;verticalAlign=middle;whiteSpace=wrap;rounded=0;fontStyle=1" parent="1" vertex="1">
          <mxGeometry x="350" y="740" width="120" height="30" as="geometry" />
        </mxCell>
        <mxCell id="XKpTqG_WQQ2gKYtZA530-23" value="비동기 구간" style="text;html=1;align=center;verticalAlign=middle;whiteSpace=wrap;rounded=0;fontStyle=1" parent="1" vertex="1">
          <mxGeometry x="740" y="130" width="160" height="30" as="geometry" />
        </mxCell>
        <mxCell id="XKpTqG_WQQ2gKYtZA530-24" value="비동기 구간" style="text;html=1;align=center;verticalAlign=middle;whiteSpace=wrap;rounded=0;fontStyle=1" parent="1" vertex="1">
          <mxGeometry x="740" y="530" width="160" height="30" as="geometry" />
        </mxCell>
        <mxCell id="XKpTqG_WQQ2gKYtZA530-25" value="" style="endArrow=classic;html=1;rounded=0;fontStyle=1;fontColor=#FF412B;strokeColor=#FF412B;strokeWidth=3;" parent="1" edge="1">
          <mxGeometry width="50" height="50" relative="1" as="geometry">
            <mxPoint x="990" y="700" as="sourcePoint" />
            <mxPoint x="690" y="700" as="targetPoint" />
          </mxGeometry>
        </mxCell>
      </root>
    </mxGraphModel>
  </diagram>
  <diagram name="비동기방식 ATB TCP/IP 처리구조의 2중화" id="TW_hp4UzLlvNMDXzVEV2">
    <mxGraphModel dx="1512" dy="486" grid="1" gridSize="10" guides="1" tooltips="1" connect="1" arrows="1" fold="1" page="1" pageScale="1" pageWidth="827" pageHeight="1169" math="0" shadow="0">
      <root>
        <mxCell id="-bQ1QYeq7-B_V-JY-OWi-0" />
        <mxCell id="-bQ1QYeq7-B_V-JY-OWi-1" parent="-bQ1QYeq7-B_V-JY-OWi-0" />
        <mxCell id="-bQ1QYeq7-B_V-JY-OWi-2" value="ATB" style="ellipse;whiteSpace=wrap;html=1;aspect=fixed;fontStyle=1" parent="-bQ1QYeq7-B_V-JY-OWi-1" vertex="1">
          <mxGeometry x="560" y="240" width="80" height="80" as="geometry" />
        </mxCell>
        <mxCell id="-bQ1QYeq7-B_V-JY-OWi-3" value="LGU" style="ellipse;whiteSpace=wrap;html=1;aspect=fixed;fontStyle=1" parent="-bQ1QYeq7-B_V-JY-OWi-1" vertex="1">
          <mxGeometry x="1040" y="320" width="150" height="150" as="geometry" />
        </mxCell>
        <mxCell id="-bQ1QYeq7-B_V-JY-OWi-4" value="" style="endArrow=classic;html=1;rounded=0;fontStyle=1" parent="-bQ1QYeq7-B_V-JY-OWi-1" edge="1">
          <mxGeometry width="50" height="50" relative="1" as="geometry">
            <mxPoint x="680" y="250" as="sourcePoint" />
            <mxPoint x="970" y="250" as="targetPoint" />
          </mxGeometry>
        </mxCell>
        <mxCell id="-bQ1QYeq7-B_V-JY-OWi-5" value="" style="endArrow=classic;html=1;rounded=0;fontStyle=1;fontColor=#FF412B;strokeColor=#FF412B;strokeWidth=3;" parent="-bQ1QYeq7-B_V-JY-OWi-1" edge="1">
          <mxGeometry width="50" height="50" relative="1" as="geometry">
            <mxPoint x="980" y="319" as="sourcePoint" />
            <mxPoint x="680" y="319" as="targetPoint" />
          </mxGeometry>
        </mxCell>
        <mxCell id="-bQ1QYeq7-B_V-JY-OWi-6" value="25030" style="text;html=1;align=center;verticalAlign=middle;whiteSpace=wrap;rounded=0;fontStyle=1" parent="-bQ1QYeq7-B_V-JY-OWi-1" vertex="1">
          <mxGeometry x="599" y="320" width="60" height="30" as="geometry" />
        </mxCell>
        <mxCell id="-bQ1QYeq7-B_V-JY-OWi-7" value="25030" style="text;html=1;align=center;verticalAlign=middle;whiteSpace=wrap;rounded=0;fontStyle=1" parent="-bQ1QYeq7-B_V-JY-OWi-1" vertex="1">
          <mxGeometry x="1080" y="480" width="90" height="50" as="geometry" />
        </mxCell>
        <mxCell id="-bQ1QYeq7-B_V-JY-OWi-8" value="송신" style="text;html=1;align=center;verticalAlign=middle;whiteSpace=wrap;rounded=0;fontStyle=1" parent="-bQ1QYeq7-B_V-JY-OWi-1" vertex="1">
          <mxGeometry x="780" y="200" width="60" height="30" as="geometry" />
        </mxCell>
        <mxCell id="-bQ1QYeq7-B_V-JY-OWi-9" value="수신" style="text;html=1;align=center;verticalAlign=middle;whiteSpace=wrap;rounded=0;fontStyle=1" parent="-bQ1QYeq7-B_V-JY-OWi-1" vertex="1">
          <mxGeometry x="780" y="340" width="60" height="30" as="geometry" />
        </mxCell>
        <mxCell id="-bQ1QYeq7-B_V-JY-OWi-10" value="비동기 방식" style="text;html=1;align=center;verticalAlign=middle;whiteSpace=wrap;rounded=0;fontStyle=1" parent="-bQ1QYeq7-B_V-JY-OWi-1" vertex="1">
          <mxGeometry x="310" y="130" width="160" height="30" as="geometry" />
        </mxCell>
        <mxCell id="-bQ1QYeq7-B_V-JY-OWi-11" value="APP" style="shape=ext;double=1;whiteSpace=wrap;html=1;aspect=fixed;fontStyle=1" parent="-bQ1QYeq7-B_V-JY-OWi-1" vertex="1">
          <mxGeometry x="10" y="330" width="160" height="160" as="geometry" />
        </mxCell>
        <mxCell id="-bQ1QYeq7-B_V-JY-OWi-12" value="25303" style="text;html=1;align=center;verticalAlign=middle;whiteSpace=wrap;rounded=0;fontStyle=1" parent="-bQ1QYeq7-B_V-JY-OWi-1" vertex="1">
          <mxGeometry x="529" y="210" width="60" height="30" as="geometry" />
        </mxCell>
        <mxCell id="-bQ1QYeq7-B_V-JY-OWi-13" value="" style="curved=1;endArrow=classic;html=1;rounded=0;fontStyle=1" parent="-bQ1QYeq7-B_V-JY-OWi-1" edge="1">
          <mxGeometry width="50" height="50" relative="1" as="geometry">
            <mxPoint x="220" y="270" as="sourcePoint" />
            <mxPoint x="540" y="270" as="targetPoint" />
            <Array as="points">
              <mxPoint x="420" y="240" />
            </Array>
          </mxGeometry>
        </mxCell>
        <mxCell id="-bQ1QYeq7-B_V-JY-OWi-14" value="" style="curved=1;endArrow=classic;html=1;rounded=0;fontStyle=1" parent="-bQ1QYeq7-B_V-JY-OWi-1" edge="1">
          <mxGeometry width="50" height="50" relative="1" as="geometry">
            <mxPoint x="540" y="280" as="sourcePoint" />
            <mxPoint x="230" y="280" as="targetPoint" />
            <Array as="points">
              <mxPoint x="410" y="300" />
            </Array>
          </mxGeometry>
        </mxCell>
        <mxCell id="-bQ1QYeq7-B_V-JY-OWi-15" value="요청/요청 결과 회신" style="text;html=1;align=center;verticalAlign=middle;whiteSpace=wrap;rounded=0;fontStyle=1" parent="-bQ1QYeq7-B_V-JY-OWi-1" vertex="1">
          <mxGeometry x="330" y="210" width="120" height="30" as="geometry" />
        </mxCell>
        <mxCell id="-bQ1QYeq7-B_V-JY-OWi-16" value="Nodata 회신" style="curved=1;endArrow=classic;html=1;rounded=0;fontStyle=1" parent="-bQ1QYeq7-B_V-JY-OWi-1" edge="1">
          <mxGeometry width="50" height="50" relative="1" as="geometry">
            <mxPoint x="231" y="340" as="sourcePoint" />
            <mxPoint x="541" y="340" as="targetPoint" />
            <Array as="points">
              <mxPoint x="411" y="360" />
            </Array>
          </mxGeometry>
        </mxCell>
        <mxCell id="-bQ1QYeq7-B_V-JY-OWi-17" value="Callback(응답을 회신)" style="text;html=1;align=center;verticalAlign=middle;whiteSpace=wrap;rounded=0;fontStyle=1" parent="-bQ1QYeq7-B_V-JY-OWi-1" vertex="1">
          <mxGeometry x="325" y="380" width="150" height="30" as="geometry" />
        </mxCell>
        <mxCell id="-bQ1QYeq7-B_V-JY-OWi-18" value="ATB" style="ellipse;whiteSpace=wrap;html=1;aspect=fixed;fontStyle=1" parent="-bQ1QYeq7-B_V-JY-OWi-1" vertex="1">
          <mxGeometry x="580" y="900" width="80" height="80" as="geometry" />
        </mxCell>
        <mxCell id="-bQ1QYeq7-B_V-JY-OWi-19" value="LGU" style="ellipse;whiteSpace=wrap;html=1;aspect=fixed;fontStyle=1" parent="-bQ1QYeq7-B_V-JY-OWi-1" vertex="1">
          <mxGeometry x="1030" y="900" width="80" height="80" as="geometry" />
        </mxCell>
        <mxCell id="-bQ1QYeq7-B_V-JY-OWi-20" value="" style="endArrow=classic;html=1;rounded=0;fontStyle=1" parent="-bQ1QYeq7-B_V-JY-OWi-1" edge="1">
          <mxGeometry width="50" height="50" relative="1" as="geometry">
            <mxPoint x="700" y="910" as="sourcePoint" />
            <mxPoint x="990" y="910" as="targetPoint" />
          </mxGeometry>
        </mxCell>
        <mxCell id="-bQ1QYeq7-B_V-JY-OWi-21" value="25030" style="text;html=1;align=center;verticalAlign=middle;whiteSpace=wrap;rounded=0;fontStyle=1" parent="-bQ1QYeq7-B_V-JY-OWi-1" vertex="1">
          <mxGeometry x="619" y="980" width="60" height="30" as="geometry" />
        </mxCell>
        <mxCell id="-bQ1QYeq7-B_V-JY-OWi-22" value="25030" style="text;html=1;align=center;verticalAlign=middle;whiteSpace=wrap;rounded=0;fontStyle=1" parent="-bQ1QYeq7-B_V-JY-OWi-1" vertex="1">
          <mxGeometry x="1040" y="990" width="60" height="30" as="geometry" />
        </mxCell>
        <mxCell id="-bQ1QYeq7-B_V-JY-OWi-23" value="송신" style="text;html=1;align=center;verticalAlign=middle;whiteSpace=wrap;rounded=0;fontStyle=1" parent="-bQ1QYeq7-B_V-JY-OWi-1" vertex="1">
          <mxGeometry x="800" y="860" width="60" height="30" as="geometry" />
        </mxCell>
        <mxCell id="-bQ1QYeq7-B_V-JY-OWi-24" value="수신" style="text;html=1;align=center;verticalAlign=middle;whiteSpace=wrap;rounded=0;fontStyle=1" parent="-bQ1QYeq7-B_V-JY-OWi-1" vertex="1">
          <mxGeometry x="800" y="1000" width="60" height="30" as="geometry" />
        </mxCell>
        <mxCell id="-bQ1QYeq7-B_V-JY-OWi-25" value="동기 방식" style="text;html=1;align=center;verticalAlign=middle;whiteSpace=wrap;rounded=0;fontStyle=1" parent="-bQ1QYeq7-B_V-JY-OWi-1" vertex="1">
          <mxGeometry x="330" y="810" width="160" height="30" as="geometry" />
        </mxCell>
        <mxCell id="-bQ1QYeq7-B_V-JY-OWi-26" value="APP" style="shape=ext;double=1;whiteSpace=wrap;html=1;aspect=fixed;fontStyle=1" parent="-bQ1QYeq7-B_V-JY-OWi-1" vertex="1">
          <mxGeometry x="80" y="870" width="160" height="160" as="geometry" />
        </mxCell>
        <mxCell id="-bQ1QYeq7-B_V-JY-OWi-27" value="25303" style="text;html=1;align=center;verticalAlign=middle;whiteSpace=wrap;rounded=0;fontStyle=1" parent="-bQ1QYeq7-B_V-JY-OWi-1" vertex="1">
          <mxGeometry x="549" y="870" width="60" height="30" as="geometry" />
        </mxCell>
        <mxCell id="-bQ1QYeq7-B_V-JY-OWi-28" value="" style="curved=1;endArrow=classic;html=1;rounded=0;fontStyle=1" parent="-bQ1QYeq7-B_V-JY-OWi-1" edge="1">
          <mxGeometry width="50" height="50" relative="1" as="geometry">
            <mxPoint x="240" y="930" as="sourcePoint" />
            <mxPoint x="560" y="930" as="targetPoint" />
            <Array as="points">
              <mxPoint x="440" y="900" />
            </Array>
          </mxGeometry>
        </mxCell>
        <mxCell id="-bQ1QYeq7-B_V-JY-OWi-29" value="" style="curved=1;endArrow=classic;html=1;rounded=0;fontStyle=1" parent="-bQ1QYeq7-B_V-JY-OWi-1" edge="1">
          <mxGeometry width="50" height="50" relative="1" as="geometry">
            <mxPoint x="560" y="940" as="sourcePoint" />
            <mxPoint x="250" y="940" as="targetPoint" />
            <Array as="points">
              <mxPoint x="430" y="960" />
            </Array>
          </mxGeometry>
        </mxCell>
        <mxCell id="-bQ1QYeq7-B_V-JY-OWi-30" value="요청/응답" style="text;html=1;align=center;verticalAlign=middle;whiteSpace=wrap;rounded=0;fontStyle=1" parent="-bQ1QYeq7-B_V-JY-OWi-1" vertex="1">
          <mxGeometry x="350" y="880" width="120" height="30" as="geometry" />
        </mxCell>
        <mxCell id="-bQ1QYeq7-B_V-JY-OWi-31" value="" style="curved=1;endArrow=classic;html=1;rounded=0;fontStyle=1" parent="-bQ1QYeq7-B_V-JY-OWi-1" edge="1">
          <mxGeometry width="50" height="50" relative="1" as="geometry">
            <mxPoint x="550" y="330" as="sourcePoint" />
            <mxPoint x="230" y="330" as="targetPoint" />
            <Array as="points">
              <mxPoint x="430" y="300" />
            </Array>
          </mxGeometry>
        </mxCell>
        <mxCell id="-bQ1QYeq7-B_V-JY-OWi-32" value="data 회신" style="curved=1;endArrow=classic;html=1;rounded=0;fontStyle=1" parent="-bQ1QYeq7-B_V-JY-OWi-1" edge="1">
          <mxGeometry width="50" height="50" relative="1" as="geometry">
            <mxPoint x="251" y="990" as="sourcePoint" />
            <mxPoint x="561" y="990" as="targetPoint" />
            <Array as="points">
              <mxPoint x="431" y="1010" />
            </Array>
          </mxGeometry>
        </mxCell>
        <mxCell id="-bQ1QYeq7-B_V-JY-OWi-33" value="" style="curved=1;endArrow=classic;html=1;rounded=0;fontStyle=1" parent="-bQ1QYeq7-B_V-JY-OWi-1" edge="1">
          <mxGeometry width="50" height="50" relative="1" as="geometry">
            <mxPoint x="570" y="980" as="sourcePoint" />
            <mxPoint x="250" y="980" as="targetPoint" />
            <Array as="points">
              <mxPoint x="450" y="950" />
            </Array>
          </mxGeometry>
        </mxCell>
        <mxCell id="-bQ1QYeq7-B_V-JY-OWi-34" value="요청/응답" style="text;html=1;align=center;verticalAlign=middle;whiteSpace=wrap;rounded=0;fontStyle=1" parent="-bQ1QYeq7-B_V-JY-OWi-1" vertex="1">
          <mxGeometry x="345" y="1020" width="120" height="30" as="geometry" />
        </mxCell>
        <mxCell id="-bQ1QYeq7-B_V-JY-OWi-35" value="비동기 구간" style="text;html=1;align=center;verticalAlign=middle;whiteSpace=wrap;rounded=0;fontStyle=1" parent="-bQ1QYeq7-B_V-JY-OWi-1" vertex="1">
          <mxGeometry x="740" y="130" width="160" height="30" as="geometry" />
        </mxCell>
        <mxCell id="-bQ1QYeq7-B_V-JY-OWi-36" value="비동기 구간" style="text;html=1;align=center;verticalAlign=middle;whiteSpace=wrap;rounded=0;fontStyle=1" parent="-bQ1QYeq7-B_V-JY-OWi-1" vertex="1">
          <mxGeometry x="735" y="810" width="160" height="30" as="geometry" />
        </mxCell>
        <mxCell id="-bQ1QYeq7-B_V-JY-OWi-37" value="" style="endArrow=classic;html=1;rounded=0;fontStyle=1;fontColor=#FF412B;strokeColor=#FF412B;strokeWidth=3;" parent="-bQ1QYeq7-B_V-JY-OWi-1" edge="1">
          <mxGeometry width="50" height="50" relative="1" as="geometry">
            <mxPoint x="985" y="980" as="sourcePoint" />
            <mxPoint x="685" y="980" as="targetPoint" />
          </mxGeometry>
        </mxCell>
        <mxCell id="MbBwwn2gJFHXG_YG8z9t-0" value="ATB" style="ellipse;whiteSpace=wrap;html=1;aspect=fixed;fontStyle=1" parent="-bQ1QYeq7-B_V-JY-OWi-1" vertex="1">
          <mxGeometry x="560" y="530" width="80" height="80" as="geometry" />
        </mxCell>
        <mxCell id="MbBwwn2gJFHXG_YG8z9t-2" value="" style="endArrow=classic;html=1;rounded=0;fontStyle=1" parent="-bQ1QYeq7-B_V-JY-OWi-1" edge="1">
          <mxGeometry width="50" height="50" relative="1" as="geometry">
            <mxPoint x="680" y="540" as="sourcePoint" />
            <mxPoint x="970" y="540" as="targetPoint" />
          </mxGeometry>
        </mxCell>
        <mxCell id="MbBwwn2gJFHXG_YG8z9t-3" value="" style="endArrow=classic;html=1;rounded=0;fontStyle=1;fontColor=#FF412B;strokeColor=#FF412B;strokeWidth=3;" parent="-bQ1QYeq7-B_V-JY-OWi-1" edge="1">
          <mxGeometry width="50" height="50" relative="1" as="geometry">
            <mxPoint x="980" y="609" as="sourcePoint" />
            <mxPoint x="680" y="609" as="targetPoint" />
          </mxGeometry>
        </mxCell>
        <mxCell id="MbBwwn2gJFHXG_YG8z9t-4" value="25030" style="text;html=1;align=center;verticalAlign=middle;whiteSpace=wrap;rounded=0;fontStyle=1" parent="-bQ1QYeq7-B_V-JY-OWi-1" vertex="1">
          <mxGeometry x="599" y="610" width="60" height="30" as="geometry" />
        </mxCell>
        <mxCell id="MbBwwn2gJFHXG_YG8z9t-6" value="송신" style="text;html=1;align=center;verticalAlign=middle;whiteSpace=wrap;rounded=0;fontStyle=1" parent="-bQ1QYeq7-B_V-JY-OWi-1" vertex="1">
          <mxGeometry x="780" y="490" width="60" height="30" as="geometry" />
        </mxCell>
        <mxCell id="MbBwwn2gJFHXG_YG8z9t-7" value="수신" style="text;html=1;align=center;verticalAlign=middle;whiteSpace=wrap;rounded=0;fontStyle=1" parent="-bQ1QYeq7-B_V-JY-OWi-1" vertex="1">
          <mxGeometry x="780" y="630" width="60" height="30" as="geometry" />
        </mxCell>
        <mxCell id="MbBwwn2gJFHXG_YG8z9t-8" value="비동기 방식" style="text;html=1;align=center;verticalAlign=middle;whiteSpace=wrap;rounded=0;fontStyle=1" parent="-bQ1QYeq7-B_V-JY-OWi-1" vertex="1">
          <mxGeometry x="310" y="420" width="160" height="30" as="geometry" />
        </mxCell>
        <mxCell id="MbBwwn2gJFHXG_YG8z9t-10" value="25303" style="text;html=1;align=center;verticalAlign=middle;whiteSpace=wrap;rounded=0;fontStyle=1" parent="-bQ1QYeq7-B_V-JY-OWi-1" vertex="1">
          <mxGeometry x="529" y="500" width="60" height="30" as="geometry" />
        </mxCell>
        <mxCell id="MbBwwn2gJFHXG_YG8z9t-11" value="" style="curved=1;endArrow=classic;html=1;rounded=0;fontStyle=1" parent="-bQ1QYeq7-B_V-JY-OWi-1" edge="1">
          <mxGeometry width="50" height="50" relative="1" as="geometry">
            <mxPoint x="220" y="560" as="sourcePoint" />
            <mxPoint x="540" y="560" as="targetPoint" />
            <Array as="points">
              <mxPoint x="420" y="530" />
            </Array>
          </mxGeometry>
        </mxCell>
        <mxCell id="MbBwwn2gJFHXG_YG8z9t-12" value="" style="curved=1;endArrow=classic;html=1;rounded=0;fontStyle=1" parent="-bQ1QYeq7-B_V-JY-OWi-1" edge="1">
          <mxGeometry width="50" height="50" relative="1" as="geometry">
            <mxPoint x="540" y="570" as="sourcePoint" />
            <mxPoint x="230" y="570" as="targetPoint" />
            <Array as="points">
              <mxPoint x="410" y="590" />
            </Array>
          </mxGeometry>
        </mxCell>
        <mxCell id="MbBwwn2gJFHXG_YG8z9t-13" value="요청/요청 결과 회신" style="text;html=1;align=center;verticalAlign=middle;whiteSpace=wrap;rounded=0;fontStyle=1" parent="-bQ1QYeq7-B_V-JY-OWi-1" vertex="1">
          <mxGeometry x="330" y="500" width="120" height="30" as="geometry" />
        </mxCell>
        <mxCell id="MbBwwn2gJFHXG_YG8z9t-14" value="Nodata 회신" style="curved=1;endArrow=classic;html=1;rounded=0;fontStyle=1" parent="-bQ1QYeq7-B_V-JY-OWi-1" edge="1">
          <mxGeometry width="50" height="50" relative="1" as="geometry">
            <mxPoint x="231" y="630" as="sourcePoint" />
            <mxPoint x="541" y="630" as="targetPoint" />
            <Array as="points">
              <mxPoint x="411" y="650" />
            </Array>
          </mxGeometry>
        </mxCell>
        <mxCell id="MbBwwn2gJFHXG_YG8z9t-15" value="Callback(응답을 회신)" style="text;html=1;align=center;verticalAlign=middle;whiteSpace=wrap;rounded=0;fontStyle=1" parent="-bQ1QYeq7-B_V-JY-OWi-1" vertex="1">
          <mxGeometry x="325" y="670" width="150" height="30" as="geometry" />
        </mxCell>
        <mxCell id="MbBwwn2gJFHXG_YG8z9t-16" value="" style="curved=1;endArrow=classic;html=1;rounded=0;fontStyle=1" parent="-bQ1QYeq7-B_V-JY-OWi-1" edge="1">
          <mxGeometry width="50" height="50" relative="1" as="geometry">
            <mxPoint x="550" y="620" as="sourcePoint" />
            <mxPoint x="230" y="620" as="targetPoint" />
            <Array as="points">
              <mxPoint x="430" y="590" />
            </Array>
          </mxGeometry>
        </mxCell>
        <mxCell id="MbBwwn2gJFHXG_YG8z9t-17" value="비동기 구간" style="text;html=1;align=center;verticalAlign=middle;whiteSpace=wrap;rounded=0;fontStyle=1" parent="-bQ1QYeq7-B_V-JY-OWi-1" vertex="1">
          <mxGeometry x="740" y="420" width="160" height="30" as="geometry" />
        </mxCell>
        <mxCell id="MbBwwn2gJFHXG_YG8z9t-19" value="#1 ACTIVE" style="text;html=1;align=center;verticalAlign=middle;whiteSpace=wrap;rounded=0;" parent="-bQ1QYeq7-B_V-JY-OWi-1" vertex="1">
          <mxGeometry x="559" y="150" width="60" height="30" as="geometry" />
        </mxCell>
        <mxCell id="MbBwwn2gJFHXG_YG8z9t-20" value="#2 ACTIVE" style="text;html=1;align=center;verticalAlign=middle;whiteSpace=wrap;rounded=0;" parent="-bQ1QYeq7-B_V-JY-OWi-1" vertex="1">
          <mxGeometry x="570" y="450" width="60" height="30" as="geometry" />
        </mxCell>
        <mxCell id="MbBwwn2gJFHXG_YG8z9t-23" value="ATB" style="ellipse;whiteSpace=wrap;html=1;aspect=fixed;fontStyle=1" parent="-bQ1QYeq7-B_V-JY-OWi-1" vertex="1">
          <mxGeometry x="580" y="1230" width="80" height="80" as="geometry" />
        </mxCell>
        <mxCell id="MbBwwn2gJFHXG_YG8z9t-24" value="LGU" style="ellipse;whiteSpace=wrap;html=1;aspect=fixed;fontStyle=1" parent="-bQ1QYeq7-B_V-JY-OWi-1" vertex="1">
          <mxGeometry x="1020" y="1230" width="80" height="80" as="geometry" />
        </mxCell>
        <mxCell id="MbBwwn2gJFHXG_YG8z9t-25" value="" style="endArrow=classic;html=1;rounded=0;fontStyle=1" parent="-bQ1QYeq7-B_V-JY-OWi-1" edge="1">
          <mxGeometry width="50" height="50" relative="1" as="geometry">
            <mxPoint x="690" y="1240" as="sourcePoint" />
            <mxPoint x="980" y="1240" as="targetPoint" />
          </mxGeometry>
        </mxCell>
        <mxCell id="MbBwwn2gJFHXG_YG8z9t-26" value="25030" style="text;html=1;align=center;verticalAlign=middle;whiteSpace=wrap;rounded=0;fontStyle=1" parent="-bQ1QYeq7-B_V-JY-OWi-1" vertex="1">
          <mxGeometry x="609" y="1310" width="60" height="30" as="geometry" />
        </mxCell>
        <mxCell id="MbBwwn2gJFHXG_YG8z9t-27" value="25030" style="text;html=1;align=center;verticalAlign=middle;whiteSpace=wrap;rounded=0;fontStyle=1" parent="-bQ1QYeq7-B_V-JY-OWi-1" vertex="1">
          <mxGeometry x="1030" y="1320" width="60" height="30" as="geometry" />
        </mxCell>
        <mxCell id="MbBwwn2gJFHXG_YG8z9t-28" value="송신" style="text;html=1;align=center;verticalAlign=middle;whiteSpace=wrap;rounded=0;fontStyle=1" parent="-bQ1QYeq7-B_V-JY-OWi-1" vertex="1">
          <mxGeometry x="790" y="1190" width="60" height="30" as="geometry" />
        </mxCell>
        <mxCell id="MbBwwn2gJFHXG_YG8z9t-29" value="수신" style="text;html=1;align=center;verticalAlign=middle;whiteSpace=wrap;rounded=0;fontStyle=1" parent="-bQ1QYeq7-B_V-JY-OWi-1" vertex="1">
          <mxGeometry x="790" y="1330" width="60" height="30" as="geometry" />
        </mxCell>
        <mxCell id="MbBwwn2gJFHXG_YG8z9t-30" value="동기 방식" style="text;html=1;align=center;verticalAlign=middle;whiteSpace=wrap;rounded=0;fontStyle=1" parent="-bQ1QYeq7-B_V-JY-OWi-1" vertex="1">
          <mxGeometry x="320" y="1140" width="160" height="30" as="geometry" />
        </mxCell>
        <mxCell id="MbBwwn2gJFHXG_YG8z9t-31" value="APP" style="shape=ext;double=1;whiteSpace=wrap;html=1;aspect=fixed;fontStyle=1" parent="-bQ1QYeq7-B_V-JY-OWi-1" vertex="1">
          <mxGeometry x="70" y="1200" width="160" height="160" as="geometry" />
        </mxCell>
        <mxCell id="MbBwwn2gJFHXG_YG8z9t-32" value="25303" style="text;html=1;align=center;verticalAlign=middle;whiteSpace=wrap;rounded=0;fontStyle=1" parent="-bQ1QYeq7-B_V-JY-OWi-1" vertex="1">
          <mxGeometry x="539" y="1200" width="60" height="30" as="geometry" />
        </mxCell>
        <mxCell id="MbBwwn2gJFHXG_YG8z9t-33" value="" style="curved=1;endArrow=classic;html=1;rounded=0;fontStyle=1" parent="-bQ1QYeq7-B_V-JY-OWi-1" edge="1">
          <mxGeometry width="50" height="50" relative="1" as="geometry">
            <mxPoint x="230" y="1260" as="sourcePoint" />
            <mxPoint x="550" y="1260" as="targetPoint" />
            <Array as="points">
              <mxPoint x="430" y="1230" />
            </Array>
          </mxGeometry>
        </mxCell>
        <mxCell id="MbBwwn2gJFHXG_YG8z9t-34" value="" style="curved=1;endArrow=classic;html=1;rounded=0;fontStyle=1" parent="-bQ1QYeq7-B_V-JY-OWi-1" edge="1">
          <mxGeometry width="50" height="50" relative="1" as="geometry">
            <mxPoint x="550" y="1270" as="sourcePoint" />
            <mxPoint x="240" y="1270" as="targetPoint" />
            <Array as="points">
              <mxPoint x="420" y="1290" />
            </Array>
          </mxGeometry>
        </mxCell>
        <mxCell id="MbBwwn2gJFHXG_YG8z9t-35" value="요청/응답" style="text;html=1;align=center;verticalAlign=middle;whiteSpace=wrap;rounded=0;fontStyle=1" parent="-bQ1QYeq7-B_V-JY-OWi-1" vertex="1">
          <mxGeometry x="340" y="1210" width="120" height="30" as="geometry" />
        </mxCell>
        <mxCell id="MbBwwn2gJFHXG_YG8z9t-36" value="data 회신" style="curved=1;endArrow=classic;html=1;rounded=0;fontStyle=1" parent="-bQ1QYeq7-B_V-JY-OWi-1" edge="1">
          <mxGeometry width="50" height="50" relative="1" as="geometry">
            <mxPoint x="241" y="1320" as="sourcePoint" />
            <mxPoint x="551" y="1320" as="targetPoint" />
            <Array as="points">
              <mxPoint x="421" y="1340" />
            </Array>
          </mxGeometry>
        </mxCell>
        <mxCell id="MbBwwn2gJFHXG_YG8z9t-37" value="" style="curved=1;endArrow=classic;html=1;rounded=0;fontStyle=1" parent="-bQ1QYeq7-B_V-JY-OWi-1" edge="1">
          <mxGeometry width="50" height="50" relative="1" as="geometry">
            <mxPoint x="560" y="1310" as="sourcePoint" />
            <mxPoint x="240" y="1310" as="targetPoint" />
            <Array as="points">
              <mxPoint x="440" y="1280" />
            </Array>
          </mxGeometry>
        </mxCell>
        <mxCell id="MbBwwn2gJFHXG_YG8z9t-38" value="요청/응답" style="text;html=1;align=center;verticalAlign=middle;whiteSpace=wrap;rounded=0;fontStyle=1" parent="-bQ1QYeq7-B_V-JY-OWi-1" vertex="1">
          <mxGeometry x="335" y="1350" width="120" height="30" as="geometry" />
        </mxCell>
        <mxCell id="MbBwwn2gJFHXG_YG8z9t-39" value="비동기 구간" style="text;html=1;align=center;verticalAlign=middle;whiteSpace=wrap;rounded=0;fontStyle=1" parent="-bQ1QYeq7-B_V-JY-OWi-1" vertex="1">
          <mxGeometry x="725" y="1140" width="160" height="30" as="geometry" />
        </mxCell>
        <mxCell id="MbBwwn2gJFHXG_YG8z9t-40" value="" style="endArrow=classic;html=1;rounded=0;fontStyle=1;fontColor=#FF412B;strokeColor=#FF412B;strokeWidth=3;" parent="-bQ1QYeq7-B_V-JY-OWi-1" edge="1">
          <mxGeometry width="50" height="50" relative="1" as="geometry">
            <mxPoint x="975" y="1310" as="sourcePoint" />
            <mxPoint x="675" y="1310" as="targetPoint" />
          </mxGeometry>
        </mxCell>
        <mxCell id="MbBwwn2gJFHXG_YG8z9t-41" value="#1 ACTIVE" style="text;html=1;align=center;verticalAlign=middle;whiteSpace=wrap;rounded=0;" parent="-bQ1QYeq7-B_V-JY-OWi-1" vertex="1">
          <mxGeometry x="589" y="820" width="60" height="30" as="geometry" />
        </mxCell>
        <mxCell id="MbBwwn2gJFHXG_YG8z9t-42" value="#12&lt;br&gt;STANDBY" style="text;html=1;align=center;verticalAlign=middle;whiteSpace=wrap;rounded=0;" parent="-bQ1QYeq7-B_V-JY-OWi-1" vertex="1">
          <mxGeometry x="589" y="1139" width="60" height="30" as="geometry" />
        </mxCell>
      </root>
    </mxGraphModel>
  </diagram>
  <diagram id="W-xXBrmmJ1PyumJYK0vw" name="CI">
    <mxGraphModel dx="1390" dy="736" grid="1" gridSize="10" guides="1" tooltips="1" connect="1" arrows="1" fold="1" page="1" pageScale="1" pageWidth="827" pageHeight="1169" math="0" shadow="0">
      <root>
        <mxCell id="0" />
        <mxCell id="1" parent="0" />
        <mxCell id="Y0J4EDQXMGc_jZmv3q0J-17" value="ATB" style="ellipse;whiteSpace=wrap;html=1;aspect=fixed;fontStyle=1" parent="1" vertex="1">
          <mxGeometry x="590" y="200" width="80" height="80" as="geometry" />
        </mxCell>
        <mxCell id="Y0J4EDQXMGc_jZmv3q0J-18" value="대상시스템" style="ellipse;whiteSpace=wrap;html=1;aspect=fixed;fontStyle=1" parent="1" vertex="1">
          <mxGeometry x="1040" y="200" width="80" height="80" as="geometry" />
        </mxCell>
        <mxCell id="Y0J4EDQXMGc_jZmv3q0J-20" value="25030" style="text;html=1;align=center;verticalAlign=middle;whiteSpace=wrap;rounded=0;fontStyle=1" parent="1" vertex="1">
          <mxGeometry x="629" y="280" width="60" height="30" as="geometry" />
        </mxCell>
        <mxCell id="Y0J4EDQXMGc_jZmv3q0J-21" value="25030" style="text;html=1;align=center;verticalAlign=middle;whiteSpace=wrap;rounded=0;fontStyle=1" parent="1" vertex="1">
          <mxGeometry x="1050" y="290" width="60" height="30" as="geometry" />
        </mxCell>
        <mxCell id="Y0J4EDQXMGc_jZmv3q0J-24" value="동기 방식" style="text;html=1;align=center;verticalAlign=middle;whiteSpace=wrap;rounded=0;fontStyle=1" parent="1" vertex="1">
          <mxGeometry x="340" y="110" width="160" height="30" as="geometry" />
        </mxCell>
        <mxCell id="Y0J4EDQXMGc_jZmv3q0J-25" value="APP" style="shape=ext;double=1;whiteSpace=wrap;html=1;aspect=fixed;fontStyle=1" parent="1" vertex="1">
          <mxGeometry x="90" y="170" width="160" height="160" as="geometry" />
        </mxCell>
        <mxCell id="Y0J4EDQXMGc_jZmv3q0J-26" value="25303" style="text;html=1;align=center;verticalAlign=middle;whiteSpace=wrap;rounded=0;fontStyle=1" parent="1" vertex="1">
          <mxGeometry x="559" y="170" width="60" height="30" as="geometry" />
        </mxCell>
        <mxCell id="Y0J4EDQXMGc_jZmv3q0J-27" value="" style="curved=1;endArrow=classic;html=1;rounded=0;fontStyle=1" parent="1" edge="1">
          <mxGeometry width="50" height="50" relative="1" as="geometry">
            <mxPoint x="250" y="230" as="sourcePoint" />
            <mxPoint x="570" y="230" as="targetPoint" />
            <Array as="points">
              <mxPoint x="450" y="200" />
            </Array>
          </mxGeometry>
        </mxCell>
        <mxCell id="Y0J4EDQXMGc_jZmv3q0J-28" value="" style="curved=1;endArrow=classic;html=1;rounded=0;fontStyle=1" parent="1" edge="1">
          <mxGeometry width="50" height="50" relative="1" as="geometry">
            <mxPoint x="570" y="240" as="sourcePoint" />
            <mxPoint x="260" y="240" as="targetPoint" />
            <Array as="points">
              <mxPoint x="440" y="260" />
            </Array>
          </mxGeometry>
        </mxCell>
        <mxCell id="Y0J4EDQXMGc_jZmv3q0J-29" value="요청/응답" style="text;html=1;align=center;verticalAlign=middle;whiteSpace=wrap;rounded=0;fontStyle=1" parent="1" vertex="1">
          <mxGeometry x="360" y="180" width="120" height="30" as="geometry" />
        </mxCell>
        <mxCell id="Y0J4EDQXMGc_jZmv3q0J-31" value="data 응답" style="curved=1;endArrow=classic;html=1;rounded=0;fontStyle=1" parent="1" edge="1">
          <mxGeometry x="-0.002" width="50" height="50" relative="1" as="geometry">
            <mxPoint x="261" y="290" as="sourcePoint" />
            <mxPoint x="571" y="290" as="targetPoint" />
            <Array as="points">
              <mxPoint x="441" y="310" />
            </Array>
            <mxPoint as="offset" />
          </mxGeometry>
        </mxCell>
        <mxCell id="Y0J4EDQXMGc_jZmv3q0J-32" value="" style="curved=1;endArrow=classic;html=1;rounded=0;fontStyle=1" parent="1" edge="1">
          <mxGeometry width="50" height="50" relative="1" as="geometry">
            <mxPoint x="580" y="280" as="sourcePoint" />
            <mxPoint x="260" y="280" as="targetPoint" />
            <Array as="points">
              <mxPoint x="460" y="250" />
            </Array>
          </mxGeometry>
        </mxCell>
        <mxCell id="Y0J4EDQXMGc_jZmv3q0J-33" value="요청/응답" style="text;html=1;align=center;verticalAlign=middle;whiteSpace=wrap;rounded=0;fontStyle=1" parent="1" vertex="1">
          <mxGeometry x="355" y="320" width="120" height="30" as="geometry" />
        </mxCell>
        <mxCell id="Y0J4EDQXMGc_jZmv3q0J-35" value="동기 구간" style="text;html=1;align=center;verticalAlign=middle;whiteSpace=wrap;rounded=0;fontStyle=1" parent="1" vertex="1">
          <mxGeometry x="770" y="120" width="160" height="30" as="geometry" />
        </mxCell>
        <mxCell id="Y0J4EDQXMGc_jZmv3q0J-37" value="" style="curved=1;endArrow=classic;html=1;rounded=0;fontStyle=1" parent="1" edge="1">
          <mxGeometry width="50" height="50" relative="1" as="geometry">
            <mxPoint x="689" y="220" as="sourcePoint" />
            <mxPoint x="1009" y="220" as="targetPoint" />
            <Array as="points">
              <mxPoint x="889" y="190" />
            </Array>
          </mxGeometry>
        </mxCell>
        <mxCell id="Y0J4EDQXMGc_jZmv3q0J-38" value="" style="curved=1;endArrow=classic;html=1;rounded=0;fontStyle=1" parent="1" edge="1">
          <mxGeometry width="50" height="50" relative="1" as="geometry">
            <mxPoint x="1009" y="230" as="sourcePoint" />
            <mxPoint x="699" y="230" as="targetPoint" />
            <Array as="points">
              <mxPoint x="879" y="250" />
            </Array>
          </mxGeometry>
        </mxCell>
        <mxCell id="Y0J4EDQXMGc_jZmv3q0J-39" value="" style="curved=1;endArrow=classic;html=1;rounded=0;fontStyle=1" parent="1" edge="1">
          <mxGeometry width="50" height="50" relative="1" as="geometry">
            <mxPoint x="700" y="280" as="sourcePoint" />
            <mxPoint x="1010" y="280" as="targetPoint" />
            <Array as="points">
              <mxPoint x="880" y="300" />
            </Array>
          </mxGeometry>
        </mxCell>
        <mxCell id="Y0J4EDQXMGc_jZmv3q0J-40" value="" style="curved=1;endArrow=classic;html=1;rounded=0;fontStyle=1" parent="1" edge="1">
          <mxGeometry width="50" height="50" relative="1" as="geometry">
            <mxPoint x="1019" y="270" as="sourcePoint" />
            <mxPoint x="699" y="270" as="targetPoint" />
            <Array as="points">
              <mxPoint x="899" y="240" />
            </Array>
          </mxGeometry>
        </mxCell>
        <mxCell id="Y0J4EDQXMGc_jZmv3q0J-41" value="요청/응답" style="text;html=1;align=center;verticalAlign=middle;whiteSpace=wrap;rounded=0;fontStyle=1" parent="1" vertex="1">
          <mxGeometry x="800" y="210" width="120" height="30" as="geometry" />
        </mxCell>
        <mxCell id="Y0J4EDQXMGc_jZmv3q0J-42" value="요청/응답" style="text;html=1;align=center;verticalAlign=middle;whiteSpace=wrap;rounded=0;fontStyle=1" parent="1" vertex="1">
          <mxGeometry x="800" y="260" width="120" height="30" as="geometry" />
        </mxCell>
      </root>
    </mxGraphModel>
  </diagram>
  <diagram id="5c0p_-0dn7Is6VfhbwFF" name="타발 테스트">
    <mxGraphModel dx="1512" dy="486" grid="1" gridSize="10" guides="1" tooltips="1" connect="1" arrows="1" fold="1" page="1" pageScale="1" pageWidth="827" pageHeight="1169" math="0" shadow="0">
      <root>
        <mxCell id="0" />
        <mxCell id="1" parent="0" />
        <mxCell id="B_ocJ2dd9e3C3YTa8ywY-1" value="" style="shape=image;verticalLabelPosition=bottom;labelBackgroundColor=default;verticalAlign=top;aspect=fixed;imageAspect=0;image=data:image/png,iVBORw0KGgoAAAANSUhEUgAABe8AAAOWCAYAAAB24mlvAAAAAXNSR0IArs4c6QAAAARnQU1BAACxjwv8YQUAAAAJcEhZcwAADsMAAA7DAcdvqGQAAP+lSURBVHhe7N0JYFTlvf//DwkJWxAISFhkE0FZRIIVsAiCWlGuFPelLlXaK5WKtXpF/d9qrdor6sXaYrH4a9GCVkWhULhoFEVZakAlLmyyyI4kQggQtoSE/3nOnJk5M3MmmSSTMAnvV3vkbHP2cybzfZ7zfeptXjr9uAAAAAAAAAAAQJXUqycl1UtScnI91U9OVqOGqWrcsIGSkqwJFZTk/AsAAAAAAAAAAKrg+HGppLRURcUlOnSkSHsKCrVt1x7l7tmnI0XFzlyxIXgPAAAAAAAAAEA1OnK0WLm799nd0aJjztiyEbwHAAAAAAAAAKAGmNr3u3YX6NCRo86Y6AjeAwAAAAAAAABQg77PP6D9hYedIW/1jm96J6LB2tLSUjsvT/GxEh0+XGyXApSaZD1xZC+unvm/0wMAAAAAAAAAqEOOW/+rZ/6xG3JFpPRmTdS0SSNnKJRn8D7c8ePHdeDgEbskwAT1q8I+XcftqD0AAAAAAAAA4GRw3Pp/PV8qmHID0ieZ1unN1KhhijMUFFPanHr16umUtEZq17q5tZBUZ2zFmFi9qW1fz/QRuAcAAAAAAACAk4cTFi61Y8Rw+37vfh07VuIMBcVU8z7cvgOHVGB1AAAAAAAAAADE08HDRfq+IDL+3Lltc6fvxDladMz+t0FqffvfeGnYIEUZLZs5Qz6VCt4bu/cesA5i+S3iBpnVUKYCAAAAAAAAACc3kwnf1xpquJKSUv1l9grt2RcZvP/5jzPVrlVTZ+jEWLZqu52ppn/P9s6Y+Gl7anOlpgQLBZIev2imcpyBimjZPM0uDYgdgXsAAAAAAAAAgHfg3th/8Khn4N5Yt3WP03dimLZhl63aqeyVO+z+eAvPdpP0sj7S1ReNUxfTPZit77VJsQT07Tz4TRo6Q+UpY0c2vKuhz3yhfGewqvIXvaqht7yr1c5w9dquF255Ve8WOIOVVtHlxGu9QAz2rdcLz7ymWVudYZf8L97V+KxcZ6iabF2m8dPXx+UZYW+vtS9mm339y7TRmRY/uZr1zLv6ZJ8z6KlQn0z3PqY1pUbOHapR6DVU689nHO/zsp5ZAAAAAIBE4h0zLjFJ8aNYt+XEBu83bM9XQeERu9u4fa8zNn4OHykKKRTwSJtjgvcrNPLDa5TpjInGLGhHbn6ZB7RcJng/q41mje+rdGdU7WGC6B/pjBdu0WVVSrdU0eXEa701zARn3tjgDEgdLx2lu/umOUOhNma9pil5/fXQrd2C14UJyExZLl88pqWuGnOZzvengQpbtjHwxpt1dUdnwA6oLlC2MxR93Wa+zTpn/AB1dcYgOhMwnJCbqWeGZzhjqoE5tx+nh14Llo1Z7ypvoLkGrHM2fb+Ghk33cZ1P+/rJ1+XVfm7NOnPU1n19RjCB1zn67kL3NVqzauTcoRqFXkNxPZ/mXvmX9BPPe6qahNzn0e8h893wTkb0747q4TvW//zOGbSdoTERzxKz3cHvGcPzuybad6HH95hfWd+XAAAAAFDX7N53SJNnfuYMVZxJqzP6ir5KSop/JpjX3v1a337nC9p3bZeunwzvbffH06npp6hxw1S7P8mucW91P313vz2iIkzt+8YNGzhDQFkK9cmadD00/mY9Y3eXqN17c7xrRu5br3e+dPr97MDrRp07xvn8jS30zynBWtP5+dZNc84lzrJ9XTAoagIvC7Tz0lHOtOjrzv8ix5qvF4H7uDHBrPJqoVdGofLyWqi1Cezt26+drU/xDDKGnM99+dp6TueT9NzG8TyYezEubyxU17VRhrhte9Ukei35jdnL1e7CGgzc1wqmwDj4/fLQpXs1xf2mgAm8P7NAujE4zzPjR+ncr+eEvlFgB+ilMYF5btbl+s43veOAwLiHLm0Z8p1G4B4AAADAycQfcm/cMEX/8cNuuu+mgXp09BDdeEkve/zIQd3sYa9u/C0/VMGBI3bqnXjbu/+wNu7cq7M6tlJ3q9uwI98eF2+m9r1f0qYPJ8l09278bz0eyDXjpNL58yZnOLomjX2lAEDZ0nT+cHcwKENDL22p7DWRASwTOFLbls6QT/6mjdKlFwRrYXbspavabtCXrgB8x4wmTl+4g/ruuzN0eSD44Vv3zvxCZ9ivUN98LZ3bhSBJ4rPOqXU1tTC9+/KtU+p17jmfQMXl6ssvz9A5J+iNkNoivW+mBn63Ud/YhU+5mvXGhrC3vQzre+/WUbpKy/WR8121cc0GdQwrIO7al4ISAAAAAHAzFcaNkRd0U7MmDfT3+V/ppX9+rn9/vc0ev2azL3XOkaPFdi19t4ap9dW4QX2VViEfvVnuu59s0MwP12iate6/zPpMz73+iV6Y+ak9vX+vdhrQs53db8aZaWYeM6/5zLvZG+xlVFZRcfCzyY/de8tjpmfXp+9oXZcRuvDUAn389wZ69MP7NaG/HRorU3K9JO0rjK2EYfX03+m6Zz/WK7Os7uAZuv2cU6T8DXplTZpuGNRGjex0MP9S/kV9dIY/nX7BFxr/8y/U/uozdKo1aHLaX74oXT/e9y9d/t//9C1rQ3P92P68xaTh+WuhM1yod595Su9mnKHl9/xB4828s7arjXv5zjw/fzFsuzyZ7fMv52OtbtVRzT7PU/oIs7zyt91mtu+e13zrmnVE/e1p+7V81mZnOcF5Vrf6gX7UyRSOlLXeGPbR3o4p+n3IOiPZx9Z/TE0Xciyc/etTqpfusZblnxa+P3026Dr/8Te1XP/0qUp6n6EOgeMddHjXBm1NO0P927gKgLYu04TVZ+iuC6UlWxrpgnNa2ufxi/dzVK/HD9QjkEIhVU2O79S/D7exP2+W9bU6hi4rIE2phR/rncLTnem5emfaLnW/pGfodm3N0aQt7XVlf7NOX+3Y305bpveXfq33CzP0ozPS7JQN/wgsx3xmmcZP2aHTB53mBF9MbeJVSnWGQ5ax9LBrPsPMO0cv29O+1oEOGVozZYkKXMcr5PPfNtLpxz/VhC+b2ttis9f/sbP8nUoLfNa8bfCWPm1hlmmtw/rsufax9GCfpw1q6d42s9x/HXY+Y7YzdLv8zHFfcrCtTt84RxNm+fbDf6x8y12sVTqstZ+bab79l9knax+Cn3G2O8+1L+7t3bdD7/uvBXuZ7+rtpd9qe+EOLTHzrszXvo3fhO2/xXU+d1rnbcIH+dYh/9Ze/oEOfdRjX3AfD5ttev+4a52h125FzuM3TVqp6ca9avqDyOMVVKTtX32jws7Wdviv6VjPZcR0wzfPpCz/NmSo5P051mes5cv7PDQq69xFY7bx719rn/L1uZk/cJ7Cj4HrHgmcs+C606NcG8Fj6hbtWq7gOqNuezThxzT8vvefq/BlOfdLh+OaMyVsG6yp5hnyx39b35nOtehb7t7Qz/jPQ5nrCb2G/Pdi8PxFPz729Ry4B0OvpfwvluiNtB66wVmO2V7/9RFyDGJevtdnLeHXe7tGWpvnf+Yf1Jqluzzvob0bv9aGtLMCy/LePuccuO/fcran7GetOdZbpTPd2+PaxrxVennPGbpliNf1lKoOLQ7r5Y+d52nhTv1fbsuy7zNL5PkEAAAAgJPHoSPFWvHNdxo1+Cy9uWCV9uy3flOd1VYtmjZUm5ZpWvltnnT8uFZt2q3PrfkKDx7Vlu8K7M+d2qKJlq/Zqd6nn2rX3K+M+vWTddz63+KvtinfWvdBa7md2jRXhzbN1KNTS/U5o42aW9tyrKRUyclJOnT0mPYe8OXBN93gPh3VOr0Kv+dMW7Npvl+YgbQ5z3f9vR7taY+rEKcgpFwmcD9WP9NHr/7W7mZ12l35RmWz/qYJujKwrMlt5+jq6dudiZHefmylLvKv905pwkv+BnJN4HuiPhx4f3BZ+pvGLwqvkW2Y4PXfpMd885nu9i1z9LYzNSYm0P2YNNn5/EcvtNHW8PS2JtD+2G499MJv9cwQc5JjW2+Z+/jSHHX0f95rnRYTuL/6pVbBbXv1fj30Xfix2KgJs6SHzPRbT4vcn1d768PHljnzlidXH70XXis6V7Pe2KurfuxVC7Gl2gYC90Fbcw/a/+7N3aOt783xNUZqdS98EXoOuw6/WZfn+qdHyaW8ZoMG+lNF7Fuvf7zXIpDa4KGM/Xaqja49zgis09i4Zq86tt2rPH/qj62ble1PzWIt4yNdEEh7MOacDZoSSJVhgkuhKRbOWROaK9kEkyZ83TWYaujH0jvvuRrlMMEvd/qFMV31uSuVkJH9hsn3bk2rztzVXy7Qlz3829BfHb/M8aVCadZNd4+/RAMD6SZc+aHdn7FTIFnnZU1n3/B4X03Vf4SdQ5u9TF9KCZMD2sw/5hz/8kPPqft8mvP/zI1nBNJQhOeZT+97mca09q+zUJ/8a7na3ehbXsR5uFGudBmR5/Hy3OUh5zEmFTmXVvfQpdI//+XfBhNknqPPz/anhbpZP1FOMD93rOfBfe6iMWk9zHx2vm/rM4H85O5j4EsV4ktL5T+W/nWkK8+ML2ubogi9liuxTs9tjybymAZSm9jnynpOuVKomGtnQkganD3658fST/zTXfe+uRbdKVGC6VBcnzF562NaTzRlHR9H4Ny77xvf2ypXDXTy5lvbYLc94qw/cAwqtHyrs4673lsSvLbCr/fxmfruPe9c72WKun0eytiecp+1HjZmWc/rczJ9zwiTti1K6i5bs3TruvNJ73uBrspbYH0P1XDKKAAAAACoA1o1b6LM7m1M3F47dh9Q87QG6n5aunbtPajNu/bZAXfDTK9CC622bh1a6o4rzgkUACQlSSPOP0OD+3ayh42Lf9BFtww/W/2sbTLSGqVYn+mrMzpULQpXUlLq9LnS5vz9Mn8N6y56NIbGav1iegOh4Au9kjVAk03A15E+pK8qUVbgM/xnTmDbp+etP9O1WSujFgZc+9hlgXWlDxmqa7/apV1moGCDPtQoPeRe1shRUvaGyADAhpV621rv3Wc4wxZ7vU5/+Qr17qxlIdui5n11mWt52v2Fxt+9Uhe5G6KNcb1R9zFc+DpthVqeLT30gmvblKbL7rSOxUtLXMe1qx66M9iw8OpPlqn/nRe4PnOa7n5sgNNvsQN0kUFyu1asHfgJDRqZvPSh42JnB2f9gRcnp30wgG8CTa8FAzfjL5D+FR7gLztVRHrfbr7gYsfOGvjlZieoan0mr6t+cmELfb7Jtyw7YNzDCXxZ+3+1K0+xCfwHmCB/2/4a6lpf1+EmmOlngmh7FChMMKzl/cQE/Rz2um50BT2t6ZefE5pKKGR6dTnnkmAw3N6GPfquvKCU+zPmmJogrj9gaF17Z54dmjYp3N5cf8GP7xycGXHNVDz1hzn+7d5bpY1bV+mfrf3b5wQz3QVKJmWTdQXY6TLswhrXvlhCz2NsKnoufSk78mU3j7LvO30ekhbKTL9AV7V1BspSmXMXLuIYpOn8C8/wTIll1nF+Bc6JW8jxqe51mmtA/fUT9/3rpDbxnavQ55R9zkMKPqzr2XXNdB3YXx3z9kcPLNtCPxPbeqKI5fiEXbc2cy1ZRznyfvIJpHep6PLDrq2I610ZutoUrlVRmelnom5P+c9anz2+QkangHiKLqlk48DWsbrV+h7yF1omQBsMAAAAAJBoTNqcktLjWr99j4b9oLM1LK3flq+WzRpp/VZfZau8vQeVmpKsC/t1lkql4QO6qleX1va0JNPFWuO8DG3S0/TzH2eq1SmN9M3WfE175ytru4KBdRNk/8f7K7Xoi606tXkTa95+9meqyp82yAjUvA/tZirHmaE87g2OavcuLe/TRr4yiARituurObr6lt9pqL+7e46WO5Pd8nfudvoqq0AbvuqqM1o5gxE2asJjpoa8K3Bvqfp603TZ+J9Jjzn75/mGgtk2p9eteatAbcFIhdr6ndSxXcUuSJPiYPyUfF0+PrT2s0nVEAyYevEOKnrnufcFggI15L0CTT/uL30drKUZ0VBts26629SwdgI1wRqlGTrHH1S1lrvz7LZKb5buLMs0ohoaMDY1Ov3BnvFvbLCeLL4AXrk1Ne08/d5vG/iYdZnayM6ynW5KeEO/IXyFGIH53Y0oJiD3Gw5+9vVj76c/kLZA2d8t1wSzP64ayZVreNhcN9Y5NzWCA0E5cx5Cg3bjn5kTqNVun8dy+LfZ13nVtq3MuXQxDfG2dfL/x1HItWt1IbWqXexj8KWpSezafnOt20yg8hLJv2/l1Bov/1j5xG+d3vdE9PvTd64iNVHbWApLYla19ZR9fKKLaKi24wA9dLb13WQvI3g+Krt8n2j7VglRtq9iynvW+vnfEnE6V+A+Pd26+8oqnDH3aPj15G+c1v6eIYAPAAAAAG7HndricxevV9PGqXrkjiG69uKe2ryrQB/lbLGnHTpyTCvW7dK/lqxTw4b17XQ6fsfrBZdRVc3TGmr0jzPVqEF9fb/3oJJNFXyHSZmz8/sDatwgRaNH9tUpTRo4U6rGvY6k5U7N+2B3n+5wJsai+Ngxp68Mrdqov9NbLQp2K0pcqWxmu/qM0qxA2henGx+sXe6X3i5q1D1GzXVGH6fXU1c99IIvyP6CKwZS9fUap+luZ99MWqDIAH6UbTPHNWqhS5o6VjBYZQJzdm3FiBQZJoXOntBgkAkE2UFZE5BJU+vWCmtg1ldbsl0MpVl2oMmLv+ayvSyPhk39wZXxvkCgP3hpatCbGqYmZY79mWZtda6sZZlaq62dlDkWs7//cKXNsdO2OOxgT5nKC9L5jolpIDGwfKeLXgCSoavd81ZnKp1q4nvD4hINbOukyrCOqT99TjCYFuV8litXs96Qrrp0r94JvJVhzkNY0M7ufDWiyz+P/m0O/VyoypxLF1dKjngyqYRi2Rb7GJzjSwET0gXOR/C6GyPrHi8jmF7+sfKJ3zq974no59V3riKZAHALtS43AByrqq2n/OPjxfttlcB1YKdy8gXIK7d8v2j75mbuO68CW1/g3/3c99q+iolDwYt5e8j6vvI3ShuqUJ98vCH4RlY4j8bXAQAAAOBk5w+7HzparKnzvtTjUxfpTzOW671l39o18g2Tb94Ey79Yt0u9Tw/9oVnPmsVdez0ejhQdUwfrB7mpyL7kq212Z/o7ZJyiw0WVb5zWS3Kyq+a982+lHT4Sw8Y1P0MXKTQvff6iLzzS3Jymi4Zv1IS5/vl8+dojasJn/c0V4PbNo5D0LTFytmuCO697wRd6wRk2efoDge4zeuvakPWa6X9z5Z4vb9vT1H+gNOHud4P7ba3r3ZDKiqfp7hdGaas7gF/uesuzXS+4jnubTv7QsrV9z/zOyWnvsW3+4zrwjKgB3p7nD9Dbj4Xuz3h3zns7PY4/mOILDAVrNLuFBdBMZwLddoDWF8AzaSdCcyb70lr40s4U6pMv3ME5E4QNBkvSu3QNy+Xty4m91Z+b3k6T4stdHLB1maumcVhwxwRL8zbrS+vTvvQSJs3LXr3zr41qFwjQhAeZfNsUYKffWeBahy9tUDBXulmmO6+5xdqmCa48zHYhwhuhNTY3ZlWiBqcpfGi7wRWwDtvWEGY7I9sUiC4OgbFw+/Zrp1OL1RTMRBTgeJ3PGJgc1rpxgM7vm6l2gWvN4zyYY5DlDEecR99yKprzvkrn0i48Cm0jYGNW8O0Anzieh2anyNeeusPjGATvH+tacgXOW2S4U5FUYZsqu87wbY/GWb77Ot/4he+c+85VaJDYl/88WHBXnuiFA0FVWk+Zx8eb19sq+V8sC67ffewqsXy3yOs9/JnjS50Vfk/Yb2gFnvtlbF+FlP+sLZ/1HWZ9Z5m3Z0KPgXleWvei662yjVlhBQx22qtYav4DAAAAwMmjfnJsIeu9+4/otsv7aO6Sb7RpZ7Dybjxr3hvb8vb58uhb/3lx1mf68LNNdmf6TWGCmbYjb78zd9WlpgQb2k3qH5Ey5zm97EyMxeGjRU5fWUzqFl8DqP70NBN0hmew3Ze/3j/fbOnqUZG19oeP0hmznDQwt0zUhLahOfBj50sp0/Glic6yrO4l6SeeywoG1v3zfnh+aO758rY9fcgtmnXnbo11rat/eJrf5n31jH89dtC9/PWW7TT9pNNHgc9end1bs1xtD/hFbJt1XE1DvmUe1zMui9ifh0zO+7atIgP+JuCqDYE0NIEu1tQtdhobf45gqzOpTQI1x9N0fvpm13J9DSkGagqbz9q1Mv3TfcEUfy1RO/9yeK3Ijr3U9uPg/KbhyuDyTLB0g7IVTINggnEmjVAwAGNtk8kB/YZ/GZt1jimQCMjQ1WP6a2dg+hLpxyZXerBWrb8RVV9KCKtb09nXUKs/VZBJGXHp3pBj+mWP8LcaYuGkEQo0+Bu+rVXhBMbimdt5n3XF2MfAV8M+POjleT7LYb8VkucPCppAnLnWfEG2iPNgztVA/7UXfh7NOah4zvuqnUtfmhjTzkPws6N0VVt3QDCe58GXOsreVvv+jTwG5lr13S8ZGpqRExhvNwoaKMCryjZVdp3h2x6NtXyn7Qz/cr5Md865eSPH/SyyugrnP3eC3+azUQvCqrSeso6PF++3VdL7dtZ3gfW72ySp6PLDRFzvkc8cc9+F3xP2uXS9MRR9+yqm3GdtLMz5ct7S8m+v/7vDfc66Ds90bbPVTdmocz0aUAcAAACAk5lJVXNaa3/7rNGZnPOd2jTTjT/qrdkff2PXjq8OW7/zBeY37tyrfYVHdUGfDjr/7NNUcOCoNm73FRps3eWuqVU1jZxGco16xze9U+liiMNHjiov/4AzVBazivi8qpC/6FVdvWWoPvIIQOPEq3Xnx7wdYOfgr0zQO85i2BYTZH4nY5TudjWkCZdEOp8nVK5mPZOjtgQFEYutyzT+4/SQwPjJjmctAAAAANSEysWM/zhjufYVHrH7bx9xjjq2aWYH7hum1rfH/Xnmp7rxkl5q2ayxPVxVf5ubox3fH9CZnVrq0vNOV4tTGtnj9+4/rHeXfav12/bYhQg/tbalqky6n45tg1kEKp02x7wmsKcgskFJb/HNMYQEseHdkHQ+Jm3OBFP7fmTtKVjJ37RRqnDDpvEQmtrD1Hw1qXzc2xKSEsLYukxTvjxDlxNMiurEnc8TyZXGx+FLr1Lx1EE4Odlvq7gbqj3J8KwFAAAAgBOlcjHjszr5gtvtT22qU1v4AvT+wL1h4tbxynl/7FiJiotL7PQ8N1zcKxC4N0z/TT/qpVsvO1uHjx6z3wSoqoYNgrXujUrXvN+994AOHj7qDJXNHCvTlkA8Dhk17xOLaRdgbJYzINPo7i26rLkziLKZ2q6uPM+m4dXQWp5OvuRA7vIzNOakr1EOT/YbB8uDDXebxkQrksYFOKnxrAUAAACAGmdixfV8de8rasuuAv19/ld28D48P74JtBujR2YqKanq0ejiYyVKTkoqd1kmcG8KDerXT3bGVE671s2VUj9YEFGp4H3B/oPaV3jYGQIAAAAAAAAAIEamlddK1o4vLT2urbneOebrJ9dT+1NPsRYdj2rkNatJowZq1aKpM+RToeB9aWmpXeP+8NFiZ0wFmONlTgopdAAAAAAAAADg5GXHin29kF2739S6T7L+dYs55/2hI0XamVdQucC9YZ+Mer5/ODEAAAAAAAAAcPI4bv7vBIaJD4do3fKUiMC94Rm8P156XMXFx3T4yFEVHDik3N379X3+fpWUVj3pvl3v3vqPqYTvO0ecKQAAAAAAAACoe3zhen9Clnq+6DBc0ps1UWpKMM+9W73NS6cTPQcAAAAAAAAAoAa1bJ6mtMYNnaFIMafNAQAAAAAAAAAAVZOUVE8ZLZuVGbg3CN4DAAAAAAAAAFDtjiutcQO1b52uhg1SnHHREbwHAAAAAAAAAKAaNWqQqnatW6hl86Z2zftYELwHAAAAAAAAACAO6tWTkpOSlJqSrMYNU+289h3atFTrlqcopb53w7TR1Du+6R0arAUAAAAAAAAAIIFQ8x4AAAAAAAAAgARD8B4AAAAAAAAAgARD8B4AAAAAAAAAgARD8B4AAAAAAAAAgARD8B4AAAAAAAAAgARD8B4AAAAAAAAAgARD8B4AAAAAAAAAgARD8B4AAAAAAAAAgARD8B4AAAAAAAAAgARD8B4AAAAAAAAAgARD8B4AAAAAAAAAgARD8B4AAAAAAAAAgART7/imd447/dVq8858HSkucYZ8undoqaQkyg8QxHVSeRy7yuG4+XAcTj6c85rBcfY52Y8D1wEAAACAyqj24H1JSan+5+8fWz9a9jpjgi7o20l3XHGuM1R13787Wf2fWeMMhRoy/vf6+2WnOEN+m/T4Rc/pZWdI592s5U8P1KlWb86fJ2vjTWN1bbpvkrRfbz/433rgU9+Qf3lmnf+lW/S/elUvdhyrR3v6pis/Wz+99jUtcgb97nhhkjWPWdb76vr0Ncp0xkebP6iHnn07uD1e+xrYx9Uz9dOtP4rcX/c6XPtqRO5v2LGJMFSzPnRtfxXV5HVS19TUsYu45pxraLtz7Vy4fHLoPRDGf69E3odBZd3DuuY+bfplF2eg6mr0mgu5v0Pv5ch7z2E+83qG/h62z1Hnr6QTde/l/Hmcrp7pDFh8z689evzBXN3luq6iHSf39RTLtYWgk/ecl/W9Ft/vNKPGjrP1nd/l7o+cAYfreRntmWHOx9xh5m8S/7BvvvKe5RV1oq63yor386S27T8AAACAxJL0+EXj1CXQTdbb+c6UOPm+4KD9g+X09i3048FnBbou7dK15IstmvnhSmfO+DDB8U0fRnaRP8JMAP0d9Xw7OM/yYSvU/8+bnOmhcv7839aP3N87896nrs+8Wv6xMj+enWX7u6g/htMH6u9h84Z2oT+8T71sbOj0F4Y6U6LZpMevXaGRzv6Wta8+XfSoa/nLx/ewAy2B9cU5yFHT14kJWnSJ2H9zTbjvh3F6fLUzyc8EVF3Tf/rufmukCQiFfs7XzVSOCao8mK3vfZ/28RpXBTV57EKuAVfhTyy2b1yjRRv3OEPRRbuH4xm4N2ruuIXee5s+vFyrr43/s7ayauY4BO8t/z2V+UvXubWeX107xivwHrmuCOYeDL9XnUk+vmX47m83c6+HzmsCff7leK8v8vkQmC/keeK6JsK3r8xndcWdlOfczxQ6+rchpIvvd5pRY8+YnteE7ot1bO8YFt/nZVXU1HEw3+vlnv8ToObuN/ezybkn7GdH8P7wd/azzTxnwp8t5pnk/vsk7FkUOL7W+Mjno4/7mWg67/l82+T5jA35+8j3/Iy2LgAAAOBkkBTyQ/btfpr7dPyCioapcWSccVorjbqwZ6C7/yeDdFrrUzT/3+v0sydneXa/fPZfmrUwTj9uPa3R6l1Ob5n2a+PWobo3UADQRXeNlx64dlz0WsKV4vsxE/Lj0/xwikegd/UKbRx/S6AA4NTLbtGzW9+JMYC4SS8uzFDXhe+HBbjip2avk02au7WHhsxc4bE/pvalPwhyn3S368ewORfX7tC9gemT9L9abU0PFnSEFnJco8ye12hWx9f0X4EfntYP0btz9eyDFQt8lyWx7zEf82P+auseumPrc+X+CH/57uCPfncX76BMjR23sHvP//yI7dlT/Wru+vHdW14FmDkLc9WzjTMQ1Rr7meu/HsKfvYue+W9rvAmAn6Jrn/bdi2UpszAyf7Xmyvr8wtVlP3vzs/VfC/s536Fhzwu3sICx7xhYz4KQ58nl0vLgvRHcvt9bz+rn4nr9n6zn3Pbpa+rvLC+ki2OBqt+JeTZbf0f8XRpZbq1583eNrK76g6K14TuqOp2I/Q9UOAkUerv/tnEqtPT8UcTfgTmvv6auP/X9fWIH4f/ePuTZNXJr2feJKUDpv/HywPymu3ejdZ9GFBLE8ow1fxM/J73gVQEHAAAAOHmEJtpMz1DXT3douzNYnRo1TLF+uFygXqe3VveOrTy7hqkp+r+l67R3/2HnU+WLFviLrLlofuybYEtwnv4mCBNz7d4MPft2OcGCmc+5tsEEdfw1MIPpd0Kdoq4dnV63jhkRgd7wmk0Rr8yH+X5rblgtxyjr8pDz53fU88Fr9OiD7fV8nGuAlqc6rpPv331HG4fdonuv+UhzywyItVTP83K10f5ha4LuikircOplA8utrZn5S/Omhq/gw153SCC3+lTHsfMFy6zrrQKBLvvHvLm3nrauoad/r5ELPX7Iu0SreR+vFA7lqa5nU4Xt2qFFngVMNaPmjoMpTOunC8u9J0y6oeD1EP7s9QW7I1ODVIYvgHWLRmqFPi6vgDPwfDbPC7vHV3u1vGdlvvVsuaaf6/nRRdd6BqhO0YXDYghKx8FJcc6j1byv4JtEVVF9x9kEO1+VrO/rTFeNaXeqooDV72vusPus57G7UN5XWBLfSgnRxfM4mIoPZj/tvwED30/+v7l8XXgBmP0Gnn96Df9tY1TXdWAXluu+GALe1t/BP83QA687+249t57ferPuMt+1/oLJsPsi0/qbJ+p94nw+/O/ozF+aAkivQoKyn7H+Aoia+u4HAAAAElVo8H71Cr0cEkyIn+PHfTWP3E5Ja6j7rB8uD942xLP7QY/29nxHio7Z/5bHnUrG/MgPqVnpGZQPTQ0T/ce7CXR/pOddtadffEbqWl7AICRtjgn6+tdn/ZDxB3nCnNa1R0hNOBN0H9K1pTMUKjzI6f6h5g+yVu1VY98P37nDnOCISe0zbIW13Ci1S+Og+q+T/fp4oTSy/ynKHDZUL/+9jCC0XTPMCTBV6d4wNa1zdfWDk/Vfz2S43uCIr5q4xwL3lHWvyClA8gwMWfyBEZNTOXhv+WrIbrKvoxMTMAlX7cetZ7+wNFu+50fZtY5N7Vnr3j+vvAKm+KmJ68eLKdCSU9PT5tSMjryuyq6FHT+bNHfmUI3saYLmCga2vJgCb6eA5ft3X9UDHSvwjLA/G8vbT+Z6yYihJnXFnTzn3PdWWxeT7z5azXt/Vw018GvkOJsCo4tM4N75vnal0pl1jW+WADPv39vrfy/romtNoXxgn32FJTG9wVAJ1XkczPeK2U/77yL7+yZYa9t3HExljWBqKn+AO3CMVP5bYVVVE9fBRmu/KlQRxVX7/vvlK4K17q1+DesZvEdjEP0zvmfp3MCbReU/Yz+2/n6IrQACAAAAqPuSQl4ht/7gj3de6RoRlpPTdOZHfqCWsKvz1bzy/5D37rx+wJmaQ3aNYXsekys/LM1CVTn7EL7d7uGKpE3wB1n9P3xO7ZgR9nq875X5aHyB1xUaaS0jpNaTHRDop7lm+xIg8Fph7oB8z36649PwWl8f6Wrn2Hd5WvpfJ+hcViFKLE697HJrXWvU9YU4XzcnkL+wLCIw5PDnt/asNecPLHk8b6K+PVMNQbWa0UWPmpRkgSCkeX6UU1t49ft6oOPl+vuDN2tjtFQsdYH13DOBJrump995vprR4ddVSL50pws836xrsaJBnpDvB/e15SqoO7V/vyjptfycgjlrGaaBS//1bAex3M+LkICxP4BoCnNN+wdh63cEt+85bRz/ozrz3Dgx59wpNAxZ1n26IyyViN1FLcRPVM7fM+b7Kqa3EJx0Tf79TB+o/x22wpXarY6wn6H3ub5/fOnKfAFkX4HYLNf3T+ZNN5efJivhfaQHnlGUtHyuv22sLvj3pD+wnq0XXfelaaOmom1SxPyZ8p6x1vPygZnWvVkbf48AAAAA1SCY8/7tm8sJUiSw8Mbayuh8P+RCf8ibWmbuWuzeAQH3Zyr4mn4sYtiHKr06HFb711dL9PKo++ELmkQLNDtvENTCH1YmqLYokOaii0Zes8ZVG8zwB3PuCwnsm8KPWBpbjcZOl3PN0LodiI2DiIaY3V2tC6q5hDRIHfr8yPxl2PPE1Io1KZrM/WUCa/ZbG7W14KIM/v2swHmNSBfm6ipaazbkzSzXNuQs/ChYUJfeUyOjvv3gC5raQXtrGf+rV+3teHx18O2eAP/3bMT5d56lP91hB/fdBbTu7bOXXRsLS8Od4HNuB64Dn39OL4cENGvrs9n526SMYxr6jDHXXOh3u78gxD+fGa7S3xsJIrzAPeR7/Lz2Os3X51ODaSOrj/X3ywsZeuBar2s5tKDKfX5N5YKuz7ymja5a8+FvgcYi1s+U+4y1npez6ur3HgAAAFAJwbQ5/iBRLQ8QhOQw9XfR9skEEtzTzLDzGe9UICZYE/qjqMzafyE5750ujj9GPGsoRz1/obV/K5bfv64wte3WhJwXc54Xeda2s46X+RHsb8C5TfvKF25Z15WdLueX19h59oPpl2qf0LdZgikIUJ6y3vZxHUfzDLIbMQ0G18wzZvmwFepfF4K3fh77GYtohTtxS/Nhbdfz5pkQuM597ZO8vNDj2Ju3eDoG0zr4ts2k5jB5mivYroUpvH37Zm2MksbLrp26Nbd2B7IS4pw7hSURXfRUdrVHjM+YgNB88OFdRd70S1ThBe4hb9CFB+pNGxThAf3ayHqWLLffBqpIYZSpyNAjpMDRLuio4JsI0T/jKtCM8Rl7mnXfm8b++xPABwAAAEJz3tupPWLKwZuYTOD++a6u2pROt7zrO2XW0DPBAbsWkqt2bLRUINEEluEXUtPW1XnVjvNI+xOt8/+gjhbQKLM2vHubyqr5WIntqRXMq9ohNWBNZ2rYv6YXvfbD5IKVMy1KDeicP5f3A3m/3n76tUC6HF/jte7857VH5DUXVmPcraLXUF295kJ4pOiwupBnjX2PRgY37WNflwrbouxneaLVwo5X/nv7zZyQtkqszn4rLcr3YliBnnnD5mXr35iCXtY1H3ItmwaKnd5woW8M1VIJcc6jBayjNSJf24Q28OvvvP+eiVaQUX0572uUSYs38znXPeZra8QXoDbB6o9CKquYBlQrmuM9UZnvi1lm/6oS+O55jS94HlJobP098+cylhntMw9a95fzpmdFnrF2Q7fW32B1quAaAAAAqITQBmvDaxufxCJSWVSnGFLm+LsaeZU90bYnTsyr2ne4G0m0mTy4Pbxr1pp0BK6c4+YHsV0D2hX0mTus7GBUzp/Nj9bIvLt1/h6r6DVUR685xF9IuhtXF3v+c5/It0h8tUOfvSmskCR9oO6NSK9lMcHoFxSSR7r/xsvtbfE/JwKFxmGNpNrjrWt+5MLguC5h6WTc23dyvikVFK9zbosowPV3FS9YQGKxG6E3byTaQWtTOGHehPHfY6bx2uDfdSY1oGmk1n+P1bXGUe39C6m5HprzPpY0XOHHqItpEPkm72eUP+1U5GfMm0jW/Ws/vyr4jLVTQv1ez261lkcAHwAAACexesc3vXPc6a8Wu/Yc0H+/+L5Ob99CvU/PcMbG5uuNedq0M18TfnmpTm2R5owtm6l9H5HyxtTy8Qp82K/xvxa1tqMJGIT+mHNqEEWroWeCAjHl8jXLeV9dn66mYMHqmfrp1h9V6Idozp8na+NNNVhgEaamr5O65EQfO/+1c+HyyXqxY+3JlVyzx62sZ4epLRv7vRfve7VmjkOsz7xNevzBXN1lPUe3e+ynqYUdtcZ12PPXzFubrseadPKec1Pz3uS692bavonn9VJbnzHxvndO9HfUiXay7z8AAACAqqn24H1JSal+97cPtSMvetqasnRs01yP/myY6tWr54xBXcR1Unkcu8rhuPnUzHEIBhbjHSCNVJPrqp045zWDZ4zPyX4cuA4AAAAAVEW1B++Nw0eKtSW3wBmqmE4ZzdWoYYozhLqM66TyOHaVw3Hz4TicfDjnNYPj7HOyHweuAwAAAACVVSPBewAAAAAAAAAAELuwBmsBAAAAAAAAAMCJRvAeAAAAAAAAAIAEQ/AeAAAAAAAAAIAEQ/AeAAAAAAAAAIAEQ/AeAAAAAAAAAIAEQ/AeAAAAAAAAAIAEQ/AeAAAAAAAAAIAEQ/AeAAAAAAAAAIAEQ/AeAAAAAAAAAIAEQ/AeAAAAAAAAAIAEQ/AeAAAAAAAAAIAEQ/AeAAAAAAAAAIAEU++zeZOPO/0AAAAAAAAAACAB1Ht6YX2C9wAAAAAAAAAAJBDS5gAAAAAAAAAAkGAI3gMAAAAAAAAAkGAI3gMAAAAAAAAAkGAI3gMAAAAAAAAAkGAI3gMAAAAAAAAAkGAI3gMAAAAAAAAAkGAI3gMAAAAAAAAAkGAI3gMAAAAAAAAAkGAI3gMAAAAAAAAAkGAI3gMAAAAAAAAAkGDqPb2w/nGnHwAAAAAAoFodOnBcO7aUan/+cZWWOiMBAKiCpCTplPR6at8pSY2b1nPG1n4nbc37Y8ekAwXHA92hQsowAAAAAACoTiZwvyanRAW7CdwDAOLHfKeY7xbzHWO+a+qKk6rmvQnS7951XPutf4uOeO9247R6atWmnlq0qqfUhnWnlAYAAAAAgBNt/Upf4H5In9t049Dfq2njVs4UAAAq78Ch3Xrjo//Woq+mqXmreurWO9mZUrudFMF7E7TfsbnU/rciWrVJUvvOBPEBAAAAAIiHzxcds2tHTr5nG4F7AEBcmQD+2D91sFPonDukvjO2dqvzaXO2bijV2i9KKhy4N3bvKtWqz0rsfwEAAAAAQNX4U+UQuAcAxJv/u6UupWWrs8F7k9PeBN5zt1ftbJnlbFpbatfcBwAAAAAAAACgJtTZ4P03X5TEtRHanZtLq1wQAAAAAAAAAABALOpk8N6kyoln4N7PLLcy6XcAAAAAAAAAAKiIOhe8N8H1aDXkO7fpq16dh6pJw+bOmEinNu9sz2P+9fLt2lI7lQ4AAAAAAAAAANWlzgXvo+Wmv/2yP+jZX+TosdsX2kH8aIb1vd2eZ/K9m3TeWVc6Y4OKjkQvHAAAAAAA1F2lR1JUfCilTjWEBwAAEledCt6bWvfR0tr8x8B7dfBIgV5599favOsLZ2ykhV+8oo+szhjW96f2v+HyCN4DAAAAQO2y+zSteuUyzXt8pP7ldO88d4n+PT9Dxc4sZWuk7f+4TO/87wBt3++MqorSZLsgoPhQsjMCsVr9yr36xc//oCW7nRFl+Xa+/vvGn+qSET/Vdb9bqL3O6MpZr7d/bq37f6q6HAAAYlOngve7d5Wdj94E7f8v+3k7iB/N9wWb9efZd9j9jaOk1zFpc/burlzu+2bNr1LPjJuc7nJlOOOrV2d1OtW/Tl/XPUpaoKC+Oj0w/1Xq1MgZXaaqfuYmnd7UGR2jjJY1dQwBAAAA1FpFbfXVS5nauDVFpfWL1Sz9sJqllai4sJF25zXSCametb+DVvyvKQzoqXxnFGJ0ME8bdhboQIkzXIacOa9q2X6pRUYLtUxxRlZakXbvtNa921/cs0p/GfETXXLfewTzAQDVot7TC+vXmRZYv8wusdPaeHnrseNatfkjPfbKMGdM2cqbP+O0JHU8I/ayj2btpunaLjd5/7FQekRHC1/UH1eM13l9v9ew5k6hwaGX9czyO339lmH9vldmk4a+geKF+ij7x1rhG1K/c77XJS2czx1+XVOW3aZ9GdP0s25XqWV95zNhjh15R4u//LE+PeyMMBrdpSt6/n/qntZG9es547wcW6iFSy7Vp6a/Mp/R5RrW90/KbNY54jNHD/1Ty9dcr08OOCP0kn429A61tPsLtGXjPdrZ7D71adFXTZLX6quPzta79jQAAAAA8PDt2frXq52l9PW6cOxaNXP/lDOR+7CfdqWHUlRiTUhp7I4ON9LWqZfoi+171feeJerorut1LEXFRda/qcVKqe8bFcI/vb41PdU3SgWdtexPZytXm3XBo18r3RntydTSP+LbyOSGxUoq76dokbW+Y+XM6ywz2jzexyDINz3G7XH59CNfI3LTH3L/EI1N0f5DKm7YWFv+3090z/910/0v/06X+2tzlRTr4EHr+DZprNTAywx5eue+ezVxbV899sZ4XXCKM9ooOqSDR6x/reU18Z+Tcplg/e/19lm3663nLlWLiGEAQFm2b9+ugoIC9e7d2xkTauXKlWrRooXat2/vjKm4Wyf4ahOfN9TrC7n2qcBXbGIzteGjBe6jNT5bnrIatj1UWIEyjzb/0i3dowTujaSGalDft65PD++y/7WldtZ5Tq90l1o3aq76yQ19XcMeaueq2d46NbitR4/maJ/pSWmjtCiBe6N+w8s1uNczauYMS3fo2sw/qWfTcoLwISrzmc4anDlN51nnxeszDRpfpcF93nPtu1tzdTp9ms5vZQL3zigAAAAAiEmKSkwQ3c31q7h061n694SRmmfXiB+hf00YYtfWj6q0kb57+xLN+x8zv9X9zwh9/PZpOuSvyh8+3Vr2v/7nbOUHAvdGZy2x0/hY4+1htxba+Jy1HU+O8H3e6uZNuEyffxblNef80/TVZLPdzrxPWsud8CNrH5zJ833pghb8aZiyJviWOW/CJVq1Nvi7sbxjEDrdt45ln0X/3RkXO9/TY9f8RCNu/LlGXWkC98542yFtmP6wRo38qUZZ00dY/z4wfb3Mad77rz9r4lozzxd67Eanhvzuhfofa1mXXGkty17eT/WLv6yy5/cF+61pI17RantYWv1nM/xbveM7WS5m3t/rbdO79hVdZ2rg/3mVPQUA4O3tt99W//79NX36dGdM0LRp03TeeefZ8yCozgTvD5cRTP+Pgb+y/129+WP7X3eDtSaw7w/Sm3/900yKHdPfq/NQezhctNz6Xs5rc76aOP3G0SNrteeg6TbraMkRHXO/o1mwSQedXtVv69Q2tzQ6X81D/mZso+ZtnF7dpWaumgKFh//g6yne7KzH1+3Mf12rc99RbpGpXuBT31puH6dfZ4zV6YHlHNHBfS9r8Zp79MnutTrqjDX27bOWszvbt52V+UybP6lPM39hg/nMP63tel3r9m2Wrw6GJWWY+pwVpdAl5kICAAAAALC03qv2pgJefmctee4yLXnjLO3Y3ii04dmitlr5ajfttn4vte23Wd1771NKUTOtevUcfXfImSfMoeyB+nR1I+s3znfq3n+b2ls/c/atztSyRb4qUsVf9bWnl6pETU2qHtOdUmz9Ei9Rg+bFzg9y/7QomfdTi9Sq+zZr+ZvV9YzDSjqWoh3vnaH8iFw/Kfru3Uxt3p2spMbOuqyuqfXLLCXNmcVxqLCBGp5iTTe16o810sZZPaz9tiaUdwxKW2jDDDPd2gXXOhpUa+XGHZrz5CtacrixLrr1bj376+t1UQdnkrFqlh57fYtanX+Lfv/bu3VHLynn9ef0r/WmPlwvDbBr27fXRT++VDcPaq/U1NbqNfJ2a97xeva3/6lrOxRrw79mxJY/P0SaOg3qq56m95RuGmWW3yNYqQ4AEGncuHG68sorNWbMGL300kvOWNn9v/jFL3TVVVfZ8yCozgTvo3ns9oV2Y7X+fPem/9lf5Nj/msD95Hs32cPGL6982e43QXvTsK3JjW8+f/3Qx+zpldXSVSv+2L5H9cfss/W3T03XTX9c3FTPLUoJpsfJXatgOUQbNfO/JdKmS0gBgNRQTRr7U/p0UcPAH0u7tM+f0j/3Tr1qr8fXvfrVbZq35sf6+7ZPgoH15OaB5fZr4gqWH/tEy3Pu1Ce5L2rxypH6xvXHasPjOZq39lG7JkKlPpPhKswofFmv5lxvbddtmp3TTTmFznhLy7SxTl+Y0gLt2/eOvtp6j97+nJQ5AAAAAMqRtl2Zt69WeztYnaL8dd30+dRLNP+5/tq801dLqnhtB202tYn6fqXzrvhaZ129VP3MW/3H2ip/pz1LmBba/m8TFd+nPtd+prMu+0Ln3rjefrP5wLpWOqQU7V7dyp6z7Y8/1LC7F+hCu1ur9FO2qe9ta3WqPXWbzvGPt4fd9qqrNe2HN35hLf9r9frJF9avP8uxZiqMaDS3sQ7lmX8Pq8e1C511LdCwhxapY9iCMy752Df9vk90VmNrhLWPu619LPcY7GyrreZ3XuONGnyff38WqG/fYAWxuDu8U1s3W/+efrVG3/RDZf7oSl0ZqIEmbfnqM+tXcDNdNGqoevfoqxGXm3e49ylnTZ6a9BmqC9qZuXrpyl/crjuu6aUmp/TSqFuHWfN2V9tmLdTKd4p01Ds7UBkaq+c1/+EL3rcbpFvM8i+qfJoHADgZJCcn27Xu/+M//kO/+tWv9MILL+iZZ56x+804My2pIrnYTgJ1/miYoL1hAvWmyysw3/oK/GsaqPXPY8aZgL3pTADf1MQ3/f55K+vgMVdN92aP61fnf61b+kzTZaff5dFA6zvaF4isN1eaU0OiZ1pnhVdmaNbocl9PxllK89dGP75Le8Jf52t6uXpmPKxLekzTFaZr2UUNnEluyVFrtFv773rRIDkpmMmvMp9p3SBYmHH02CZfih9H4TFXY8L1O6uT0xtUoC3fnqopOT/Wu9++qG8DefEBAAAAILqkdht17n/N1+V3LlffgblqZv3AKj2Uoa/+0c3+TVJ6xPdKcdK6s/XxC5dY3TCtXmeP0pFDXqlzklVsV1hK08Z/mPmt7o2usn+i7G+gYusXXLHzU7DxKZUNbqfowBc99flfrWWbFDaPn6+NzpRIh9S4nYlAN9KqaWbeEVr41/7auC5Kih0jqVBN7eB2sooOJZd/DIqSrbVY0g+pYU1FE/bvlZ1cNrW+5+/Yg/mmxGKfXn7Ilwbnuv/9t29CstfcFpOC53pfip1b7ntGf/HV5QMA1BATwH/99dd16aWX6oEHHtBvf/tbXXHFFfY4Mw2h6nzw3tSg//PsO+xA/NC+P9Wna2frusfq2f+awP3Y57vomTeuCsx7+4QW9nh/qp1fWtM/+uIVu9+tfgVeC/xq/9pgOhhLgwZnqV36TerT8U+69txi/eq8aeoX+HtqoXYcCQawG6beZP+b0cDJkXN8rfb4/+5r0Ff9zL9N2wZrsh/dpG+dXjX6ta7s/73Gn/svXdHjcfXLuEk9TdfcOx3Np4WuQor656tfH99nzj/zU53pqvZ/tHiN01eZz9ykNNexa9D8GY0fWhzoAo31GsePyBXKBwAAAIAqS2mTq46XLteFv1gtu63TQ+khtdhLDzXSvnxfd8DJj98wLUpKG1uyDjjz7ytIsdu/tYPb9rSqKV3bWx//q6t25ElpZ21T9wu2+7bZU7Ha/niRBgzJVas0uylZHdiZoVVvXKh1Ts77SMkqdfax+FgwPFDxY1CNGqX5fu8WHQtJzeqX2tC8OtBYN//2r5rzRrD77WXB1t3ctnw8X0sOS5f/11+1YP4/9Kf/cCaEKK5ETXwAQKzq16+vt956S7fddpvuuOMOO3BvxiFSnQneN20ePRG6CdQb7lz35TG19Fdt/siuee+lUaCqe/n2bbhOH+Wu1dEoafIbNLlJQ10Nx647GlxnkwaZ1n/vUmt/pYHiTdrhz1mf0sVutLaTqyb7saK12mL3ddawXo+re+PQYPix8Bz7bhv+oS2Bv8caqlm6r7b+4LZ9XTUcNmvHztedfkuFP9NGybFedaVHQmrlAwAAAEDcHEmR75dVoRqYN579v1N6f6YrHp2rH7u6Xqc708Ik23GGw+rzi9D5fzx6s/V76JhSnAj+3l1hSedjVLy/ia8woO8XOteksblom8pcUsNCZQxdrh/eN18//s37Ou8sMzLFWn+U2veljXTQzvVeoiZ2Ln57bPRjkFoiEyrXrhaBoH61O6WTepn6Z9++qYlPv6KX//L/NGOZb5LRsWdfpeqQ3po+RQuWrdO6Ze9pxj/e04aItEI+DRr5jkX+pi+Us2yhFn1lhjZrw3rzTkFrdepq3rJYopc91uWlgXlZ4duFmvqXVzTnK1fuWABAmVJTUzVlyhRNnjyZwH0Z6kzw3mgcJaAeLQBfFWUVFkTarBVrztYfP+6mN1c9qhW5/9SWA5tDgvn1mwzz1aK37DuwKVijIPUs9XQ1VnvsyBf65LD90qDF12htR3+tfMvBw1OdvtFq3yhY1+NowXhN+bipnjM59q0/LLxqLEh/0JtrX9e+KIUMKl6rdZuu0+w9zrCtop/5g/a5/sg7dugdu7Far27FLlchAQAAAABU1v7OWvY/lzmpYHxd1iu+dDlJfXKVbv0ybtD5O1/O+ZWZev9Pwfk+fuEH+s4zELxXrXr60tR8NfVHrvmt7kOTNrTYmu5rBTV/wRAtDEw/S/lmZOOj1ieNDvrUrO/tDhG/05IaOj+e1nXTqnfP1qo3zpavEn2aCnaG1+1P0Xf/GBFcz+QL9NUGM75Eaa0O23P4fb/oXH31bl99/pfztdbEm+t/p1btYjgG7b5TRztH/mnKdk3/4ot4vGcQTXtd/p+X6ozUYuV8/J5ee3eZVh10JllS+1+v/++C1tK3n2rSH57RA3+Yodfez9Jqz3YKrF/R51+qC6wDv2zmC3rgd6/oi+T2amKdqzlfbrKn97z8KvW01rV6iVnXKl/Knqh6afA1rZVatEXv/Os9LfnW1YgbAABxUO/phfWjhV1rna0bSpW73bta+VuPHbdr0j/2ir+R1+hMip1XHtpb5vy9fpActbAgZp0W674uA51c9mv11Uf+xldf0s+G3qGWprckW59sl87r5Jtv3/eXasr+h/WrrsPsmu0H94zXjibPqLv9t1KBtmw4VW9a84csw7JnV4r+ttYZOO09/eoM3+dD1yud3mu9rj3Vl1bn4N5HtXCXLy3OkUOvR80vX9HPDO53QOef4vxxd+Sfejv7+mCqH0/ufXHvIwAAAADEYFdXLfvHmcotdOfSLVF679U6Z8RmNXV+nhz66gf6dF5b7XPlPU1qnKtz71yutqc00tapl+iL7XvV954l6mhecj7SQhtfPV+rdoYut+kFn2jYRXvtmu3fzRqkz1c38tWgN+pv1gX/39dKV7Ly3xumf2c709LXatjd6xXSLFqRtfxXrOXvcpafWqhWzRsoPy9FpT/4RD8e4Ssc8Gmo7/5xkT7dELaP/XJ03ojv1CBJyp8/Uks+cyb5pe5Tr598oq4dfa9Ul30MrF3aepay/9FNu12VsjJGvK8BP4gtr/+nH/kWPP2h0AKFcpUU6+DBYqU0aaxUr5TIRYd00GxCw8Zq4kvdH134ssxwUYqa+F9QKG9d4Q5b6y61Pt/Eq20EAEBNunWC72F+3tC6UZu/TgXvi44c15fZ3onpTDDeBOVN/voZH/3OzmvvpVfnobr9sj/YKXbMvCZffrjUhvV0zsBYvsEdZ32t8a0769jxI9YfE7uc/PcNlda4sxr44//HFmrhkkv1qT1wk6794TSd7vzBYdLc1LffkSjQlo2n6s1trmC2tUzV89dycAfif60bLnhGnZzr9NjhhVq339QZaK7mzc5XO+tY+BxR7vYfa/aGhdqnq3Tl+TPU3cl34w7Eq3SXdnxv5glX8c806/apxrR3pTAq3qw9/lRAfvWa62hBB71qN45E8B4AAABAfJQeSpGdEb5hsZK83kUvTVbxEd+EqPOEK0pRsfmhl1SqlIYev0mPWdNNsDu1WCnhsQTns2Wtq/SI2WbXss1nkjyW5Yi2j/7gfcYli9Sv76Ho2xvDMfCtw/p8Y4/Pl6HSwXsAAGJQ14L3sfwZUmuYoHqrNt67ZBqjNelzhva9Xa2jNNhqmOC9Cdyb4P7/Zf/RGRuqfedK1LhPaqj6yc3VrMlZaml3rsC95eiBd5zAvfG69rhqMfgC98Yu7dtm/s1RoT/PfCBwbyn+TqadfZ8/aKtd7cCnfqNhvsZqMy53Be6Nhspo87C62/3/VO6R4GeatHhcV/SY5ut6vacxplHZId/rZ32eUTDlY8U/s2+9O0++JaWzc0xcXeM2ds0QAAAAAIinpMbFSrG6qEH5pBJ7epnzhDNBefMZr0C4Ud+Z7hVHcD5b1rqSGoYt26sQwKXcfaxfVPb2xnAMfOuoWOAeAABUTKx/itQaJrDu1caBqUV/+4QWuu6xenY6nGhmfPSYPc/Y57to864vnLFBJlVOtAKCaPrUb6hj0d5vOH5E+wr+oLlf/sEZ4fPtYY83AwLB+RdD8sYHHP1CK5xe45O1j+pbV2A9oHitcg+52gEo3iW7grtldf4XUfLhO5Kaq2X6r3X52cE3Eir+mT/oza+ibJvjWEmBCqmIAQAAAAAAAOAkVafS5vjt3lWqTWu9c99XhSkUOLNvFXLdNxqm7qe0cXLcGwXak/uOcp2h6pLR8ia1dFYakoe+6eXq2bi5dGyNVu/5Qmr5kn7W6w61tMsmrG3bt9naaadmf/02apbaXPX9u170jub9+8daXZnPOIM2/zb4RU3PAwAAAACoiuJdGdq3X0pqtVvp6Sem1jxpcwAA1Ymc97WECd6bIH48ndU3WU2bVzJwXwuc1/d7DWvuBNIL/6BnPhvv63d06rVeNzgN0/pz9KsSnwmmBwIAAAAAnEwI3gMAqhM572uJLmclKeO0+OyeqXF/Ru+6Hbg30uq7asA3ulxXnn6Xkyff6jq+pKHutgJKj+ig9U9lPgMAAAAAODn5c+gfOLTb1wMAQJz4v1tibrOmFqizNe/99u4+rs1rS3TMV7hfYSZFjikIqHSqnFqkU8/1uqF19MZ8g45oz3c/1t++WVipzwAAAAAATk7rV5aowPqdPqTPbbpx6O/VtHErZwoAAJVnAvdvfPTfWvTVNDVvVU/deic7U2q3Oh+8N0zgPnd7qfKsLtYgfmrDenbjtxVtnLZ2u1yXnDtN/Zq6atOHO16gPXmP6u01Lzp56SvzGQAAAADAyejQgeNak1Oi0vg3UwcAgF3rvkdmsho3rRsVsU+K4L2fCdwX7C7VgQLrD4bC43bnZtLimBr2LVrVq/MpcsrU9HKd38Y0cttQTRr3UFrpJuUeKdCRg6/r661RGtitzGcAAAAAACcdE8DfsaVU+/OPE8QHAMSFCdqfkl5P7Tsl1ZnAvXFSBe8BAAAAAAAAAKgNTqacMAAAAAAAAAAA1AoE7wEAAAAAAAAASDAE7wEAAAAAAAAASDAE7wEAAAAAAAAASDAE7wEAAAAAAAAASDAE7wEAAAAAAAAASDAE7wEAAAAAAAAASDAE7wEAAAAAAAAASDAE7wEAAAAAAAAASDAE7wEAAAAAAAAASDD1ioqKjjv9AAAAAAAAAAAgAVDzHgAAAAAAAACABEPwHgAAAAAAAACABEPwHgAAAAAAAACABEPwHgAAAAAAAACABEPwHgAAAAAAAACABEPwHgAAAAAAAACABEPwHgAAAAAAAACABEPwHgAAAAAAAACABEPwHgAAAAAAAACABEPwHgAAAAAAAACABEPwHgAAAAAAAACABEPwHgAAAAAAAACABEPwHgAAAAAAAACABEPwHgAAAAAAAACABEPwHgAAAAAAAACABEPwHgAAAAAAAACABEPwHgAAAAAAAACABEPwHgAAAAAAAACABEPwHgAAAAAAAACABEPwHgAAAAAAAACABEPwHgAAAAAAAACABEPwHgAAAAAAAACABEPwHgAAAAAAAACABEPwHgAAAAAAAACABEPwHgAAAAAAAACABEPwHgAAAAAAAACABEPwHgAAAAAAAACABEPwHgAAAAAAAACABEPwHgAAAAAAAACABEPwHgAAAAAAAACABEPwHgAAAAAAAACABEPwHgAAAAAAAACABEPwHgAAAAAAAACABEPwHgAAAAAAAACABEPwHgAAAAAAAACABEPwHgAAAAAAAACABEPwHgAAAAAAAACABEPwHgAAAAAAAACABEPwHgAAAAAAAACABEPwHgAAAAAAAACABEPwHgAAAAAAAACABEPwHgAAAAAAAACABEPwHgAAAAAAAACABEPwHgAAAAAAAACABEPwHgAAAAAAAACABEPwHgAAAAAAAACABEPwHgAAAAAAAACABEPwHgAAAAAAAACABEPwHgAAAAAAAACABEPwHgAAAAAAAACABEPwHgAAAAAAAACABEPwHgAAAAAAAACABEPwHgAAAAAAAACABEPwHgAAAAAAAACABEPwHgAAAAAAAACABEPwHgAAAAAAAACABFOvqKjouNMPAAAAADVuT36Bvl69Xps2b9f3e/bq6NEiZ0p0DRqk6tSWLdSl82k6u2c3tUxv7kwBAAAA6gaC9wAAAABOmPc+/LeWffaVM1R5A37QR5de9ENnCAAAAKj9CN4DAAAAqHGFhYf01uwsbd+Z64yputPaZei6K4crLa2xMwYAAACovch5DwAAAKDGxTtwb5jlmeUCAAAAdQHBewAAAAA1yqTKiXfg3s8s1ywfAAAAqO1OirQ5W14bp9un5TlDoS4eP1W/ubiJMxTNSr04/AnNcIaqauDYSXpqVGtnSMqf84iumbzOGSpLitIzWqhls/bK7JepAUMGqHfn5kpNdibHief2pA7XC7NHq1fM61qn6dc/oqn7nEFHr58/pxeua+8bWDFVwx4OrxnVXQ9Me0IjMpxBN8/5I6U2a61OGcFj1K9rWY2XVee59V52+PmPqqLHx1Oxsp+6RQ9/5AyGaKLRz0/VrT2cwRh4X6vWtZFlXRvO0IkV3/2NqihP6z9aogVLliln/Q6tzy92Jvju0c6de2vAuf01YHBvdUpPcabFpmjnOi1etFCfLF2pDdvytOWwMyG1ibq1OlUdz+mnfucP0MDMzkpPdabFqHBjjhYtWqzsReu1da9r2Za09NZq26GbLhk0uOLbnZulh2+bqmxn0O/6p97UXf2cgTJU7Loq655tr19NeU5XdnYGy+SxnB6jNfP54Up3Bqv72R8XJQXa8tkyffB/Hyo75Fr0ndPu3Xpr8AWDlPkDc06dCeHi+iy27rOJ1n3W2xmMQdHiP2n4k0udoXDRt6Nqz6M8zb93nJ5d4wz6XfGIFo7z2vgqPs9rg/zNWrF4mRYvXaJV2/aGXEtq1FzdWpymXkP6a3CF//aIcqw9hD6HMqNfs34x/l3gxfvc1eTzpRyHl+uPV07UbGcwRLMr9NKMW9XNGSxfrM+y4HfY4AuGaeDQ7mpT3vdMJf9WMY3TTv7rG85Q9Rn78xtpxBYAAAC12klQ836HchZ4B+6NDxYsU6HTn/iKlZ+bp/XrcjTjjam6f+wYDb/mQb343mYVOXPEQ/rACzTQ6Q8oWqIVMfzwDlizTPPDAvfmh+8lA53AfTUq2hd2jK5/RDO+POhMPckcztEyz0C2cVDzF8VSaFSLVPf+7tusD55/UCNHjtOdE9/UjGWbQwNczj26YtmHenHyBN1+0y0a+fMJmvHRjnLv0cJ11mfG3aLhdzyiJ1/+UB+sCw2uq+ig1u+01v/OLD376IO6ZuQtuvvRN5W9rfxrO3/ZdD18vbUtYyfo2TeWavHOsGVbCvOt++bLpcHtHjddK6qnQmQ12qEX/7q0Fj3Tqyb/0+m6/5oxuv3RqZoecS36zqm5Fv848QnrnN4Q87VYNdZ9ll2R+6xYKz9Z7vTjhMjN0fT7R2v4TQ/q/smzNPtL61kQdi3pcIH1/Fmp2a6/PaYvi/63VWWFP4fufDJLWxLmhq7Z50vRZ9negXtj30Jlr3T64yr4HfbHiY/oJut75v4pOcovcSbH0der1zt9UbTto2tvu1njrj3PGeHSoruG33ijfv3rO/Xr0SM1vIxSjHLXAwAAACS4uh+8X/Oh3tzp9HtZsVTL8p3+2ujwZs2Y+KDunLQyfgGZjEwNjqidXLGAzJYVy7XL6Q/ofJEGdnD6a1DRvnV6cfwYPTwn/oGGRFf47w+j//i37PpgmdZXw4/yE6U697do5Zu6/6cP6sl3NlcoeFO4LUd/W77DGfJyUOunPaibxk3RjHVhAbMyFWvVsrlatq2MapElO/TB78bomkfnKXtfRZZtbfe6ebr/tlv06FvxLRysbkWfvqi/La77hXW75jyim34zTyvCCmHKYq7FF7O+qfbzues96z5z+st1OEeLF1fs2kT87Hpvom6/bYKmrjxYsevC+ttj6qPjNPLhedUYXC/W+sVTdfuYqVqVIAH8mnu+HNSyrGhvoxjW32RLa6LwvVgrZk3QTeOztCvOfyts2rzd6Qt3ivpccp3G336h+nRI16mtTnHGB1048hIN6mqN37NXatFZg0aMVLSXvKKvBwAAAKgd6nzwfv2ihZFB5BArtWBx7Q/qbpn3nP62Il4BkNYaOKy70x8Ue0DG+22HXpdkqo3TX/OKlT35EU398mQKEhVo2YIcpz+KfVla8KXTX+tV3/4WrZiqO++fVaFAaVCKrrykv7xD7Ae1atJ9uvO1ihUIBKRepEsGRElvU5Kn+eMf1JP/LnBGVEaxFv/1N7rvr+tqUQC/WLP/MqtOFUpFWDNdD02uzDmxrsWRg5XmDFWbfcu1arPTX46inGzNr02lQ3WIKQD66cTl2uIMV0bhium6c/x0ra/O4PruLN332ywlRj2LGnq+5C/T+586/VHsmrdEq2roOVe0cqoemhLHSiKW703g3dN+HWmYrMPbcrR6jzMqRKa6nJos5a7WH6a9pVfW75fSWqvn2c7kMNHXAwAAANQOdTt4X7JO2R+E1ZDqkamLmzn9juyFOeX8KGyh3qOG61bPLtMzt26b3hd5zOvrBnQuL8e+0Vt3Pf6QJvq7h0frLuuzV/ZuEjUIOCMrJ24/rDxT58QakLF+cC2IeNuhulLmtNb197qP0UW62Dq+3seoQNMnZ4UV5pyIc1tD8lfo4xVOvyP1vEwNdvp9ijV7abW8e1/zqmt/c7P0299mRQlwpSi9c6auD1wD1vXXvXlocLTZcF1yjtMfJn/eBN03L0pwPbWJeg1wXWuXZ6pfWB76NldcEKUdioNaNfkRPbsyWmFVijqdMyi47DLvm2KtemuC/vZpLarNvnueps6LR6FsIj4firVirvf1mNqsu64MrM9ci61D20WwrsUR0Qp74ipPCz4t622ToPWfL69FBUN1hymQLKsAKC29t+taGq7rB7SP2sZG0cZ5enRKJf7+6HdD8G+cx8foV6MGaXCUtjbMm0//F/Oj2/V3QRndLee1cOavoLg9X6Ir/GypFjv9Pim6+LywthiKPtSiKha+d7t8TPCYmL+hrO+ZXs28z8GWOf/U4jiWoBw9Gv2KWTfvDU16dYmOOMOh0tW0oXTkiO87aW/ufmu+ZNVvbA9GKGs9AAAAQG1Qt4P3HnnXu513o24Ib6B2TZYWbXP6PbXX4LGjNdqzu8IzgNN5yFUe8/q6K8+JJYDTXr0GZKqfvxtq/Xi2PvuriVOV9ddbNdDrR3TON1WqQRfCM3VOnuYvLT8gk79imVY5/QHVljKnuTr1cx+jMfrNFOsYTbtHV7ZyZnHbvCwsj/eJOLc1I/LHvzRi+GhdGPZuedF7H1ayRnliqZ79LdDiSdOV7fHbPzXjIj017VXNnPKQ7gpcA9b1N2mK5s6dpBfGWtd8sxT1uu4idfMKsOcv1eQpXsGzFHW79B7NnD1VLzw+Jnh9mWDU668q6+VH9MDl3ZWe2l43jIh8Q8a2Zpae9SwU8C379bmv6pVn7gkuO3DfPKRbu3oFbg5qxrNvalUtuk6y/zo1DoGmBHw+lKzUsg8iC2U6XfGQZr7+hH4VWJ+5FidZ19Grev35MbprQHv1i3YtxkGbZqH7tmrpyvJrSlv7sug99740sZbj9KL6lKzTmxOjFACZ59rLr2ru64+4rqXRuuvx56xraZImjursWci3671JFX/7r1334N84Ay7SlWPv0ePWM+71Md091nFQry6MNXrv+rugjK5Xu8oXZMXn+RJNgZZF7Gt/XTJ2UGRh9IKqFX617NI7eEzM31DW98wLr0/RxCu8GniN75uqDRpEKQ0qV74OuKP6TRuoodPrpfLrAQAAABJDnQ7er1oYXsu6tUYM6qxu510Q9sNwhxZkx1ZLMCF0uELXDXX63fYVx7EGo3fqnPWLcspJQ5Sn7IWReVhrPGVOxiD96uErPNa5Tlu2Or11Wp4WzQ//8T9IA37QWpkDw85r0XItzqlg0CXhVNP+rpyryZ96zNtquJ6bPEYDM5zhcKmt1WvUGD0141W9cLX3Gyfr3/qbPvC4YU0Q9oX7Byk9SpA1tV1vjbj3Cc2c/Zyu9CwQK9AH0+Z5Bub8y24TLZaRkanRk57TA709glr7svTm4qqk4KlGPbpHFmgW5Wjya/FN85AQducp8hHWWddfk6k0r2smOUVtelyk6x9/ThOvq74Gw4dcPCz0ebtmuXLKC25+uVyz3Seo2TCNGOD0o9oUfvCmpu52Btz8z7VoQe3k1uo39mn9fax3cH3GW4vj0phrm6vH6VcRlQesW3rN5nL+/qgmNf18yV2mBWFvkWnoQPWznv0Dw45L0eJsrYx3oWpyE+s8j9P1Ht8T2Rvi97fyqS0r+ObD2RfrP++8WTde8L0KrX1umHGGLux0moZ3TJdK9+u7Zc58YSq8HgAAACDB1N3g/eHlWhBSo8/SrL96dbb+Pae/rgz7UbJq/rL41VqvAZ4VidqFpeuoIs/UORE118Pkr1T2Gqc/oLpS5pSj65mR22/ZurP2t3FQrm3LNT/8PJx3rno38jqvxZr9cfxSLp0Q1bK/xVoxP7wA0Giu0b8ZrV6x3mxeAVXr+TR/nkcamlZX6L/H9o6SviZMtBrUHumDbLEuO7m1Roy72rNW+WLrOVltlU2rouvV+sWNkc+YXfOman6MuddRRf0yNSTk4lqpT3LKTrW0/tMlIfdhm4sHqFdMFz8qz6tWtxH7c63NFb/QXeZvqXArFmpRWX8fxKy1ep3X2ul32ZgnzxTo1a2Gny+7FmUp2+n3u7h/L+vZ7VGpomipFn9WDYXvyWcq84dOv9u2vLh9B3TpfJrTF6PGp+jUU9N1avPt+mDFZu2t30YX33KVBrWVvv86W1nObOEqvB4AAAAgwdTZ4H1RTmQjeCYw0M30WD9KBgwOq1m2c6FyakuQp2SH1nv89k7tcZqs3zDxkzFAl4SlHDE117O/jF77tjBneUTqkupLmVOORo1jC4LWQbuyP4xIXTR4SC9f4U5Gbw0ID7x8lF2rU+dUy/6WfKNliz2CIv1u0FUetUIrZM1Kz0Y6B/90ZJXTmnjeg5YKLdu6Z6+KuPcta3K0KiwVWUIoLFbbq0fr+oiUKzv04qREaegyTjzP4WbNmHli3zLYs791xPfqBwu/iF4TO6JNmiYaMai7GjhDqCb7VukTr8K9ijzXktvrkmvC8q/b1mnFyvi0jdE0zSttywlSo8+XHcpeEF67vbfOz/SlpUrvNyCiYHX2kuoofE+xzoHTW03O7mn/RV6m2X+ZpEf/8oFvYNk/9T+/n6RJ86S92XP1h6f/rldmzdWLv59sjYv+B3ws6wEAAAASWR0N3hdr5ZLwPKApGnKev8ZSinqf39/p98vTmwsi070klJJiFW5bqdlPPq4/RvxOaa5bRvaPc7C6uQYMi/yBvnjRqigBmYPKWZjj9AfVeMocv83rFLk1KerW2aNGX53i9eO/uwae4w+GtFfmkPBjsFQL/h2foEvNq6b93WZdPx4RkYsvGVDlN1y2rPEKtmTqRwOqHrDa8o1XrdrOGti7IstursxBkWmzTG3q9YlYyJm7V4WNeuvWMZkRz8CildM1fXFtvbY9tPIojLJsmTdBdz+ZpfUnqHDloPWlEPG9+unn0VN6hLdJ02yYBvYo0K7aUoheW23+xrNwr995vSv0XEvr19/zzbbF32xy+qpmz/ce6VmapZyYAvmafL6YBv/D74Ee/ZWZ7vR3yNQl7Zx+v48+1LK43/cHle/1FkVaWtzOQct062/MH/Rxhipjv75ds1nfOUNezPLNegAAAIDarG4G7w/naHF4g36p/TXAVass9QcDdaXT77frvWVaX+IMnHBZunv4DRrm7kbcopE/f0J//Hd4zXfTKOb9uqGqtYE9pP0gvIE0y6eLleP1Q/HwKq341OkPOEEpc6wfnitmztN6ZyjAug76esUk65LNyyJf5e88QP1c+dk7DRrmewvF5YMFy+KSr7jGVdP+Fm3bHnn9qLV6d61qo6PF+m6rR+qmdt3VscqNdR5U/k6vFApnqlN4wKcc6R26eARpirV+W4LmvbekDR3tkSu7WLP/MiuBnu1VZT1Tr48MItrnZvFU3Xn9Lbp/ylJtOQFB/NQ+5+pip99nuZZFaV9iffbCkJRUqYMz1S25SEfrzHlKTIW78zxraZ9R0ULtVu3VzSOKW7RxR9Vropu3Mt7zCIh3Pz3GtwvX6dnbwv5+iuimRjasX46aeL5sWZQVsV29BvWWP3ZvF0ZfEn6ucvT+sjg/l/OX6f2Iv+ekNp1PjWt6xksv+qFOaxet8ZiqMcs1ywcAAABquzoZvC/894ea7fQH/HCgnf86oFEv9TvP6ffbt9AjX3siS1Gn7pm66/Hn9MLPvRqQi4P0frowIn1GjlZ8FRmQKfosO/K413TKnKKDyt+4VNPHjdH9Hj/+O426TP3c10EdtH5BZKFFtyFhbz907q3B4YHiFUu1rBbmF6mu/S3M/97pc2seh1QCe71rNKY3UVOnt/IO6oBXiUSP9hVPqdWmvbwy56gk/gka4sbk6x9zhTo5gwG752nqnLrT1kXaxb/Qb86L0qioirVi1p90+/W36O6nsrS+Ju/pZn11Ycj3arHmf/6N0+8WHpxN0ZWDvNKwIN6KCr1qiXdXpwqXsbdWm65Or1tVg9glO/TBkxM11aPwqdc5neMaOK6wan++rNOiiOW01iXnhZ6cTv36R7zNuHjhivgVvu9bqem/merxhkaKBvbs4vTHz3VXDo97AN8szywXAAAAqAvqYPDeO3XLlReE11RsosxhmU6/30HNX5rgqXPCHDBxtMPFKqy22oreqXMic6wWa+Uny53+oOpPmRNWw27kaF0z9k+aus6jtmer4Xrgxrpe7d6rxmJrjRgUHpnproGXhtcgX6mPP0vcWtXeanp/u6hNK6c33jq3d9WuTFwrdiRgEHzjjmDqhB5X6xdDIwPb2S9P1eJaWDjlrbkG/+45/aZftAC+UaxVH03VnTfdovunrazG7wifzd+be6mJegXS0/kUvbdcq8LXHZ4yJ/UiDTnH6Uft5r4Xy7NznVYsy7G7D96YqhcfvU/XXHmfnox4u9DorasuPhFv8Vlq6vkSfl8Y7YYpMzxNVo8BGhGnwvc9m1Y652Cp5lv78MfxYzTy+ic0daPH31DNhmvEgLKeOZWTltZYd9xyVRVT6ASZ5ZjlmeUCAAAAdUHdC957vuqbqX59In9wpGX2j0gJs2vekshAQ8IqVv7mHL34lPWDd9x0ra+mnCeeqXP+nR2ay9izcc/uGjHkBP3YDtdqkJ7642j1OqHV9mrASo8f/836q5dHjuxuA4dF1t6bv6x2Ne55su1vAkhPrZZ3fKompCSxiQaOvjUyH3dRjia/dmIbdY2r5Na6+KkpemVsf8/0JUHFWvHaE9X6HWHsOuw7sukDLwg99kVLtCKsTHz90rCUOZda92wVG2pGgmhUgbz0K97U/Y9OsLsnX87SjGU7lO95g6Zo4NgxuvhElW7W0PNl/aLQ+8JoM6h3ZE1/Uxh9cWRh9ILFFS9YXf/OFOcc/EnPvpGl2V8WRKnB31zXP3R1lRtUL4tJcTP25zdq8A/PtWvON2gQ25Vk5jPzm8+Zz5MqBwAAAHVNnQveF362NPJV3/MGK9Mrl3R6bw0Mz19a9KEWfen0n1C9ddfjD2liSHePHrg6U7080r4UbZynuycsrZ6c5V6pc4qWa5k7xdCXyzU7/Fdrjws0sHpSmVZAivpd/ZBmTrtHA6urxnQCCQ+KGW0uHRCR793WI1NDwn8br1mibK+ULgmq5vc3T/ke6RziIndf9dy/cdb51FrQ+F/GcI2+LnI7d82bGtk+Qq3WRJ1G3a+XZk/SxJu9vxv8zHfEnWOmV3/u/4zeGhDSvkL4G207tGopKXPKkz/nEVd+9mhdxfO2V7t2rdXS6Y2PFHUb9ZB+N6oiOflb6/p7w/9+Cu8u8giKx6g6ni8mz/8H4W+RNdEIz4bDpW7nXRBRSJK9MKeaCqNTNHjcE7qrX1XbeymfaVx26AXn2TXnx/9qtB4Z/4tyOzOfmd98jsZpAQAAUBfVseB9nhbNX+n0u3z6J430/OE7Ts9G5Lgv1uwFyxOgdmZ79RqQqX4h3SCNGPOQXpj5nB7oHfkmQdGnM7VgmzMQV16pc6zjtDR4rFct/TDimA0clnni04A0G6ybb7a242So1VmyUgvmReYz3vVWlCDQiCc0I+JCX6f5i3Y4/QmuuvfX85rZqwORq6ygVDXwWnb+3jgE75t45+RfU4FUFn67dmiF0xsiOeZ6tSdUtxt/oesjCm136I/PZ9W9ty2SW6vfbea7YYpeuv+i6O167J6nP86q7vs7skHNXdZ3xRan325geqfTb4Q1Jo/qlZrmFYBdpy0VvizytGuj0+sWz+/aRp01+vHn9NLY3hVs06e5OvUL//spvKta/vy4P1++XKJXIwqGD2rqvR7fZaZ7OCvy79Q1WVoU578BUzP664FJU/T4FRVs0BgAAABA3NSt4H1ujhbHocHZosVhKWESTXJ7jRh3tUft4h1a9mX15Cz3Sp1TtDjHaSh0nVZ4pMwZPLAmfuy5a9jdo9HhQaB9H+rZKeH5+esor7cfKmHVgpyI2uwJqZr3N71DF4+A0Wat98oFXCHN1aarR97gjd9qc5WfO03UprNXcO4bbXEHTGOQv3mTx32Tom4daknNxrRM3TomvK0Ty5rpmr64yiUwiSm5ubpdOkYTZ07SxFGdPQOeq976MKKB53iLaFBz5xLlOEHFLUsXhqw/dXBYY/KoVmnt2nu2Q7NhcwVTruTu0HqP529q16q03ZGiTu066+LLb9Bvnp+krJlP69YBCRo0jvPzxasCRMXt0ILsKhbOpTZRt3a9deWNozVx8hRlTbtfI7pXf417AAAAANHVqeD9rkVZynb6q6RoqRZ/VtUAXTXr0EXhze0aK7Zud/rizCt1zr7lWmVeEc/dpNXhNcZqLGWOu4bdIN167w3q5Uzx2/XeRL14QoJ1rdWpq9PrEmuDn0UHK1IPu1grFsTjx79ls3UfJXxqkRrY385nRrb1YJn/xTdOX+V1OtMrTchy5cSh8LHTmX2dPrfNyl5ZkYK9AuVkezXe3VvdPNoTUKvW6uj0um3dGds6DxRWU6Hj0Ft1V8T2Fmv2X2ZpfYl1f9bVGt+mJv7Yp/XSzR5tjuxbp/XVnRqre3iDmju0bIV57u1QzgL38y9FIyIak49dervTnD63Tdq12+ktU7GKqisFViKznmsR+dotKz5dWaE3fwq/XO7599bgM7s4fTG44hEtzHrT1b2qV15+Wr+592pd3KO1UhP8jbm4PV8OL9eC9+LzN+eq+cuCb7nEYODYSaHnYO5UvfTyI/rVHcPVryspaAAAAIBEUIeC9zuUvSB+6QBmL0nw2tqFh7TH6XUrqrZ8xl6pc/K0cuNBFa7MifgRf8JS5nS+Wr+KyEVr/Zh+5m/KrvGE4qlq4NU+wZebY6rZvmX1F06f22lq45W7/3COFke8/VBZeZq/tLpTa1RRTexvs27q5xF8KXpvnhZXMe9KWu9MjwCadZ3Oqnq7Fal9ztXFTr/b4r/PjT3f+eYP9U+vnDn9+nu3H5KcIq+2BVesXhfDc7RAG1Z6FGh1jUPubPOW0pjhkTWNd8/T1DkJfo3HQafhwz0DtdUuubv6DQ59u8TOx70tRwtC3gDprwGZHm+hxCrVq3HUTVq5LoZnQ/43WuHxNkq/9olR0zvtvBtc+dmjdZXI296ol/qd5/S7rXhT/4y18LBkhxbM9EhRqN46P/MkqqUdp+dLUU625sfrD86dC5VTp9r1AAAAAFB3gvcmKBDxg6WJBl46XLeOKqcb4FE78aMPtSyBa+UVrfo8smFeS3UGHrxS53zwxTpt+Sb8R3xNpczx1u2O+zU6PMBdtFS/ra4GfaNqrjP6eRyHzbP0zxXlBJcKl2u+Rz53nddb3T1qI3r/+G+vi72u97Duyt6RwZb1c6o/tUZV1Mz+tla/QR7PhqIcPfn7LO2qSkGZadTTowZ70acv6vdzKpi+Ilyzvrrwhx4B0d3z9PvJK8sPpheu0/Sn3vRsCHPwsH5R8kSfqZ4/dHpdij6YqwXl1fKOUlDQpl93z/QeFZXa72qNPS/yeGS//BfNqGAqoURQuHmltsRaeFRSfMIKobud2z80sL5mud6c/WHodTV0YPT8/LHo3lsjnN6gYs2e8WG5ece3vDPP4zu0ifr2SIzgfWq73q787NG6yuRtb6LMS8LOja1AU5+cqlXlfkke1PqXJ+qPXgHifoM04IQ3dFOzqv58KdbKJR7tLHXI9Pz+Cu0u0sCIwtQ8vbnA660pAAAAALVVnQneb1mUFRlsSr1At9w7WqPHltPdf41HTdUcvb+selI5VNnu5Xrxz0s9gjIpOqNzNQYevFLnrPxQ81eGBaJrLGVOFMnddcP44RE1Ek1g9PkPavacdhoyPCKNjwl+zHh8gmavi5LKJ3+lpo//k2c+98FDenkEa4q14mOP66HHcI31ut7Dul/9fFhkkHTfQmV7VaxMCDW3v20uv1FXetQoL1o5VQ89maX1ZRXwFRVoy7IsTX10lkcgvL1G3DLII4BWrOzJj+jZOZtVWEbhQFH+Zq2YM11PvuEVpGmiwddHXv/GlnkTdHcZ2120c6leHPu4pnoF5lpdoVsvjpZGIUX9LvTan3X64wNTlB0lgF+0+UM9+99eBQVNNGJgd6e/qppr8NgbI2ugm/NTC9OmFH35pm6/6RZdc/8UzV9WxnVSclArZs6NbHQ4tYs6eb29E2epmQPDAusrNWNeaG3kK6uQMsfWKFODL/YoqFozXQ9NXKp8r2NTUqwt703Ub6d5vW0zTHG77BJY2uCRusXrGtidpfvGTtT8aN9NRXnKnviQ7n7Lq1Z5c42+7aIqNQJbO1Xx+WLeIvsgsjB/4Ejv76/QboxGXxpZGL3rvWWxv2UFAAAAIOHVKyoqOu7012LrNP36RzQ17IdS6hWPKGucV27pcAe1+Dej9einzqBfvzGa+1R5P0ZX6sXhT2iGM+Rn8og+NSq2QHr+nEd0zeTwIJypRdxb7ZwhvwObl2nBlwXeNcibDdcLfx+tXtXY+F/he09o5MSyo7ox7/uKqRr2cJYz4NddD0x7QiO8gv8Vmv+gVkwcp/vfCwtCpHbXb/76hC6OqXCh6ufW1GZc/Ju7rWvLu6Z9WnpnDRhwptrZEaxi7fxymRZvPuhdW7bVFXpp2q3qFl7zft9SPXn9n/SBM+gX+3Z63z9trn5Cr48JjWRV5Fr1kj7oBl15ThXTKtTg/hr58x7RTZOipX9JUafuvTWgR2s1cMYc3fWNctbv0Pp8/zm37sss6750hoLy9MH99+nJ8MIvv0bN1a9PP/Vq4w9OWtfHmpXasC1PW/wN25qc0Z7PuINaNek+3T0vWmFV2HYX5WnVspVaEdjmcM11/VPP6a5+ZZy7Euu43mYdV8984ylKzzhTQwa2V1N7uFCbFy/X4ijrSz3vHs18clCUZ6/XfRntGAet/+sY3flWOYV3PUZr5vPDY0z5FY/nQ8VF3oPm2LZXZj//c8Rinc8V/16pVfsij2/qxfdr7viwmtfxeBZHXItRvlcDBump2fdoYMj3VZ7m3ztOz4akbyljO4w103X7vfO883ybxjd79NXAzs6VtG+HFlnXeeD+CZGii8e/oN9ELaDyPt9tel+kH3k1QB3hTI0YOygub5PEQ5F1Du+0zmG0/OgR301rVmjZuih/e1g6Wef/Jev8exfGeJ1XS9TnVwV4XrvmrcsL1K2cv4W8v49q9vlS+MEEjXwmxxnyK+ead7Ou/5us6z80FV8TjZ44VbeGHNpqfF5V9PkBAAAAoELqRs37Ncs036OG04i+Zzp95WmiXud5VLdbsVTLqpjbuvJ26IM5WZoe1s2OFrg3gYcxV1dr4N7wSp0T6sSmzAlqon5jxun68FfKi9bpmWeqmPKkQppr8H136WLviIYK8zfrg3f85/dDfRAtcG8t59bxN0YG7i2Fny2OCGSblC8Dzon1PETmpzZ2fRBr7T3va9WrW2btX1XV9P6mX/GQnrsiWkCvWFvW5WiGax9nLNvsCtyXpbUu/t1Duj5aLejDBVqx7EPX8bOuj3WuwH2ZrGfa2Cf0QO9oQcWw7X4np4zAfYoGWssqM3BvJHfXrb+5IkoO7mLl567U7MC+LI0auDcFbOPHRQvcV163G3/m+RZF7WeOrfs54jufXoF7+9j+1CtlSnVoosxhXs2qO6qaMsevx63674h2ThxFB7X+y6XB4/JRtMC9dWh636qxUQP30e1a6b5Hy+q+8Wyn5kRJ7TdaE8Z2j3otRHw3lRG4T+1tlhUtcH8iHFT2e+5j793F4/vIr3LPl4PKWRgeuLe0y1SvWIPe3TM1JGK9BzV/KalzAAAAgLqiTgTv1y9a6NEAaKb69YmlNpxP+jmZ6ub0B63UgsVVzD9dI1LU67pHNb4SgYcK80qd43aiU+a4pWXqZ+MiU3kUrZyuP86rwfOaPki/mTJagysbqErtrNETn9Poc7yu5wItW+Dx479Zf/XyyKkeTbe+/Z0+l31ZWvCl058wTsT++gLhj/+wGu6vtN6669l7NKI60pgkt9aIZ57Wb6q03c014v6nY6+Z2eNWvfTUcHWrbBSvVX89PiXWN2MqKK2/bv35SZATJZrU1rr1dw9Vz7GNwrthZp+L+/eKW7C328+f0wvWNVrZ5XX64T36+zOxvnFRd7QZ9YT+fn//ijd669Lph2PsY9fGo2D5pFKZ50v+Mr3v8WZKm0G9Yz8nyWcq06O9kV3zlmgVqXMAAACAOqH2B+9L1in7A4/aUz0y1SuiIa8ydO6twR7zZ89f7lEwkEAaddbox5/TC9aPxngFQsrWXAOGRX/NfeCwzIQKgKQOvk2/iWhMzuQVn6T5NdlYZbvhevzVp/XA0PYVqFGcom6DR+sl63O3ejSyastfoY89GvtMHexVGBVdap9zPdp9KNbsBR4N6Z1IJ2p/k1tr8G+naObjV1S4tnBqs3IKEdsN0gPTJmni1RVtfDJF6Y3KueuT2+tiZ7sHlrcdIaxl975CE6dN0QOXejTaWwZTo/ellx/SaOuajf2ZlKJ+Vz+kmdPu1+BY8i9VUvoVt0Y2Zl3LpHXPrOC5NJ+xzuVfJ2l0eW9PxFtGpgb3cPpDZOrCH8RzW0wB2yS9/mQFr3P7+3OSXvntoJM2+Nzm0vv1yrSK3q/mudbdOXYXEbh3VPT5UvjZUo9Gk1M0pF9FCgFS1Lu/xxsuRR9qwbJY3gADAAAAkOhqf/D+yyV61SNlTsWDyN6pNLT5Q2Vvc/oTQoo6tWutwUNv0G+en6SsmU/r1gE1m6YmbcBFHoFPI1FS5rhFS1uzTs/+bpa21GTNtLTOGvHwc5o7+zm9MPZqXXlOa3VLD73m0tKtcecM0l1jH9Irr7+ql34zXN3KKITKX7zQ88f/lYMqmEe4WTf18wiyFS3O1sqY0rTUjBO9v+kDbtXEma/q9efH6FeXZ6qfdS+mh1xbvvuzn3WP3DX2Hr3011eVNePWMnMl25Ktz4x5WnPnTtJL99+g6wd0VreMsGBao+bq1q6zLr78aj3w8BN6ffarmhljTU+z3U/NeFVzJz+kB24cpMHWNnYKK4QIv/ZmTrxV/SpbS7tVpm6dOFVzX39aT91hPS+6W8sOCaqaPO2+4/Sr+619mfuqJo6xntnVHQQ0jVnfPzxh8o5XRmqPq+1zmfXXJ/SbO4Z7Pkd810pvXXnHGL30snXeJ1XhXFZJa/U6z+M74bzByqxI4XqM0s+zrvPXX9bMyfd4358mB759D52478+ElOG7X7Os+3VilO+mwDV142hNnDzFeq49wbELV6HnS54WzfdoPyj1Ig05x+mPkfcbLsWavyQnsQrfAQAAAFRKHWmwFgAAAAAAAACAuqNuNFgLAAAAAAAAAEAdQvAeAAAAAAAAAIAEQ9qcOqpwY47W7XYGKiRF7fr0VpsKNsoJxKpo50qt3Fa5hvRadstUp0RqERmokAJtWbZJe5yhCmnYXr3PaV1DDZMDAAAAAIBEQPC+jlo16QbdPc8ZqJDuemDaExpxQho3xMkgf84jumbyOmeoYq5/6k3d1c8ZAGqdlXpx+BOa4QxVSI/Rmvn88Ao2xA4AAAAAAGoz0uYAAAAAAAAAAJBgqHkPAAAAAAAAAECCoeY9AAAAAAAAAAAJhuA9AAAAAAAAAAAJhuA9AAAAAAAAAAAJhuA9AAAAAAAAAAAJhuA9AAAAAAAAAAAJhuA9AAAAAAAAAAAJhuA9AAAAAAAAAAAJpk4F71dNukHDhvu6h+fkOWNRPfI0/17neN+bpXxnbJ2Qm6UX43D95M/J0iqnv1wrpurFFU4/aoh1DU+K7drNn/NI4NkybNJKZywAAAAAAABQfepWzfuOozUz600ttLqnRrV2RpbNHfA33YkNoK7Ui+GBwRVZmp/r6w3f1tAgYp7mz6nJoGJrjXjeHOtJeqCrMyrO7IApgdJazlXIM3xq1MKMVZMeCVznfu6AeWhhnHuZvi7kvs3N0sOBaZHLDViRI10/XOnOYFnSRz1hP1fs672jMxIAAAAAAACoRqTN0XC94AT8TTdkafQA44kXuq0zOy6PHpj0UNuC4XbAdFxvZwgJzQ6Yh987Jsg+SXrYf8321yKP689cl4t0gTPkWDFV12y9wfncJA1eOMl1redpS9dHnGm+7q5+ziTLqmzpgcC0cVK29zW/aps0MMMZAAAAAAAAABIMwfsQedqi9mrrDIXX8A2tle+e5lG7d8XUwOfKqnFcNZu0ZYfTG4Pvtq6TNu6ocIobd43/WN9MWDUnLB2JOy1MbpbmW9ODtaPdx2elXgyMj1zfqhUrQ45tWTWyK5I6KaSWd7bUyRlvb2v4eQ9LtRLr8THzubcp5HPb2rvWuVKrct37Enb9uK+tChXGuI9t5DVrnzN3rXXXst3Hx/PzO3Yo21yPYcsc+PATGhEIkLdWp/Ba69a+PKtxumuQM+zIt47HC4GCm9Ya8fAF2pIdPHadOkZ/s6bXQCk7cB6se3qh1zW/0rrXM2OqdQ8AAAAAAACcCATvlaW7AwHJSSFpNFZNctcaDquVb1JuBKaNk55yBTNNAHRp/8DnotU4rjj3tt7gC3q6ahyXp9c4a1uejy1NiJ8JMC8a5N8PcwxiD+CXZfFCV+3oae31auD49NZdgfGjgwFtv6VPaJjr2N6yNVgjO/x8PaB5kYUqXla4a3mbzy3RYmdSeWI7Pr5AvJnPn87JBMNf7Tgp+LmtU7XFnmLs0Ku3ufYl5PhYy9rmurYGLY8xgG+2YbmG+D9nX7NhhQLWNlzzlOu8BILnK/Wm6/jMHDtaL2S5g/KWfqOtaWHj1Frp7uFc657p4HqTwrlPvFJcfWd1phDNLuAw+5fhLtzYocWTxwXug4g2F3bs0LMP+++TN9Xp4chrPn/ODnWKMbUWAAAAAAAAcCIQvA9JRRMahO817gmN2BGs5Xz3PN94W79Ma15/TWqT/z0YuMzPXqLseU8EPjds+BOaUYka75GcbZ02WtePnRRzXv/KW6lFeiSkgMAUAFSkwCCawbe5AqoZw3VLxxiPj2nXwJVKp9cgf7oVa1vnrdOzt/mP+Q26ZnJWTG8mrFoqVy1vKX3gBYotrXksx8cEzX2B+OD4PGVvvUAPuM5fr0HDnT6fwU+5AuEZmRoc2CDrWuuw3No/J/BuguaxpBbKzdGWYVeolzPoq83eXlvcBQ3m2HoV7uTu0Fan12dHRA378q3Ui09JAwPHwDf8QDnbbhc4hc9jXS9PBe5Zq7tth571v9FgCgSmtQ+0fTFzrDyuAev4q73rWAAAAAAAAACJh+B9iND0HHatX1ct75lj29vjfUzA3tTSnuQEi91pRC4IyU1vdzHVeI9MK5K/zSP6nDFcNygntNZ0otm6w649XZM6jQ3WZPd38Sho2LItmK6lYnboVTtw71HLvSrsWu79tchfOBSXtzrKYApXFCyMelZXhNWwL4edime5hrjugfw5b2rGmqm6xr8PD0+1C178aYVMrfuQ6yd3h+vNhDD9rtBgOefIul0Gu2ram3YThiwNS/GzYp62uN8AAAAAAAAAABIQwfswpta8Opga0Xna0vGRYK3f3Cw9OzkYSF81yRcQtBtVtQPFN0hO0D99oPRqSCqPPK1aEUsAuLU6bX3TFWhcqTcXtvdsVDN9VPsKp+KpeIO1vTVET4SmgXHnrrdZ26zIQH3bjnLVzl6pFx/Ocvp9Fi91bYe1zFernH+8t3XsxoVt68qIgLkpkAnPhd+24ya96s5FP2NqsKZ5Rntpa3Ba/pxJenajMxDD8Rls53w3BT3u1EnmmE3Vm4H58jR/WujxicoEwu3lBNMLzey4I2w/TW77sIB1RqY6LZznms9a51M71CmWwg1rnYtcKX483/iwA/QeBRTW8Rhmp+IZHVLTPXjfON1To/XAtOCy0zvs0N2B42W2dYk6DfTdl/PvjQzGL7aOqc06XYtnuK9x6z7e2EWdXPfQqm3tdUMcCnUAAAAAAACA6kTwPmoeeX96EmfaU9Itrpr3vcaZ2tTBzw0bvjyYQ9uk9bhtR7BW8fBJWuSbUq5e427QlkDqF+983T69dUPHN0MD0QvdqXqsLiwXeGUarDVpS0we98Ayl/aPqM3ea5ACx9AfuE4f1d+1H8s1JCx//WC5jm2UvOcV1WvcJHWa5l+nWe4OtXUHee1ArpTtCsYbJpB8y9ZgDvVFgx6xts/Pd5z908z18cIwZ5Kl7OPT3hU07q27TH5655yEbusk6TaP/P5ezLVlluNfn9U9q8zQFDB2mpt1YelinAKEwOfMGwGhAfWorHUOcR0fu/PIMx/ZYK1TaOOuYe/VuLOXfqM1M3Dcx1nXkj+NkNmPsHvPff1EHB/zWfd+0lAtAAAAAAAAaod6RUVFx53+Wm/VnCy1HRVLehqcULlZmr9juEZQ+7l2MG8TaHRooc0K6xy2t85hRdLnJADzxsyW613tCVRYnubPydOIUaTdAQAAAAAAQPWqWzXvtwZr+IanRgFQOfnbNjl9fibNzxKnv3axG6GuRODeTjnl1OR/NrT1XgAAAAAAAKBa1Kma96glqHlfy5g88+P07BpnUN31wLSq1F4HAAAAAAAAUB6C9wAAAAAAAAAAJBgarAUAAAAAAAAAIMEQvAcAAAAAAAAAIMEQvAcAAAAAAAAAIMEQvAcAAAAAAAAAIMEQvAcAAAAAAAAAIMEQvAcAAAAAAAAAIMEQvAcAAAAAAAAAIMHUieB97uI8Pbj4oDNUEw5q/vQ8zc9zBi3lbUPNb2Ml5eXrwen5ynUGK26fpkzera+coTKt3q1Rc/c5A4nrq7m7NGqy00U7Nua4TQ69JtyfCzn3Zr/9y4tYpjl+UT5ni7z2IpW3jJq+HmPZZgAAAAAAAABu1LyvjLyj+lj1dW5rZ1gH9flm6cIzmzjD1ccEhGtFIUBdsXq3XmveVHPGtrG7J5oX6TmvgHpWqU7v4Awa1uceUSPnc0114WZrHid4nbunVGedHVzmnFvTleGbZJ3fw/o2MK2RTv86+DlbxLUX6au5R9XhWmfZXsuIx/VqF1bEWEgDAAAAAAAAoMJOguD9Qc2fG1pb+qu5VQs65n5zTOrcIBBwjSWgGi99RrbR04Orv5AAjp6tQo53n671tbbAOv8uuYsP6uPOjXS+M2x8tfGYRnRt5gw10bmdpSnLgm8ZnN7S6xwe1PaCJFdQvZnO71CqbbudQUvEteehz8jWGhG4FiOXEZfrtXW6nh7bSn2cQQAAAAAAAADxVa+oqOi4019rmRQgzxUkSduOaa0zbsTQNhrT86DmTz+gKQeckU1TdZ+pOb3NGVZ9PTG2lTQ3T9ubJ2nK1/6grG+8HZg0NYzfLtXNgUClSUlSrPNdgUtTG/6TrmZ9zgiTFuUj/7KSNOba1jr3G2sb1cQOBNvb6/TbzDqypPtMDWzTv0y6sKAosN2mlrZ/Xve6vorYbt+6/IFbM+8j/n3t0EhzRvqDyW6hx+isDvUl61gGtsW/XfZUM+9Babh/HWHH116HQo6PvQ0FqXrJXoY5doc13ze3Rljrmq8Ue7vMMZltHfdvvy4KO4emL2w97vPjFnLc3Z+31ju9RFeeW6o7zXTnWIQcH4f5zJV78nRnQQPP4+V57pYl62l7edb5GGCOTfhxspht2+jb1/D1us+vPd/nSb7j5e63J7quPdfy/NzXRlDktoTPF7o9wWMbeU5c11fEtRHKfPbOr0t9A03ra4RK1cG/DeazbwfPc8j+e15T1nUSy/kHAAAAAAAA6pA6U/N+7TbpZn8akqH1Nf9zU9u+iUbc2kgjmqbqJSc9yYUjm2pMUxP8M/P6A4ClmlKQ4qQZaaOXzi7VI9Fym68u1vwOKa7A4T59sq2+zvcHTE1g8iM5yzedK4Abq23HpOH+z5u0Jwc0ZbUzLYS13ZuTfPtmb3ewdrcJnrrTvbzU/GiU3OcHNaW5P71LG93XvDQQVC3PV3MP6OPOrvQvIcFuE4Td5dsGJ8AbmhKmjc5XMNBuzP/aFJI4ywqcQ8vqw6Hr8Qrchh/3a1P17UeuPOsHinSnCXabaWY7rflfM4UKzvwvnZ3kCvZHYX3muc31dZ870JxlbXPIfvsl6TT3eW+VpLMKSuz9MW9PBPcl7Pz2bKU5ppDB5KsPCdxb3Ndez0YaU3A0uH/O/lwZtv2+twKs+yCwLWHXq8W9Pebaf811nczfLN3n39ahSZrydgxvrZjj9HVS8FwMT9K3gcD7PmsZx3RhSFqf4P57XlOxnH8AAAAAAACgjqkzwfuzzm4UDOj1TNEIpzdWwRQnUsbgBhpxoNQXOA5LDxKaDsUSFsy305q4t6UymrpTmjTTlWcn6ds9kYF3Y8S5weBuxpn1dZbdZ3Kal2rt1wcCjZaaWtDh6V5880ljBrj2PbCM8viCwDcHAtlupXptui8IG6xRHTm/SUHjFvUcWv0mwDuqjBzrEcfdOm83h6SLqa8nPIPsQf5jnDG4dVhBhGGCzqW62RVMN4HxbedGCySXars7z/xu6/g3T/aopR56fk0teLtGvQlSD5eeczWC65WK5+NvfJ/zTKezerf9BkHwHFgiCp+cdbquE7ez3Ms0BQZNw/bLEvy8b1sjz0UDXdjU6bfXb91fntd3lGsqhvMPAAAAAAAA1DU0WFshkbWWI4L5CcOkOPHXVHa6coLX8XTh8NBGWqummcbY+5CiT+wgcRyCuCa437zIV8PdBK1DatSHM+lqTCOw7kD9Ps3+ulTzP/IHrk3qmVJNeds0KCyd1jwsV/2e0KC4N9/1FShkMAVHQ5OcAH3ktWcKmU7ffFS5diFMUmjQ259yJ+ych1+v5g2NYMO6vjcQKipYc78Sb5nEpBrOPwAAAAAAAJDgTo7gvb8WfUBk7eFAihZL7uKjmt80yVfj2KRj8QcLy0uZYzE11/X14XKDi+5a8KamckiqmgNFmh1Ik+MLEns3cBqN00BqlnfqH1NT2pdCJ7Ih1chtcR0709BpIP2JaQj1WEiKlSCTMqaJRgyvr48DaVYi5zeB5IrxBXGf6OCcP9e5iTjuJo3MtiR1aOUMRzCNw/rTJ1ldSI36PI2a6z8m/sB9eGDaH1AOdk908BWYmJru5q2C4DXlexPCs5DHTjEjVyO1oddm4Bh51Ji3j2lz61qZe1hTmrumReTK94u8XnMLSnVWc/8bEL7tdFvrPqarrfUcCEsH5CHyXLiuG/NGxTZXup+Q67usa8oIO/8AAAAAAABAHVZ3Gqx1NyJqAq6mgdJArnWnQU6T+94ap0Bjmr6GL2VN/8Tqn29yzdt84+1gqAkQOw3W2vOFN0wb1miozYwvo8FaX0A42HDrWWen6vTN8m2vWV9WqU7XMc13Ap7RG6wN2x7zWafxVCOw3w5/Tncz3uSi9y0ztIHQkG2xhkOWYR2/Mc2t/bIbZTUjvBoXDW2w1ncsTC56Mxy63yOsdX1b4NveMs9hyPG0+BvfdZ2b4LqC84U0WBvWyLBh1hmSJsZZrj3eabA2Yh6b6/pwCTZY6x8OHrvgOQw7Zs71ESgYsPcp2Jiru3HdyMZoLc4+B/c1fPkOs5yuxR7Xq/ucWNtydpI+ViN7W+1zEtIQtGtb7es01gZrw66bsH0st8Fas91e5x8AAAAAAACow+pE8L6qogZGT4RygqKIj9ACDMMEjQ9Kw12B9JOcHbwPKVABAAAAAAAAUFNqffD+9U8L9YbVVZZJd+IO3pvc5SfSnGtTA8F7k48d8Rd+zn2CtfMf4bjbx8gdvD/R90W4vh0a6HcjWzhDAAAAAAAAQN1DzXsLNe9PQuHpacLT14Ca9wAAAAAAAMAJRPAeAAAAAAAAAIAEk+T8CwAAAAAAAAAAEgTBewAAAAAAAAAAEgzBewAAAAAAAAAAEgzBewAAAAAAAAAAEgzBewAAAAAAAAAAEgzBewAAAAAAAAAAEgzBewAAAAAAAAAAEgzBewAAAAAAAAAAEgzBewAAAAAAAAAAEgzBewAAAAAAAAAAEgzBewAAAAAAAAAAEgzBewAAAAAAAAAAEgzBewAAAAAAAAAAEgzBewAAAAAAAAAAEgzBewAAAAAAAAAAEgzBewAAAAAAAAAAEgzBewAAAAAAAAAAEgzBewAAAAAAAAAAEgzBewAAAAAAAAAAEgzBewAAAAAAAAAAEgzBewAAAAAAAAAAEgzBewAAAAAAAAAAEgzBewAAAAAAAAAAEgzBewAAAAAAAAAAEgzB+xismnSDXlzhDFRATX8u1Eq9OPwRzc91BmOUP+cRDZu00hmqm06GfaxWuVl6+N4s5TuDMavU5/I0/96KX8cAAAAAAABAbVevqKjouNNfy5kg3zg9u8YZ9HLFI1o4rrczYJgA9xOa4QyF6DFaM58frnSr1wTTFw16U3f1802ymUDkbVOV7Qz6DRw7SU+Nam33e37OCPvs9U+FzhP1cwHR9zW4LLNvb6rTtCc0IsOeZDHjlmtI1mj1csaEjzOB7Wu23hB2nE6QFVM17OEsZ8DLcL0Qsi+hoh3HhNrHmJRxndq664GQ8+xX2c/5jt3d85yB8PnM9fuU9IBzf/iVe916fS7KfRQ8t+ZanyQ97L2dAAAAAAAAQF1Vh4L35TCB4KX9owdsowQkjfKD6T7h83l+zg5WLtFgfzA0fNgS6/pChQc5qyN4X3Yw2F1wUbjuQ03/65ua/2WBCq3htPTOGjDqVt17Y2+lhQXlU5u11oAfXqWf/fwidUpzRhrlnbNyRDuOZe5jmQUGThB7h/c8gYKT3Tma/sxfNMO977fdo99cvjfm4xfK67z5eZ1nv7I+F505bnfLVdDldc3GM3gf5b7zIXgPAAAAAACAkxNpcxz52UuUvcbq7PQcJmB4g4YN93XBGshlWDFVd28crRvKCbivmjFVGjsuGIjMGK4HxkrPzqhqGpc8bVnTRZ2qNcDZW3dlvamFdjdJD/TwBax9w28GAs+7THB8fJbSrnlUM+f7ps185mca0e80BWLz5s0G53NZfxmngfve1J0TltrB7hDzngich4iuzBQs1vHY6PRWRL/Rgf1ZOG20Bto1wJ3hLFcA2bX9/s4XtN6sGb+aqNUDH/bt+/xX9brZ9x7NrWmxHb8Ta6UWzbP22V2wEbdrFAAAAAAAAECsCN4buVl6dvI6XX9FFz37lAkIt9aI54NB1ReucOaLxq6tLb0Qtfawnwkod9fggaFB2vSBF2jgxh0VzyHukj/nTc24on8MNayzdHdIENyjJrgTMH94Tp4zogLyP9TkyQd11/NP69YB7ZWa7Bud2qG7+nU3AWwP6d014j9Hqven32iLMyrApDpyzkNEV9bxzs3R4jXSjGmVyM1eFbnfKGf3Rbrl6s6+fU9OUZrZ985NfNNrXPj5Du2q3rYCAAAAAAAAgOpA8N4E3m+bqo4m5cm40Zo5bImuibmhV5OW5AYNm9ZeMyuYmiTCmh36zumtuJV6c7L0wPWxpJdx1yQ33SO63pkS4ATMK1MTPP/fC7W43xW6pLMzIlZFRTqQ6vS7lVXzPup5ytP8p8w5naQHNFXPVqYQorIyuqhnsyVa8FGBM+JEctf09+4iU9z01pArsnS3u0Ffu3Ar1uurOqzTs7f5znmlCpQAAAAAAACAWqiOBu99aW/ctYrzt23SwI5hwWi7xvwmPTAtGMRMH/WEFj7VRc/eNlWrfKM8+NPqmHzib0atAd5rXBn5v8P1aK+2Tm9FrZr0hLa6U/GcQN9tWie1ax1MjxODovx1mj1ploou769uzjibO4WN1Zk3INxpZkLS2ASYczNOi4dNso69eYPiEXWcPC7+NczXTNU1IQUJ/uulu2548mrteX6MRv58gmZ8tFmFJfaEKopWg97jzQmTR95z3mhdaCGIuW5fkKvQJKxNhppn2hrwnfPESC0EAAAAAAAAVL862mCtL4C75bZg8Nw0UvqsxlUq+FdWQ5x2455l5MQPNGLqMPO/2jG0YdLwBlTLbfjTxV6/u3HRAK+GTM04rwZTTW38WBqsdYs8xkb07XEJaxQ2Lb23Rtxxq269uLPSTKqZsOnl82+/b/+2RjT8Ggzom/Ex76MJgt+2Q7eEv1Vhts+8bVFW2p6SYu368kP987U3NXvjqfrZk4/q+t7u1Dnexy8WFb2WI645s/1VaAg4mnKvW6/Gab3GhTDHiQZrAQAAAAAAcPI5aYL3sbCDupPXOUN+ptZv5QKHnsFMOyDsqskcPmwpNwhqcwLxJsWNZxDWK3hfvqoG7/PnWZ/PvkxznxwUvfZ9LMHvalQjwXuX/Pcm6KaZvfX3KVeojTOuRoL39vZPVbYzGKmMa7usfYwScLcLbqIVZJkGfh+WniV4DwAAAAAAAMSEnPcOE3i0A7qBlCxON+0CLb4tesOe5nOhKUiCnWcgM2O4nnKWac9XmZQkJuA5/AnJpJCpRO1pE/wd5s5pHkfp5wxQr0/f1aKdzoiqMkHksOPq68pKa+Q7L4mSHz39nEz125ynPc5wjTHXWvj1HOgm6YEeznxxYtLteK/L6soq6IhIQeR099ZwY8MAAAAAAABAAqkTNe/LrPHrJaK2uqmlbvLXezc6W1ZNZ7Pu8DQ4VWWWGWvanOii17yPvXZ9WaLVHC/Wqin36b5FnXXX/TdqxDntlZosFe3LU35xC7VplRJ7zfXyan971Yp3xOW8RFtHWdu1eaWyS1qrd4fWSjMN8BblKfv5R/Rb/Uxzx/dXsE3eGGre2+svq+Z8uLCa9OV+vpya92WlLjI16cs7f+HM9pRZy96LV837Ai1+6hF93PcR/eby+N13AAAAAAAAQCKpEzXvy6zx69VFBK17a8gVWbrbqzZ6bpaenbxOHTsQJIxNinqNmaTX72mtFc8/opEjfLWor/nFRM3fWOTMUwd41Bb3vZ2RpwXWft800jdu+C1PaH6zX+j1+92B+xiVWXPeq/MIxJsgu+e8posSuPeL9tlpozXQmeXEOKgD2/Zqw/eHnGEAAAAAAACg7qmjOe8rx66RHpHzPtiYq5dya/1XooZyjdS8j9hPl8rUqq4uUWuAV/G8lPP5OiGGmvsDIxr3dSR0zXsAAAAAAACg7iN4DwAAAAAAAABAgqHBWgAAAAAAAAAAEgzBewAAAAAAAAAAEgzBewAAAAAAAAAAEgzBewAAAAAAAAAAEgzBewAAAAAAAAAAEgzBewAAAAAAAAAAEgzBewAAAAAAAAAAEgzBewAAAAAAAAAAEgzBewAAAAAAAAAAEgzBewAAAAAAAAAAEgzBewAAAAAAAAAAEgzBewAAAAAAAAAAEgzBewAAAAAAAAAAEgzBewAAAAAAAAAAEgzBewAAAAAAAAAAEgzBewAAAAAAAAAAEgzBewAAAAAAAAAAEgzBewAAAAAAAAAAEgzBewAAAAAAAAAAEgzBewAAAAAAAAAAEgzBewAAAAAAAAAAEgzBewAAAAAAAAAAEgzB+7g5qPnTd2nKamewsvIL9P7qw87APk2ZnKf5ec6gh9zFeRo1d58zlABW79ao6fnKdQYr5qi+/Xyvth91BgEAAAAAAADgJEXwPqpCzXh5t75yhmrK3m+K9NLqIzroDFcfX2HDxJzQSLldGDD5e30SMvqoPpm5Sw8uru6tOqL3Py3Sx985g0f3amKlCwIAAAAAAAAAoPYieB9NfpG+9leAr0Etzm+tt65toSbOcPVpoj7t6yn7uyPOsHFE3+woVZOUEv17rTt6f0RffV9P53au7q1qpjG/yNDNnZ3BLSX63OkFAAAAAAAAgJNJvaKiouNOf+1lUrWsSdYjpxTruY2lOlgqndY2Vff/sL4++eCwZhccV1FSPQ05p4nGnZ+mVOdjBzfn6y8fFWnRISk1OUkjBqXpjt6NpU179OBHxfr2sNSkUT1r/iRdN+pU/ahpoRa9e0hTd5Rqr7WO1MbJumPoKRrRuYFZmuZPP6Bvz2ioJt8e0XyTyca9TJtJg3NUHa5trRGtnVHO57ad20Zjevpqvt9Z0EBzRjazpoXPX6ztywr0VE6Jtjv7eEfLEj2xL9WZv4Ks43bdsnr6wx0tdZoZNjXd/3ZMPc6WXi5I1Vv+ZW7bozv/77ju/kUr9THDhw5oftYhvfydOa7SWR0b6qHLmquFKQoy5+Lzerq/c6neXBXczvuHp+t0/2HItdbzzlFlW8e9yBps0TxF941qqT5Ngvt7/nff6/HlJfq2RMpoUM+aq77us7bzLJVo78q9mrD0mNZa00LPAQAAAAAAAADUDXWn5n3uUb3VoLH+8Ys2mvOfafpRYZEe/OcR6fxmemusNW5kivK+PKQF/vzxBXv13LvH1PVHLTXHmv7WNSnK/+SAXt5YInVpqaf/I1Wn2wHjDL10x6n6Ubr1mZRkndaziV6601re2FP1iglyLz4Yktbl/dXHdPYVLe11hiwzDopW79P4lfV0x82n2tv85/7SnNVVWHbXZA08XKKvnGNSZG37ovT6uvDMZJ2+65jWlvrG524uUe6pyTrLHjqsRf86qI9bNvEd15+dov84fES/fv+APdV2oFj/d7yR/mCO0y+a6/60Y3rwX3u1155YqNnvHFWDc5v7Pv+LFvrDsEbqGlapv8U5p+oPg+pLTVL1hH0OTODesrFAv14mXfcTcwysc3Bhkj5+d78WFdgfAwAAAAAAAIA6oe4E75Pq6+YL0nz9KWk6v1OSik5N0XVdGvrGtW+gC5uUattu32Du18Xa1r2xrmyf4hvRqoV+1P64PtlSVq6cRjq9axOl2kctWU06JOv0A6UhwfuzujfSD5oFl3lDV+n9DYd8w1VyVJ+vOaYOZvlNk32j2qfr5i6+3kpp0EjnpZdqzQ6TIqdEa7eX6AenN1KT1taxalisTzaZmY7q27xS/aBDI98bC3mH9X+HUzRuiP9YN9aQs+vr4M4ibfeNCZwL+zglNdTpQ1I0MP+Yvnbi+yHveiQ1UIu2jWNME1Sir1YX6+x+TZ1jYJ2DLo10YdMSfbqJVm4BAAAAAAAA1B11J3jfJEkZ7r0xmVZSkwIpcsLlFpQqd22hRk3eFege2WyNP1hGTfbiQ/rs/e/167/l6naru3Nukb51Jvmd3jI0DN26RZIO7i52ap1XxTHtPRS5/BaNq3IKG+rM9knK3m7y3h/S57uSdG5nU9jhy4f//oYDUqnJd+8fb9ldqrWHi/VL13EbteCYig4fV75vjshz0SBFHRqVaI3dEG2a/mNYivb+u0A/eW235q89qCKnhn/5jmh7gbTok72u87ZfU/ZJeYXHnHkAAAAAAAAAoParO8H7Sjjr7KZ2+pmQLmru+MNaNHO/3lIDPXpbhl75WYZeGmlS68Qg2eTNjy724HVFmPzxwQD7g4sPOuNDZXROVovdx7R9Y5Her5+sPk4u/tO61VeaqU2/45g+bxAcb2uaqpfCj9tYJx9+GVKdFwaadG6pR/6zhf5wbpK+/fSAbp6+RyHt45ZjxNDwdbfR04OruzFdAAAAAAAAAKg5J23wPr1pPa3NK7IbTI1NkdbkJ+nCc05RCycrjg4c1zan12/t7tAged7eUjVpUT96WpijRdroHVcPU18tGkvf7gmdubg4WnvDzTQmluB2h/o692iJ3v+mRGmdGvgarjU6pOr8Y9b4r0tU2C41OL5ZPZ12oETflhVst6ZvcxdIHC3WtsPJ6uouAEhqoIyz0nX3rc10Z0qxPt7ojC+TdQzSpM93FTrDAAAAAAAAAFA3nbTB+9P6puoH3xdp0uf+tC3FKtpdqO377MlSo3pKU6m+zfWn0UlWi0alWrPNpJixHDigGcuKrU+F2r7xsD7b54zdka9J66Qrezb2Dau+OjQt1cdrneBz6RF9u6hY2TGdhQY694xkfbvOWv4BZ5t279Wbm6IF72PVUH1OLdX8raU6v5OTx97WWOefVqrZm0v1w/b+7bdY/Tekl2jK/L3KPepsx6FD+vY7V1sBSSWas6TQd1ytffzsvSJlZ9TXuU19k0McKNb2IutYu1YR0KCemhwp0bZAkwENdH6fFBWtO6QZ1nG2lR7Vwe8KTXvFAAAAAAAAAFBnnLxpc5q30CMjU9Vg7QHd/BeTWmaPbp93WGv8lbqbNtYdvetpxj+/16i/fK/389P0HxekKO+zAjsNzXUzjyjthw01wl8L35asO4fV19fz9ug6M8+8Yzrrgqa6voOTL0ZNNOLSBmr9baFv+v/br382a6RxpzqTy5F6zil6uvtxvfyatU3W52//sFRX9atfZkqe8jVQH2v7ilRf54Y0fpusszqZZSerTyf/9huNNOSaNI2uX6xfv+zbjuumF+q1rcG2App0aag76h3Wr1+yjutfCvTysRQ9fXkL5+2DA5rx91x7/+3P/uOI8ns00c2d7YmhujbWuDalevoVs5zdWmuPa64/X5Ssbxbvsz8/6i979cuFR5Ub+ysUAAAAAAAAAJDw6hUVFVW16jYAAAAAAAAAAIijWh+8f/3TQr1hdSe7hin1dCRq/vuTw59vaqXTWtR3hgAAAAAAAACg9qLmPQAAAAAAAAAACebkzXkPAAAAAAAAAECCIngPAAAAAAAAAECCIXgPAAAAAAAAAECCIXgPAAAAAAAAAECCIXgPAAAAAAAAAECCIXgPAAAAAAAAAECCIXgPAAAAAAAAAECCIXgPAAAAAAAAAECCIXhfafs0ZXKe5uc5gyfaoQNalFOoInvgoOZP36Upq+2BOiwe56BEe1fu1Vf7nMHVuzVqer5yncFIJ8uxBQAAAAAAAHAi1ZHg/VF9u/h7/XLKLo2abHV/2aU7/7FHXx1wJp8Mth/VpBVHtd0ZLNPRvZpYZoD6BDkh23VUn3x5VPM3HHGGAQAAAAAAAODEqxPB+4Of79eD6+rpjhtaaM7YNppz2yl66OwUZTR1ZjgZdG+lt37WUqc7g2XaUqLPnd6EckK2q7FG3NxGD53b0BkGAAAAAAAAgBOvXlFR0XGnv9b6au4uvda8qZ4e3MQZE86XGmXC0mNaWyKlNk7WHUNP0YjODaxpJg3KQRVd0FAHPzms2QXHVZRUT326NtJDPzpFgSUe2K/X/nVIs016leQkjRiUIn1SrIxRrTWitW+WEIcOaH7WIb38nVmedFbHhnrosuZqYReXmHQvRTp9SJIWLC0ObtOFjXXahoN6bmOp9pZKp7VN1cMj0nWa2UzLwXV79Ny/i/XVIUUu06R7+TxJL92argx7nw5o27ltNKan77N+e7/8Xo8vL9G31jozGtSzxtTXfXe01FnOMXruk2P6qtjaHnsf03RH78a+D4bJXZynR46k6JbCIk1y7eN9Zx/Xqx8cVba1jfZxGtxUd/Rs5PtQGech2nadvmOvXvq4SB+b82KNNcfk/uHpOt3eLHMcjyptQH3t+rpIi6x1hp5bS8hxceTl68H/n707gY+ivP84/uXYKGy45TQIcsohCraKUqgFKRYFURRB8QhWRQGPcrR4K1D9gygqIEglKihIRTksldJgBY9gCyiC3MgRkTNcWZBdE/7zzMwmu5s7BNiEz/v1mu5cO8czu6R+59nffJCu2x88T60i2ypy/UCqFn3s0xv2OZZShxbnqOGPP2t3q6xtCwAAAAAAAABFxY6Si7uGNcto3daftcUExtnZfFCPLpNuua265j5YXW/9trQ+++Swlhx0lytd7/7nuOr+vqr+bnru336Oam49qlmb3cUm4J1zVKvqxtrL/35vRV38g18L0tzFWRzTknk+fVbN62zvnoq67tjPenRRaB2fNL3xbSkN6mctf7CaXq5/QpMXHtG7KqcJ91nz7o1V56N+vfa1z11f8lSK0e03VnO36VWrPT9rlknBC6DKJdX1cruykjdGI+Jr6g07uLfYbXRCna3tm18v/L13jPzLDmv86uP2+7Kze6NfaxtXctvsXNX98WcN/Ncv+vX15hitdm5ntfMSn1alu2/I5TrkdFwxsR5d06mys4/+lXVrul+Tl2e2ibl2c9ZJt/bJ6dqejONa9Umq3i17jt7qb/ZfVbeeCOjdItk2AAAAAAAAAOSsRIT33l959ZeKv+jP7+zSn+enaNXu0MA5Tau+D+jiNhX0qwplrOky8l5YTr+tkKb//pC5XoNG5dXhPI8zUaGyOtSS1u10Q+IdP2uOr6xu/02sM136XP3q6hi1CobSkfYc0z+OeTSog7u+x9r2xWXl2+kPq0l/TetKirN36VFcs7JqkF5GPTpUkNdcFU+srrygtNYd/MWsYIupWUENKrnH6Kmgi6tJW/YXRa324/pqVUA1m4S0QaXKim9TRotWH1VoVB6mgkc9WrrlZipUUNsaUhWrbZ1tWO3c0qMr09OVvM+skL/rkEWlWF1U0+1Fb7V70xrhbWLY7XhOcJux6lE9TZ9tKIJ2OX5Ui3aUVq8rKjvXxFynDueqq9kVAAAAAAAAAJxCJSK8V+nyuvKGmvp7n1hdd26aJn90QPd9cEC77XD9ZyUflJZ8dcB5mK09HNbkQ9Ke1MwQuEG1nEruWI6c0G5vadUMba0KpZVdtRzbvnStOxbQgIz9WcO/f5H/2AmluKuYpq97XkgKXEqKsf7H6+bUWaXJ98MBjX9vt+6eslv3JezWSz+6i07aLzqQmrUNYs4vo4tS0pTxA4RIlctklqJRGcVY7VPFY0reZCd/1yGLfQf17qw9us895ye/j7xjEtGOOkd1q5TSqn253BDIr0MntMfaflzYhbY+B5THBwAAAAAAAHCKlYzwPqhSrDp0rq4Jd5bXlanHNf27zAC369W17HIwoUPONfKLQIUYvRGxv7l2jfVC2nxQA/79i1p1qqy37jVlZWrqT+e7y4qRAl2Hgwc04gO/dFkFveGe84jm+fvIesrkst4J2fXzAQAAAAAAACBalazwPqh8RV1WTdpz2PToLqsqsdLyXanOssKoUEo1feluT37X8XTluMVKpRR3JE1biqDzd9DunWk6UCtGHYIlZPSzDuZYz6agzlVcZVOCJ3yD/h/TtK5SadV1p09OIa6Ddc7/85bVNQ2DD7yVDhyN7Hmfri17Quv+H9eOAyfUrIpb/icbfmu7W9zxXFnXsYa1/eQ97rTthHL7oQAAAAAAAAAAFIUSEN7/rHUrDyn5SDApD+jA5v1698dSurKB6dF9jq5s5ZF/g3kA7TFnlfTj8v2UqrDS+Lmpe466nvuL3v3cDZ7Tf9aWJQEl5dR655fXrVXTNHnBAWsfbrB89Ki2/OTuvxCqxJaS9v+iLQEzFdDu5Uc0vbAPTj2nlLw/p2lHxgN+y6hVc492rzuqJfvsHUiHDiphRZo6NPeqijPnJOXjOkQel33TJE3rj5g2NGWDrOv6g7Mo1GerrOtvt7O1zuojmry3jK4J1uI/r7Qu8v2ir350z+vIEf39+zTFOFO5O6e8rqqdrlnLDspn3zOw2v1/x7SgCG/KAAAAAAAAAEB2SkTPe/+u43ruvWAt9f169PN0/bZLJfUIlpVpWFkTOpbR+qWHnHUmHdCAT49rd75rp8SqR/dzddGOVN1ivf+WKYe14LxzFV/BXZxFOXXoGat+ZQN6NGGvvc9bpqXq3e2hPcQLJuaS8hpc6Rf9eYo5/v16abdHf2ldyCenNiyvQbXS9X9vmW3t0zp7ntVGvy2tRR/td453pl+BNhU0uHWORfgLLq/rEHlcdWP1p4YnNOld04Z7NeybUor/jUdhRXY8Hv35Kun9Gc46d//vhHpdW1FXlneX16ikP7UppUUfO+d12+yfVbfdOWrrLs7dObqyi1e9fjmuuyeZY0rRG6nn6v4L3MUAAAAAAAAAcIqU8vv9J9xxAAAAAAAAAAAQBYp9eD/jv6maaQ3A6fbr+ufqia6V3SkAAAAAAAAAKDr0vAcAAAAAAAAAIMqUiJr3AAAAAAAAAACUJIT3AAAAAAAAAABEGcJ7AAAAAAAAAACiDOE9AAAAAAAAAABRhvAeAAAAAAAAAIAoQ3gPAAAAAAAAAECUIbwHAAAAAAAAACDKEN4DAAAAAAAAABBlCO8BAAAAAAAAAIgyhPcAAAAAAAAAAEQZwnsAAAAAAAAAAKIM4T0AAAAAAAAAAFGG8B4AAAAAAAAAgChDeA8AAAAAAAAAQJQhvAcAAAAAAAAAIMoQ3gMAAAAAAAAAEGUI7wEAAAAAAAAAiDKE9wAAAAAAAAAARBnCewAAAAAAAAAAogzhPQAAAAAAAAAAUYbwHgAAAAAAAACAKEN4DwAAAAAAAABAlCG8BwAAAAAAAAAgyhDeAwAAAAAAAAAQZQjvAQAAAAAAAACIMoT3AAAAAAAAAABEGcJ7AAAAAAAAAACiDOE9AAAAAAAAAABRhvAeAAAAAAAAAIAoQ3gPAAAAAAAAAECUIbwHAAAAAAAAACDKEN4DAAAAAAAAABBlCO8BAAAAAAAAAIgyhPcAAAAAAAAAAEQZwnsAAAAAAAAAAKIM4T0AAAAAAAAAAFGG8B4AAAAAAAAAgChDeA8AAAAAAAAAQJQhvAcAAAAAAAAAIMoQ3gMAAAAAAAAAEGUI7wEAAAAAAAAAiDKE9wAAAAAAAAAARBnCewAAAAAAAAAAogzhPQAAAAAAAAAAUYbwHgAAAAAAAACAKEN4DwAAAAAAAABAlCG8BwAAAAAAAAAgyhDeAwAAAAAAAAAQZQjvAQAAAAAAAACIMoT3AAAAAAAAAABEGcJ7AAAAAAAAAACiDOE9AAAAAAAAAABRhvAeAAAAAAAAAIAoQ3gPAAAAAAAAAECUIbwHAAAAAAAAACDKEN4DAAAAAAAAABBlCO8BAAAAAAAAAIgyhPcAAAAAAAAAAEQZwnsAAAAAAAAAAKIM4T0AAAAAAAAAAFGG8B4AAAAAAAAAgChDeA8AAAAAAAAAQJQhvAcAAAAAAAAAIMoQ3gMAAAAAAAAAEGUI7wEAAAAAAAAAiDKE9wAAAAAAAAAARBnCewAAAAAAAAAAogzhPQAAAAAAAAAAUYbwHgAAAAAAAACAKEN4DwAAAAAAAABAlCG8BwAAAAAAAAAgyhDeAwAAAAAAAAAQZUr5/f4T7vhZw7/6fT393HwlHQq4czyq176fXnqio/SvsfrLjK3O7A6D9EZ8E2f8DFqTMEivLHHGG/cZoaG/r+xM5MtBLR35pKZtdqauGfyaerV0xou1fYs1ZuhH2mhP/EYPJ9yqFvY4cBaw/g27b+znznjDG/WC9W9XVXuihH7fAQAAAAAAzkJnX8/7Y1/r9eEfhgT3RkDb9rnTxw5q4849zpDqd+adaanu8VhDyrGCHpNfR/Zlvn9/lJxSXvw7V2vFspXOsPmgOzdEWkAp7jlt3OlzZxaVg9oW3Pey1dp1zJ19GqVuDu5/pdbsDP2sFj8l6Vwi5fk5PVX8vozv9Mbgv1224vl9BwAAAAAAQFZnX3i/YbUWhARasVVrqHEdazjP485BNEj97/sa/NQLzrAg2Z17uiRrQXDfT72vFYfd2afRtgXB/b+g6f894M4tnkrSuUQ6s59TAAAAAAAAlGRnXXjvP5yqjOy+zq0aP+M1vZFgDW7Zidhf36qxz/3FGbrGOesBAE6NfSuVuOJU/WphjxY8cqteX+FORrsVU/W7RxYqxZ1ECRN2fYvZZxMAAADAWe3ZZ59V7dq1tWbNGndO/q1evdp+78iRI905KIizLrxPTdnrjlkqeVXBHQ2KqdNSba5o7QwNC1JbPmf+VJ9SD7lDPspYFHT9IpEWyNxnWEmhPIS+Lz/nlrEPn/xp7syiUsBjKTL+zHNKTc277ULb4IxVZrLaKtv2LybnEvYdyeM4w9YtSAmkU/x58h/L/rhPS5sW9vvuyunYc7LmtVv1uy6Rw1SZP/kpSR9q9Pw1SnVWPb3OaFj+o+bEO21QOKv1epY2zRyGz93jrlc4/qWv5rENJ3zO3Gdf9bxzhKb9t2huxGx7d1C+gu3UDYv1+rD71c09jm59/qyRM1cX3efp2Nd6hRsqAAAAAM5ygwYN0nnnnaeOHTvq22+/defmzazbqVMnO7x/8MEH3bkoiLPqgbUmQBr4sTsR6fon9emglkqZ+6R6TtwQNk+p1n+89xmrOXaQ5lGPpxP08FVumZ3V09Rn8MfaZcZjWuu5t/+i9s6TI5Xy32kaM2ZhRH19jxr/+iY9PPQmtajkznL5NyzUKyOnacHunIOxtg++pudvqOFO5YcJWAZpzFpnqtfz7+uBNs64LXWrFrz2ql7/z4/hYUe5+ur1yEN64Orz3RmW3Qs1/M6pSrInWqrXTX79++MNSskIGK1za/+AnhveTrXKuLOMtINa8e4kTf1wpdbkFp4266fZ487X+11GaJY7K4vgNQk7libq8QdpSWI+jiUPYdc/iyYa+s4Ida3pTu5bqWnPv6bpq32Zv+awxNRsrQcGD1KPS7zuHMOnbXPf1JiEL7K2QYxXjc+7Qv3G3a+2P4eeV1YFvf6hn3nz3scv2agFU2dr2rIf1TX0s1AMzsVI/fZ9jRoV+rDpII/q9X5Kb4U8YDpl2TSNev5jrYg4xti67fTAsHvUtUnIORX4s22C04J+Trto/ILrpY8/0vR3lyqpzh3W572L86DZNJ82fjxJY/72tTaGXgBrv1VbdtHjw+9Qm/PcWYYJnYcvdMbt7427nVP2fc/l2PPBfA6nX1Dw633ynPbYdmdEOwSZdnzn/AKdS5HZt1BP3f6jbl3YL/Nh24U+njzOsxDWTOyn6ee/kMs1i9hnWkApG+ZrzLCFaj56su5o5qxVKNbfjMQn7teGW3I/n13Wv9d3JfjVd/hDuvVX5yvG+m76d2zQ6mM11KZJ0dx817dT1SfhfE0ois9I2PUt+msGAAAAAKfS3r177fD+p59+UmJioi655BJ3SfZCg/vFixerevXq7hIUxNlX874wYi/XHX8MhoIBzXl7oRPWm//4/psb3FvaxvfLCO79X76qu574OJuQMaCN/31fAx+cGh587vxYTw+ammtwX+TSftScYU9oTGSQZxzbqlnP/1nDP86p5+VqzfowNNw0rHNb+qpGfvijO20c1NKnB2rwu3kE9ydlg+b8Mz/HUoTMDZ0/vqCpEWG34d+9Uq8M+5Omfpt5LTf+7U+6e2I2YbdhP3w0WSk/u9OnyIqEP6nn/a/q9WUR17u4nMvaaRo4LPJh00EBbQvppp7y8ZPq81TW4N5I3fGFxgx+QQt2ujOyyO9nu6AW6y89B2ngxMVZHpi9ZvKfdN/EyODeCChl9cca/LD178XJdiU+qe97Tsd+8swNs9+9ttoeT018QV0esf5NDf4qJM0EnH31ytLMh1Kbm6LDe/V1eln/8VUt2BDywGrrHBOf/5PTC7vHn/TKXOt6xbrLCsG+ofpHZ19dej0Z1qvcHPfgD7dq4zsjdHcPp+f53cPe18aQxnXef7/ujh+knt3cdazxWf/8WMOHvq9lVruOsabvix+rpfvcN1nXfOu/XtVAd5vmO7s0x89q3nI7B6Vu0KyMXutmX9Zx7DiopLF/1ph/+bTi3RHWsVnHl5DTDc0QZTyq2uwm3XL1QX2/IfNzlOv12vmFXrm/n7q4+zfttyZ1q+YMflITrY/EgjGmbQZZx5JNb/6UxZo40acHxv2f7rjCCe6NmLpNwoJ7s/+n+uRw/vZNuMlaYf2bEDyOLr2sz02ic/wpX07W4BcWa9fm9/UX+zpZx2fmW9fe/CphV6J7nYI9882N6smZn4eeg6dpRcZ1zVten7ds9wkAAAAAp4kJ300Ib8J4E8r/73//c5dkZZYR3BeNsyu8j62hxpVCHkxregmbh9WaITbGnZm9qtffoX7Bnq9bZ+r9pT75V3ysaW4PV513vfoFeyimbdD7475wAzKPWtxwv1NDf/D1alPOnmn3upz+r2DAEdCK6TMzeyjH1FCnP3TRHTeYoaPah/a4LUKpiVP1ymY3iDvvcj083NT6f0gPt68hpzUCSpr8sdbkUN4mtmp99zjbZZ6XZc2CZdrmjmvtfE38bzDsq6yuf3xSM2a9preGd1GLjCb3WvOtfd/e0tpvjKqZ6xF6ncpVzvM6xVZtqR52e+VyLPlh76tySN7nUdWa7r6t+RXcgGjju5M0xw2GYxp20RP2cxLuV78mweM+qGkJi91AZ7X+PTczhImt21q97GPtol5X1Le3XS94zCYAC522xFQK7r+GqpbL/XOaG1PqJEs2bCke5+LT0nc/DrmWHtW7pJ29X3u4uqW6NnWfUXHsa02bvCHjXGMaWp/twX/R8w92zPxs+DdozGuLs4bYrrw/24X5nAayL9uzY6FeD2nTepdcr6HWd/GJ21urcXAz1r8XI9/NR4Cai5P7vudw7EUstlN/PRE7U6/80/m3cdfHr+n1mg/pgfburyTWTtOfxgV0y5Tp+nTh+5oxrKaWDn5NS+0PZ0BrJj6pabF3aMaC9/XpnJd0a9rHej3/v+YLl/KFRg/7XI2fdva18LVrlTLmz5n/5ltWJIzVvy+4X2/Nsfa3YLIeqrlQT80MXifr78ATC1V72GS9lfCaZs/5Pz1QP0adhr2mXn+4Xs+/cKvaqKOGmmeuJAzO/Hd+80zN2dtdL8y2trlwuiZcs1dPTQz+PSmgXM/B+rsz8Tmt/PVTmm8tM/ua8cQdamH9O9d28P9paCepze1POs+ECflFS4Hker1+1Jxn31RMv9e00Ox/QYJeGvQ767tTXz3GPal7GkpdhzrPpBn6+6y96FO+/FRL21yva+q7M7Jj7/+Auo5zz3/STUod9ye9/t+QGwhaqqcn7lbX0VPt41g4tqN2WeNLD1l/96+y/nYP7Sg1vFUv2Nfp1oxfSWxdOFZjvm/vXCe3V/7GhD/r1UMd9ZJ77d7uFdCrD07WivxcvHx83rLbJwAAAACcTsEA37z+/ve/11dffeUuyWTmmWWh66LwzqrwvkX8a3rh9gvdKUvGf5DnI5wo00S39m+XEXLNmT5Jr0wO9sD3qEf/m9Q4WJ5l9eeabv2Hv61NP71gQkNTQ//3d+jZQa3dBVLSfzc6gUzaai1LzOzN2n7QCD3xSD/1e9AM9+vWtu6CInVQyxY6vV1NeN5v+GD1uNrU+m+nHk8MUt9gSR//51qRbWbYRS/M+D/3OB/S2JHXq5a7RDs3aLt7/imbN2T8MkENu+mOW1qqVqUaqnd1Pz3w+2Dw6dOuMuerza/PV6yaqJd1PcKuU6dBzjXK8TqZY3lSD9vtlfOx5EfV3w+29jNIXd1p6ULdM8bdd0bAtlpLPw6GPy01bGQ/dbKfk9BRd4x8QJ3cJVq7UmvMvvf9qO0ZqXk7PTv5L3rAPlarDZ77P3vbb81xy/Gc54R5JjgLygjQzPxsQqx8K1dZ7a++VU+M/j/NnhMs1VBMzuXYGq34rztuaT94vN4a/ZC9X3sY/mTm9lavdEtcWWLa6fmx1mf7963V1txEG219T91FWvG1Vmb72cjPZ7swn1OPqtZvrTusbb7xt6laONYJ33b9d2lm3fP6d+iF0Xeoq/Vd7HTnXzR+8OXuAmu9xGXa6I4X3Ml+37M/9qJnfUb/9IC8f3tNiSsW6pWE6np80OXuv7vSmn8vVOv+d6iNe7yxTbromiYrtWKN9e/nsZX698fnq1ev1op1/y2uddOt6hVy86UgUpZ+ou239FfXuu6Mmu10zdU+LV0R8uuLhtfr1qvdm7ZlvGrzu99o1+ofnBtdu3/Q94daqkXwo1Cmvlq09IX1Ss9eR93au37mOXT4jdr+d33BbkK68joHf1rm3x0jpm4NVQ3+HSuE1LUf6u9Lm+iatk6b5Hq9jNC7ieZmn7X/7G57ZeenH6wPap0aufywIqAV8xeqdq/eahssdVa1te7pf6lmzf0m7GZI11usfxeC34G6l6t9s5VavdmdzsGuY2300IOZnzVz03DB3BrqdVe7jDaMveIO9W+9WAuWhd4syF5+Pm9Z9gkAAAAAZ4AJ4z/99FPVrFlT1157rT777DN3iexxM88sM+sQ3J88yuYUQEz73no4WMd3q/Uf6lud0ZhfP6B7gj1DLSlbf8jMJCLChdgqIfWDf9yt/eZ13x5tt2cYTfTbNvkJNQ9q6UinpEB2w6xgTpejZG3IWOd8VQv7LlVWtTruqHxK2Rce8GSrWUt1cEfNe44Ey6aE9uKN8YQHMyEBxJECPgAzVzkdy75giYrsBqccQr7s/jGkvMn5qhWaYlaqpGruqOlZuv+A9VKxSmb4qy/0dN8ReiVhoZKWbdCufDwUNjtrErI7B2fItsSEpW38CD03/CZ1uqS+qgYDzeJyLocPZN4EUmt1viLn78iuHVvcMctVbdUyNLxt0kJtMz6EeQd0tpw+TwXWUc9N/ov63dBOjet6M8p87PzB/YfE0rhD65D2tb4yLVsq497doQ3auNsdL7CT/b5nf+wFkTRxkF0OJGNwS+VkUbWdHhnk1ejh01Rr8D1qm/EP6B5t2xzQnJFOWRFnuF8jrc3sSrE+nPZn5ELVCwa1ttBzK5iftlvt/c6fQvZ1qwbODWij2VdQw/Nzvolx3oVqXmm1NgYvb5r1XVtdWa2b5VRD3mVts3YRhbO5n4NHbe8drAsW/lnd/viCZv1nq1Jz+JVVbmYNz9z2XRN9umXyCHWyr0Ee18v6HHa1/j3aP/Z+9Rw8WQtW7Cnih5hbn4edAV1QN7y9Y5o0jbgZYn1mQh71kG9tWqhe6HUynz9/5OfPoybNmyjx+x/c6Zzl6/MWuU8AAAAAOENq1aplh/N16tTR9ddfb4f2ZjDjZp5ZZtbBySO8L5Aa6nr/9arnTjnO1wN/bBcW0O/fG9Iz8+MRYf8xnvGQSaNcjM4xryl7lBnfXaha+SqT49eRfXu0cWf2w/7QHo3ZOXTIuXFg26Axd4YcY5fMB14aMeeGlAbJSZns16napElmGLn2Q03711alHPJp14r3Nf2fmSHhBbVOokd5pByOxX6gYjZt5Qx594zMEHa9Fmpg6PUNe4hpecWYoLhcE7X5deYxpaas1pyZUzX8qSfVp2dfdblzbHgd6PxIze4cnCHlWF4XP0RxOZew46yhqsFestnY/2Pmmoq1jtsdddRQrYbuaH7l9HkqEnu0a4c7aqkWG7Gv887XBe7oSSnq73shmAcUm3IgGYN5oG8O9u/aYx2ItGtv1s+SeQhv2Has4VQ9CDfLMZshl+MOY36t9XhLLbjfqXNv6tpv6zVCvQpZgaawcj2H8y7XA3+brhnD20v/Hqued47V0gLeIMq4HpNvVe2tB+QPfba1JbfrFdPkej0xI0ETbq+vbQl/UrdB72tjPssz1b7QasjdhwpXTihKndTnDQAAAABOMxPO//vf/7bD+m7duum6667T+eefb5fKIbgvOoT3BWTqhh93xx0H9VNKeE9V/7F8hpflInqin04/pyp/R+nROSdzkM266I8tg2HgQc0Z+2f17NVPfYZ/qKRgxhzTTtdcEZH4RDPrM5DZCzw3MW7bVVb7v4zU0KtNWaCs/Lu/1piMOtCnWUk6F+TsdH3fi8LWDzVmQUu99LfBumDmayEPFq6iWnU8Wrk25OZoKPtXIT9oW1j4HJC/AGWzQlWrdb6Svt8aVtmloDYmLVaLpxPsmvdvvPOSHu50am4y5CS/5xDbsJ16jXxN4zus0YKkvMr65KD+TXr4hjV6ZfJKd395XK+gMh7VatNFD7w2XsMqfah/h9xIyk3VS65Qi/9+oiU5Psy3huo19Gj7jvDz8W9Yr6SW56u2O11kzI22mKyfvw3fb1DbC93nceSiKD5vAAAAAHC6BcN6UybHPJw2MTHRfkXRIbwviLQftSCjzn2QT7Mmz9e2kJ/7174gpGtlm1udh9VmNzx4hVNyoWoNZT5zb49S8hU21VDXcRE99EIGp555LmqG9uitoV6PZHN87tD1pHqK1lCnZwerR3ZJr6mj3bKjnp/4UEhpjFOoZhc9n01bOUO/jAcR5sn6hynzMQQt9UA2beYM9+iK4K8oYuur6/CXNH/BdM2e+KTGDr5Vva4ICcD9K/XZyvz3WG8xKLtzcIYC9UIuLucS9h35Qbv2uaPZqHZ+yBMsU49GhGF7tCs/pXJOmxqqFaxxbdkfWXrIPGPAHT0pp+37fpKsf2PnPP+xWjxyq1rUbK17BlXXK6M/1i7731eP2nTrIv/MSZqz1i2nlBZQ6o4ftcv01i7XWu07/aBZs1ZmlH9JSZytObl8VnJTq1NPdfryTb3+n8xyLv7dW7WrADemal/QUnOeDSkb0+NPeiXRDZPPjZXX3GzIMXw+eQU6h7Q92v6jX1UrOTdSY8p5tXXTjwUKkxvfPkgdlr2mN+0HwuZxvSIdStbOlMqqZv9D4lUF63X71lxuJNTtogduOqhXho7VnBXWcQbP75D1HXdLP7W4pot+endm5q8JUlbqzUlfq0eP3+T/mQ3lPKq1c6u25tXFv0xLXXPDHk2b+oVS3GNJXTZNk75spxuuzvuXZUXxeQMAAACAM8EE+Bs3brQHM46iRXhfAKn/mabXgxU5zmup9sGMcOuHmvafzDrjsVVDCkpb/+Fd7VfmwZDZDA3d/6APqyO+WitW5T/4LLwqqp1RC/qA/LFNsj/GK1qqViEf+BjkX7lUC9zgo/2DL2n+rKn2sNCEv2PvV9uQ8DJb/uxqcJ8ufoXV7TfCrtcBxdTMrt3MUD9r73TzUMaGLdXm9zfpgede0rMhD3P1pWZ/3Yu2DnSE4nIu59UICZ836LOk7Ov6G7XqN838RcuXSVoRGrqtXqlFGWlkEzUpkpo0rkJ+Tus3ykzLNy5ZFnYjMHXF10pyxxUTWU+7IE7f9/1kbJs5Vu83GaR7fu0GyO3v0bM1Z+qVuW6I2+wOjR/ZWqvHDnTC8K7xGvjaYrdMmEdtHhypXqnT1KerCcrv18SU7ur/hzzKAK2dqp4ZJYSc4fUV1vyq7fTExDsVM/8v6ma216Wv+jw1U2sOO2/Li//LV3XvV5dr9oKQG1JTe0rjXlOiuaFQ6XLdcb9Xb95vbbvbCGdeUcv1HHxKGjtIPbu5593zSX3W6C96wH1+S+Ob+qvD2rHqYi3rNjnbpxhnVa6l7hl0qeaMe19rTECf6/XaqjmD7lc3t8273DtVKT2fcssKeXXFH++Qd6apAd9XT/0zu++7Ry3uf00zHqqhFeOedM/vVvXsP1YLNrtfcrP/x2tq0SPODZQu/T+U+r+kh0OeUZOnZt009Kr1erqntf0e03J9Nkrj+Jf0xPmL9SezrnXcd80KqP/kfN6cPsnPGwAAAACgZCrl9/tPuONnhZS5T6rnRDeIaNZPs8d1CeuBF7b8+icz682mbdC0O5/UVDtg8ajHE5P1QJk31e3ZL5yeiZW6aPzb/dTCBF8pi/VUn8laauZbYuu2Vtc2NZz69hlSpUZ3qt/vTYC/RwseCak7HVNDnTq1Vp2YgHauXaFlGw5m1PU1NXELVt85fNum/nCwV/7Gyf1034duyBrjVdurfqPGEbXEj++qrA7P3eT0St+9UMPvnOqGidb5hvVWX63XM2qkN9HQd0aoqx00+rT02X566kt7gdoPeknD2rs3LcrEKDayxrfLv/RVdRn5hTOR0R4m37hVPS7xFvJY8utHzYn/k15xe8TGNmmnG5uZ9KWpuj7YTrV0UInD79dIE/AZ5c5Xp6tb2scX6khafd0xqKP1+bKuwfAnNWdXjCrUbakWtZxzPr5rtRYs+zHj2vYaaV2bXzvj294dpLvfcQPLcvXV4/dNVcEabdy1X+ZNo3xY89qtGvixM579Z6e4nIv1OXrC+hz91520voP1LrlcHeo7qdiRrSvlv2aEhprv07Gv9UqvsZrj5ncxDS/XAz06qpY1/+8Ji7Ui2Ou3zf2a/3xH56ZEIT9PJ/c5de34WAP/mBkK1rvkevXq2lLnbF+o9/++MuOBwrVuGqEZ97tB/4qpmc/PCPt37HR935EX891b0jbze+Cwro/1PdTTBf03CQAAAAAAnI3oeZ9PKR9Pc4N7S/2b1OMqr2Ku6q2Hm7nzDi3U6x+6tX2rttetN2T+TD51x0rNmrtQ08KGL7Qx48GiNXRNz3aZvYX9e5T4T7POYiWGBPdFrXGPW9U2uFO/T0n/iTzGhZq1LOcezvnjVePmmT+ZWfran9StVz9n6On0huzWZ4Re/1d4rd+YJk0zy7lktMdCLVh9sseTH+ercZvMmwqpG75w22O5ttrBb2W1790l88HFx37MOL7QYc7mkJ7Yxw7aD2BdsWxxxvJZIWG3zuuiDiHPJazXrHXm5+HYVs1x37NiR1H/CqG4nItX7W8PfVh0QNu+DV4X6/i+3aMF65OdReUu1z2DL8/4pYB/89d6ZewLGj4xJLiPaaKhg9zg/iQUyee07vV6+PYaGW207duPNeb5FzTy3czg3rTpE7efXD2b0/N9R1BspcpalrQyo4SPkfKfmZp1qIka5+uh5AAAAAAA4GxHeJ8fqV9r2t+CZQM86nFXN9UrY8ZrqOsfr88oO7Jm5jT3QZ3m5/wvafztTVQ1I7UM5VHVmvXVuFbmT/dNeYg3HrxcjSPWN7322+dVVqawTA34iferR90cykqUq6zGl5yvau5kYdVq21G5leBPTVmtWWOf0OjEkODQOraHB7XMEq5uTDngjp1aLeL/ojtqRrbLXqW4JQxiLumn8aNvUttK2bddTKUaatMwGMgeVOqxyjkExabu//Ua+0o/51cbQW1u1Us3ZAa6QbtOwfkXm3NpdodeGnl9DsfpUb3YzD3EXj1Yb+ewbmxdU55ihLpmlJE5CUX0OW185wvW979deLvZTJvepPETrTY92TsNp+n7Dke920eof9qHuqtnP90Xf7+69bhfo75qqscn3qHG9t8PAAAAAACA3J11ZXNOO/OAvtSwPuWKzSEktYWuH+NV7OmqP33Mp7DDLGftOzJtLYzU1Xr9/hGaZX61ENNEd9zeUkpxSncc37Vey1Zt1bZgb+hfP6T5I9uFB6Gh7ZFLmZ1TxZ/qy6jTHhPrVUw2oVvoOkZO69kK2s5+a/2M3uKn/vNQXM7Ff8g6Tnc8r89F2DmdqjYsws9p2LkV1fcw0qn6vgMAAAAAAKDIEN7jlAp9hkCtW0Zoxh/DS3+E1QzP5hkEAAAAAAAAAHA2omwOTqn9e93nAFh2JX2upM17lHrI5ww7Vuv9OV+7Sy2xsVlKqwAAAAAAAADA2Yie9zil/F++qm7PfhH2MNrsVdYdo8er3yWntywOAAAAAAAAAEQjet7jlIq56h6Nv71+Dg84dcRUaqJ+I/+P4B4AAAAAAAAAXPS8x+mRFtCuDau18/BR7fp+vXaVq69LL6yiCnVaqnFdQnsAAAAAAAAACEV4DwAAAAAAAABAlKFsDgAAAAAAAAAAUYbwHgAAAAAAAACAKEN4DwAAAAAAAABAlCG8BwAAAAAAAAAgyhDeAwAAAAAAAAAQZQjvAQAAAAAAAACIMoT3AAAAAAAAAABEGcJ7AAAAAAAAAACiDOE9AAAAAAAAAABRhvAeAAAAAAAAAIAoQ3gPAAAAAAAAAECUIbwHAAAAAAAAACDKlPL7/Sfc8WLrq2XL3TEAAAAAAAAAwNnsyisuc8eKtxIR3gMAAAAAAAAAUJJQNgcAAAAAAAAAgChTYnrenzjhnEbwFQAAAAAAAABwdihVqlTYa0lQ7MN7E9YHh/T09IxxAAAAAAAAAEDJZwJ7M5QuXTpjvCSE+MU6vA8G9Wlpafrll1/sVzOYED+4HAAAAAAAAABQ8gQDehPalylTxh7Kli1rv5aEAL9Yh/cmpDdhfSAQ0KajezT38Bp9e/RHBdJ/cdcAAAAAAAAAAJRkntJldUn583VDxRZqVL6GPB6PHeCbUL84K7bhvelVb8J76/i10bdbz+36l3rX/JWuqthQ55bxuGsBAAAAAAAAAEqyn9MC+vLwZs3c/T89Vev3auytqZiYmIwyOsVVsQ7vTamc48eP6+U9n6lZhdrqWOUidykAAAAAAAAA4Gyy+MA6rT3ykx6t8Vudc845dgmd4hzeF9vfDYTWuzelckyPewAAAAAAAADA2clkxCYrNplxMD8uzop10R/T+KZ0jqlxT6kcAAAAAAAAADh7mYzYZMUmMy7uwb1RvCv2W0rCRQAAAAAAAAAAFI2SkhkX25r3do/7QEA+n0/xyTOV0Pxud0m4aT8l2Q8rMA8tQN7M3Snz85I7ard15wAAAAAAAABA8RD//VtKiOstr9crj8djP7S2uCr2Pe9zY4J785ACgvv8M21l2sy0HQAAAAAAAADgzCjR4b3pcY/Coe0AAAAAAAAA4Mwp0eE9Pe4Lj7YDAAAAAAAAgDOnRIf3AAAAAAAAAAAUR4T3AAAAAAAAAABEGcJ7AAAAAAAAAACiDOE9AAAAAAAAAABRhvAeAAAAAAAAAIAoQ3gPAAAAAAAAAECUIbwHAAAAAAAAACDKEN4DAAAAAAAAABBlSvn9/hPueLGSnp6uQCAgn8+n+OSZSmh+t7skU/z3b7ljp0bvhnfod+e4E5ZU/15tPrJGH+7eoV3uPJW/RA/HtVDzsmXsSf8ve/XffV/qnZTD9rTRsMY1+mO12qpayp2RdlibUzfp67It1McbsoMQqb6vNXjbenfq1MiuTfNvrd6+brTmdR2m2QOaufOiw8H5o3TPJOnBqY+rU01rxsrp6vlEorPQ1kl//UdfNXWnot7uRI3qN10rCtHWWdoiarifn4v66s2xnVTZnRtN1k+IV9JVCbqrtTsDAAAAAAAAZ5zJhBPiesvr9crj8ah06eLbf52e9yeh5jlVVbdc5tCsUlNdH3eTXmt6pWqZFSpeo8lNr1aXCtUz1mlYoal6179Vj1ezN6FaNW/SC3Vb6JLyIduKra+rK9dW1ZiQeZFDjNfZQJQ6OP9DzVMjPXhz1jDZhJ49ByfqoDt9eq3V3EmbpK43ZYbVrftq9j8SrGG0HrzInRdlTk2bZdMWAAAAAAAAAKIC4f3JcH+zsGvXh/rrKmvYsFEp1rQ3toUeqCbdVKuR6poWPrZWr371nDot+VBzD/8ilSqvdjXa2++9vmpdmRg+Zc983f+JtY413P713/XXzSv1xY5/ONtdtdbtyX9QS+3pDzV2x0Z7TnTaq+X/2SRd1FaXZQmF9yp5izt6JqxcrnnWS/erouvXALk7RW1WLNsCAAAAAAAAODsQ3hcBf+ntWnrcGg79R98cNXO8qlquqS451yl5synlH/pnTCWd492uSXt/VKqZGXOebrJevO4NgJhyNVU1zlqneiUdKP2jlh7br93H3O0e/0V+e600HbWntyvp2BF7TlTavUpJ66TufUPLnZgyKPHqed0wTbSWad103WNPO8Oo+Xud1TLsVeLgzOXOMF0ZhYJMqZvrRilxd8R6E9a6K2Rv/ZeJ0kV9dUOhS50EzyM4mGNwF9nc47GPI3zdt1c6a2TK7hxD1y1om1nsdgmuE9Je2citLUw5nczt5Lw/+xcBuayT+YuB8HPN63qPmr/TnV9wuR1T2LLQXzJY7TZq/tpcP0thbWK9N9mdDwAAAAAAAJwKhPdFoVQplSpthrqqUNbM+FlHfvbKY9ew/1mpv3jklLO31kk5bPfOV1mv6lovnx7ZZwfzsRUu1/MtBurd5jfp4Zo1zCZDthsshm9xp+3lUerg10laoU5qGxYKN9NddmmaYepuJk0tc3vaGR7vVt1ey2ZquNuBtak9H1xntB7sby0LC8A3aWK/N6Rhzjpv9m8kLRidTTActFZJC6Q2V7cqXA11+7jcOv7ucb1pHdPEfpEBvsU6jp7XLVfb4LFfJM17InQ9E1aHnmN4uzh11AvQZobZ55eXOcun9lUbJeqxHEvt5NwWTh38Teo+MnNfs0d20opJC0NuBjhh+2MLQq6RtU9NGpa1/e2bDpnX6a9dZW1rWMjNDHOTIvx6D1CS/auAAls5XY8p8/qYIdhO5rwe25LZhn9tMF0TQo51xaQPM47RbnOrPTOO0druPZPqZZ7rMNntBwAAAAAAAJwqhPdFILbctRpW/1o926y9LomxZqQf0uZDzjJbaNAeGsRbVm2brRe3btR2vymnU0ZVytVVl7q36d1Gbdw1iptgHfXLCv3A1/UfTNcKUy9/auhDY6urUzdrOqKXeJv+92XUa6/c7SY75A4PmTMF6/C3vTwi9M4n57g66a8hD4V19rlJEz+I7PFvgujg8VfXZVc3sl43KTnYodz9dUKb/l3cdZqpbVfrZd1PirwPkG+hD6yt2UptTf3+HLaXW1vs3m5dv0j2cwFCrsfKhfavAbqPDJlXs5NutoP5yPY31zLzgbhNr+pkvyYnO8G5cyyhbZF5LQusTm21WfBh1pspcko5hf4apOnNfaX/rMq8uRFW5sm5HsFjNL9SCD2+jPYFAAAAAAAAThHC+yJQNbaprq7WVL8u71XMiVR9v2Op/hZwF0Y6p6xMvp+h7M9aumeu/vjlaHX6ar7e3XvQ7olfxVvfLqtT7Jx0HXWnR7hUT3EFfojqeYrLMVDNrQ5/fgSPK1GPBUun2MPowvUQ3/mTVrij4bYpudDpfX7l3hZNBzg9/ec9ETzHrOV37JI7lsx1nOGxQvRGD94siIsr3E2VMDU76fF/3CeNdo4n81cA+5S8LuJ4+03XitCbGw3q5PCLDOeZA+HHV11xDdxRAAAAAAAA4BQgvC8CGQ+sXTVD9/97vB7dnaxSWq5dx83Sc1WvQn17PaNWjaqqZUaOH9K39hzT4d6jshW8Oidms6Yn73TK6pQqo1h7afFy8jXli0I2AXi2dfgLI6RMTOgQ0hs/X1pfFvErAffmQNebMnqonzJ5tkWwXI9T4ibjhkU2JXjCSutkDKG/mDgTqqvTWOdYbt4eLONjbuyYXwAU5lidoD7YCx8AAAAAAAA4HQjvi0DGA2uP79aOquVUpoxdsF7vH9zl9KKvcp3ebXGHJjeP12vVa9jvSUndqE+t11r1ernLzHCn3mjZxA339+sb81qs5KemvNs7PsfyMG75mEL1QHd6V2fXozz7OvwFEezVX1Q945vpBlOjP6Mn/2jNMzXts70JkFebFUxB2qLpACfktp8nsG665ro14GteYI69aALtotxWpOC2ndJF0sTROT0DIHem1E9YOaDdifqgEL8yAAAAAAAAAPKL8L4oZPdgWcvu5LlK2HNQ/hNlVeXcqqpbrqK81iqph/6nlzastUvh/6pMeXnPMcvcwVNWOp6sv/+wSKuczRQb+aspH6z/nqiksIfPZjK1yNvYD6MNLddiHpCatXzLipCa5esnOCVssvYoz28d/mAplOwC+urqNCy747LOe+XaggfCuxM1IfKhsGNz6gmfd5vlX95tsX5CaLkZwy2zY13buDrOnMrd7rMfwhv+4FnL7rVaX8A7DNk9qyB4LQts5fTMsjjWcM9/2mqA+8Dayt0e15tXJ+mekOU9J0Q+qyAHrfvqzf7bMksmjZZutm++AAAAAAAAAKdGKb/ff8IdL1bS09MVCATk8/kUnzxTCc3vdpdkiv/+LXfs1Eg/ekgBn1SmciWV9bgzI5zw/6xfUqvo1zXPU6yOa9uuLdpSvpw85cpkLA+kHlfNSs3U4twy8v/8oz4/+rM8sTHmnoArTb/sTbX+91x5qp9z2u64ZNemOTPh+jBNVF+9mWMInckExGH10U2v87D3rdXb2dSTb9N/tB43YawJaZ9IVJuunaQFiRn1400Yfldkj3J33WyXZeGeh+nBbwt/2GpOx5W57eD7Qx9Ya25sjNI9blgfPIbgvCyytIUjxzbbnahRpn576ANrcziOPNvC2lbiBz9potWm4SLbwZHlmIyQ43CWR7w3eO2C19IInoMzZR3faMVNz//nCQAAAAAAADBMJpwQ11ter1cej0elSxff/uuE96dL+gmZho7snZ/hhLXcXqFUSGh/ZhUovHfD17h8BeRFILsAOAd2gLwlukJgJ7ivFx6sGwU4r8KIxrYAAAAAAAAAikpJCu8pm3O6ZFNWJ0yw9E6UBPcFdfI15U+V/NThP/12bzc97iPL8+xV4nTT4z2v0kOFFZ1tAQAAAAAAACArwnucPLd+e9415U8/p3b6qQrDC888CPavXU39/JD669e5ZWL+kbU8TVGI1rYAAAAAAAAAkBVlc5CjgtW8BwAAAAAAAIAzi7I5AAAAAAAAAADglCG8BwAAAAAAAAAgyhDeAwAAAAAAAAAQZUp0eH9uGY87hoKi7QAAAAAAAADgzCnR4f1VFRu6Yygo2g4AAAAAAAAAzpwSHd7fUbutOla5iF7kBWDayrSZaTsAAAAAAAAAwJlRyu/3n3DHi5X09HQFAgH5fD7FJ89UQvO73SUAAAAAAAAAgLNR/PdvKSGut7xerzwej0qXLr7913lgLQAAAAAAAAAAUYbwHgAAAAAAAACAKEN4DwAAAAAAAABAlCG8BwAAAAAAAAAgypSMB9bumGHPO1EszwQAAAAAAAAAcLJKlXJeE+r2KREPrC324X1qaqrid8zUvMsGuUsAAAAAAAAAAGej7stfU0Ld3oqNjS324X2JKJtzIi3dHQMAAAAAAAAAnK1KUlZc7MP7E6ZWzgnCewAAAAAAAAA4651IdzLjEoAH1gIAAAAAAAAAEGUI7wEAAAAAAAAAiDKE9wAAAAAAAAAARBnCewAAAAAAAAAAogzhPQAAAAAAAAAAUYbwHgAAAAAAAACAKEN4DwAAAAAAAKBEO3HiRNiQnp7OcAaGyOuA3JXy+/3FspXMxQ4EAjpy5Ijit76r+Vc86i4BAAAAAAAAAIcJiXfu3KmvvvhCWzZv0S+//OIuwZlQtmxZNWjYQFe2a6c6deqoVKlS7pKi0W3Zy0qof7sqVKggj8ej0qWLb/91et4DAAAAAAAAKJHs4P7HH/XuO9O0Yf0GgvsoYK6BuRbmmphrQw/8nNHzHgAAAAAAAECJlJaWpo8+mK0NGzbokksv1dUdfyev1+suxZng8/n0n8Wf6ttvvlGTJk104809VaZMGXfpyaPnPQAAAAAAAABEMdOj23QA3rJliz1NcB8dzDUw18Iw1yZYCx9ZEd4DAAAAAAAAKJFMMBwslUNwHz2C18JcG3ONkD3CewAAAAAAAAAlEj26ox/XKGeE9wAAAAAAAABKHELh4oNrlT3CewAAAAAAAAAAogzhPQAAAAAAAAAAUYbwHgAAAAAAAACAKEN4DwAAAAAAAACF9cPnmjr+zeyHfye7KxXOmjcH6r67BmrWd+4MnFUI73OQ+u38sC/arDmfa82mg+5SAAAAAAAAALAcWK9pcz7Jflhzknli6m5t/HG39gfMxG4teOgW/e6aN7XGXljEVrxpbfsWDZ+z252BM43wPgf+H5LCvmivj39FA/vfq7tHLVOqu050OsVfYgAAAAAAAACZLrlT82e/ZQ1j9HAjM6O+Hp5gpq3hvpb2KmHS3Nd8aHGfs517LnFn5JM/1afUQ3bij2KM8D4Pbe4Z43zRpj+tfhdK2z59XR997y40jpkvgk/+3L50ocv8zvqpfnc6G+bLFbo9+8uW3fppgTy3FcneVmoeX9zQfZvtH3MnAAAAAAAAAIQr41FsJa81lFNMjJkRoxh72hrKBTvavqhZc17RwG636PUP3lSXa27R4NnBHu7WOv2tdbq+qTURGeOaN+5Wt553681vrfFXBmqMnUt+ooHW+3/30CdKsdcK8ePnGtP3NnXpYd53m37XbahmfedzlkX2rN/1iYab7byy2hkf9ok9O2n8QHu911fYkziDCO/zEFOunPNFq9VSna+tb83xadtO6wP/3Tvq2dX6cHdzvkBdutymp+a7H3z3izB4/HxNe9Ra9qj1RdqbqJHWl/N3XZ31u3W9TfeNXy0ndw9+ie/VwH7Ol8tsb/ATf7W/0PaXzaz/enB96/v07xd1X7fbMrf13OfaZX25c/wSh35xe1ivfV/U0h/Ngmz+AbH+MfB/N1ODzb7N9t3jnvpf7tYBAAAAAAAABbdMr4//XBtjaqpaw5bqas1Z8b+NToWPY1u1cZP1eklT1StjZmSvWotOalvJjMWpU49rdcdv4mTfK8hwUImvvKIFu7zqet/Den5gJ7VI26rX/zpf29w1clQuTle0jbNHa13cSXdY229ZxZ7EGUR4XwBH9u+1X6tV9UqxDXTdHf01duRjGvt4b3WqFNDS1z8OK1WzYs47mvqdX7XP80jWF7Nlj3v0vFl/ZH/1uiCgjXNmaKmzSVdAFZqZL8cVahET0Iqk1dKvrS+iO71x9jwtO2StlpKoiS8s07YLrtUT1vaGXuPVxiUTNW2JL4cvsfvFTTlfdwy19j/wN6q9a5lGvvF5SAmgkH9APBv0/jOztSKtvrqabZiha2vVOtc6DwAAAAAAAAAFVF8PT/m7Fs4er16/qq/Gza1Z367XNtPTfsNqLbBe2l7RWLFm1RzUuuZGtT/fjLXUjQPvUb9eLcPXP7RaX5ne8o26645ev1HbHveobztreu93WrPLXiNnlVqqx01OiZ/6v71R/aztt7/QnsQZRHifh/1bVmtF0kolzZmkV+b4pJjWamk64F/4G+sL0kFNmtVRtaqVVc18UyLL11wzRAsXvqe3nuqkquYLcHcntWzWRHUqVlW185xVjof9FOZ8tb/D+uINfNj5YulCdb3PTA/RA13M9AZt/dHazerVWmpNte9+va6wtteh+7VqoYAWrPoh+y/xsfVabb64ba5V17ZN1OR3f1BX68vn/8L6B8Ksagv5B+RivwJuqZxqjdtY++mtvg88rK4XO/MAAAAAAAAAFESMYsq5o6qpFpfXlPwrtXG7tO27lfLLq+ZNrHkn41iq7AI5DeNUy57hUQU73d+gbTvtGShmCO/zsHHBJLt8zfDxiVpjfbF6/eVBta9qfbdWvOmWrRmouwdP0iy7BE2Ecl7FBH/q8uMneqqHU+amz0N/zaNmVPCLFcmn1J+l1JQ99lTiSwOdsjkPzbR7/GfsK9KhA7JvriVNUh+zfs/H9foP1nTY72pC/wFpqU5311esf6umjfmr7ut3t7r0eFaJ2Z0jAAAAAAAAgAKp17y1YrRby1Zv1fY1u6WY9mrT1F1YWOVi5TWvm5OdLFABHbHLbjRRvTr2DFuuz+5EVCG8z0PGA2utYeH88XqgQ2VrbkAr/vmJNvpr6oEJf9en/x6voeanLrnY9unHWnpM6vqXt6z1/67x3dwFhRATa38N1f6BlzOOzQyzs3t6tRH84l58p94KWX/+rDvVwl4hq3q9rPNe8JZmvPqYnugWJx1brb/9Y4O7FAAAAAAAAEChNWyq9tZL0kev6P3/WiN51Lt3nKNz7HWS9P5Lb2rqv5PtuRkqtdSVbazXTfM0bdbnSpr1iiZ9ak1Xv1gtTFf8OuerrfWy4oNJen289f43EhXWv9jatunru+KTaZo6fr7WmPLdOKMI7/OQ8cBaa8js2e5xnxydqp9Wr9SKTz/XCrtX+mptND3as3GOtR0jZYu1flKilnxrpn7Qxg3u054LILaJ9YWzXpd+8KZmfbpSG1Ys1YJpM7Vyu1mazZe4Un21NDWqvpunN99bqtVrV2rJBzM164ucutIfVNIbk6wv8EwtWLxC29y6/BXKl3dGAAAAAAAAABRepcZqYzoDb0+2K2rkVe/eUVlXdL/CWu+gli74RNNWhj1M01JZnR5+WF1r+bTgjVc0/I1l+qlSaz38TDfVM4trtdUNv6ss7V2tWXM+0Ucbjqmq/T5Xy/a6p5ZH/k3LNG3OEm3LfFgmzhDC+0Jq+ftuahzj05zX/6rBo2ZrV9WailGyln27210jXK1216p9Odl3vAY/8aZWlomzvmgBzVmZQ9qfmws66uG+9RVrfdGmjbe2N+pNvb5gqT7bfNBamN2XOE5dH+qpNuWsebPf1PAnXtGYGYn6x9LNSrE3mJVv0xLrS2q93wxJyYqpda0e7uE8cRoAAAAAAABApJrq+qqp0jFKXZ2i85bs5hnO/LfuNnXuc6533+Jh896/6wHTo94S+7shdrWM+bPf06dDWzszQ53/Gw2d/p4WzrHWmWO9zn5MPZo6VTxMbtj28Sn6dL61bP7fNX/6eM2wtv3pw241jzJN1Mu811TsWDBGXe3nauJMKuX3+0+448VKenq6AoGAjhw5ovit72r+FY+6S06jtIBSU/12GRu7V77fp1TryxYbVks+ROT6ZtrvUWxGrfkCcrenGGufkdswx3IsRrGVPO4Mh/+QT9YRZJmfrdy2DwAAAAAAAEQxkx/6/X69NOZFe/qxJ5+wX6OHT0uH362n/ttJYxf2V5uMqh9nh7+OGGm//mnoEMXExKh06aLpZ95t2ctKqH+7KlSoII/HU2TbPRPoeX8yynjCy+mYkDun4N6IXN9Mn0wo7m4v222YY8kmoI+xSwDlI7g3cts+AAAAAAAAgMI7tlorTL37X7dUk7MsuEf+EN4DAAAAAAAAwOlW7go9bMrWPP+bfNS7x9mI8B4AAAAAAAAAgChDeA8AAAAAAAAAQJQhvAcAAAAAAABQ4pQqVcp+LVu2rP3q8/nsV5x5wWsRvDbBa4VwhPcAAAAAAAAASiQTCl/YoIE9/p/FnxLgRwFzDcy1MMy1IbjPWSm/33/CHS9W0tPTFQgEdOTIEcVvfVfzr3jUXQIAAAAAAADgbHfixAn98ssv2rFjhz54f5Y9juhhet3ffGsv1a1b1x4vqhC/27KXlVD/dlWoUEEej0elSxff/uv0vAcAAAAAAABQ4pgw2AS3tWvXVs9bblajxo0zyrTgzDHXwFwLc03MtTHXiN732aPnPQAAAAAAAIASyfS+T0tLs3NEM5hxMw9njgnqy5QpY/eKN4MZL8rwviT1vCe8BwAAAAAAAFBimbDeZInBgfD+zAr+IiI4FHWve8L7KEB4DwAAAAAAACA/IgN7AvwzIzKoL+rg3qDmPQAAAAAAAAAUEyYkDh1Ce34znL4h8jogd4T3AAAAAAAAAABEGcJ7AAAAAAAAAACiDOE9AAAAAAAAAABRhvAeAAAAAAAAAIAoQ3gPAAAAAAAAAECUIbwHAAAAAAAAACDKlPL7/Sfc8WIlPT1dgUBAqampunvre5rYsLd++SWgEyeK5ekAAAAAAAAAAAqpVKlSKlvWowc3z9Rb9W9TbGysPB6PSpcuvv3XS0R4H79jpqY0ud2eBwAAAAAAAAA4+5ig/t4N7yqhbm/C+zMpGN77fD7F75ihqc3vptc9AAAAAAAAAJylTO/7ft+/pYS6feT1egnvz5Sw8D55phKa3+0uAQAAAAAAAACcjeJNeB/Xu0SE9zywFgAAAAAAAACAKEN4DwAAAAAAAABAlCG8BwAAAAAAAAAgyhDeAwAAAAAAAAAQZQjvAQAAAAAAAACIMoT3AAAAAAAAAABEGcJ7AAAAAAAAAACiDOE9AAAAAAAAAABRhvAeAAAAAAAAAIAoQ3gPAAAAAAAAAECUIbwHAAAAAAAAACDKEN4DAAAAAAAAABBlCO8BAAAAAAAAAIgyhPcAAAAAAAAAAEQZwnsAAAAAAAAAAKIM4T0AAAAAAAAAAFGG8B4AAAAAAAAAgChDeA8AAAAAAAAAQJQhvAcAAAAAAAAAIMoQ3gMAAAAAAAAAEGUI7wEAAAAAAAAAiDKE9wAAAAAAAAAARBnCewAAAAAAAAAAogzhPQAAAAAAAAAAUYbwHgAAAAAAAACAKEN4DwAAAAAAAABAlCG8BwAAAAAAAAAgyhDeAwAAAAAAAAAQZQjvAQAAAAAAAACIMoT3AAAAAAAAAABEGcJ7AAAAAAAAAACiDOE9AAAAAAAAAABRhvA+Bwfnj1LP6+KtYZQSd7szLc788HkAAJyM9RPM35vgcJ/u6Tdaby/aroC7/LTYsVDP3Hifhs7Y7s4oqIC+G3efet48XisOu7MAAAAAAEChEd7naZOmvL389AYoAICzUHV1f+hRPd7/WrWtuEnzxj2tIZPWnr6/P7G11fSiRmrTpJI7Iy+HlPz1KiUfcCflUZUmzdT24maq4XVnAQAAAACAQiO8z1V1tbmovAKfTdPcde4sAABOiUqKu7SV2nS7SfeOHaUHL5KS509X4g538alWpZX6PD9MfS7LZ3i/bYleefZlJW51py1xXR/V0Kc7Ka6MOwMAAAAAABQa4X2uKqltv1vVVoc0Y0qiDrpzQwU2JmrcgwPU2y118PDwD7XF5yyzS+z0mamliyfrsZut5TcO0Kjpa5X8eYIzba3/2Ogk7Ulz1pdvkz559nHdmc22AABnkTLVdVmnRtbITq3beNSZl8vfiD3m70yf+6z58erdZ5jGzHJL7kS8554HP9R6v/v36d75Wr/mQ40y75uwVtqdqFHWeqPm77W36ZSJG69580P/hm1ytrstUc8MtvZvjc57wmx7utZb4075H2fcMH8jp/R3jqvnzY9ozJRVOuj+zcvyNzLybyIAAAAAAGc5wvu8nNdBPXtWktZ9qLkrsxYv8JznVc2LbtKwpx/VM/deJv+q+Rrz/iZ3qeXwQk34yKs/DItX95pHtWLGaD08xacOg+J1cwNp/WdTlbjGrHhISf83WlO2XKB7XxutN1/rq5Y75+uxl5NEfg8AZ5/KtevZrz6f+SuQy9+Iw0l6b2yS1te/Vo9bf4uG3dZMTevXlif4nq99urhPvJ55pJvatm+kBjH2ZiXr/U8/8Yn21L9M97at486MtFzv/cv5G3ZzXMD6G/ay5pq/WRUbq1OH6vYabftaf/+e7qA4eyrEgSRNGDZdnxxrpXuH3a8Hf1NJy+e8rNFzdrorWDL+Rt6vPi3M38TJmvsVheoAAAAAADAI7/Ohwa136NqYo5o35RNFVi84uGWndm+Zr3HPvqxnpiRpjzVvz7HQ4MGjG+7tq/aXd9AN15lelFL3hwbq2t92UJ+7r7SmAtqyba90eK2Sllvv25ekcYOG6Z5BCfpkn7X0q01Ktt8FADib7Nm20X71er25/43wNtTFLTzSqk804YOvtKdiF3W6zJoOvue3d+iRvh10ceduurdPK+uvUqZOg8fplefv17U5lsqprruHOH/D+vTrYE0f1fot1t+sKhfo4gud99S4qJUuvvwCRZa59638Skv90rX3Wtv/bVt1GtRTf7Dmr/9ybcgv2YJ/I9vq5j5m+9Z5H8jud24AAAAAAJx9CO/zw3uZbunXSNo2X4n/DYk9Difprafma2mZDnpm+huaPbWv2riLMtVTjZruaFCw1UuHRiiuy+P1+owJeidjuFVN3UUAgLNE2l59t3S7NdJMl7Uu78wzsvsbUaa6Oj0/Qa+P7asbzt2st0Y/rnuez8+vtuqpQeOQbWfLp9Rj7ugpkc3fSAAAAAAAYCO8z6fKXW9Vn/MCWrp8rTsnlF8HN67V0o+W6Dt3ToFVbKa2pqfk1x/qg0WrtGXdJm1ZlqjEdW6tYwBACbdTSTOma8akBI2793FNXOdRgz43qX0Va1FufyP2LdGMCUuUfLiyLry+kzpVlAKHfQpUvEAXmco7n03TuOnW36dF8zXlkZkZ9ejz56g+mJCgxEWJenvqEmu6vJo2cMrlBK3/0mw7SesPuzNc3tZXqn2M9MmUyfrksyQlvjZb/7TmN72qmSo7qwAAAAAAgFwQ3udXmUa64d62YeUGVLGVuvdppMpbFmrU85O1vHpvDfitu6zAKqntn5/Qg7/1avn0yXrm2Zc1aqrpOZlN73wAQAl0VCsWJeqD+V/ph4rNdNfTozSmr1NuLde/ETGV7eeyjDbl256draQqbTX0kU6qrDq69rlH1aeV9N2MBD0zbr5Wl6sucy8g/y7QH1r7lTh5uuYle9S+3591QwtnSeWON6lPXY/WL0iwjuUrHfA78zNYxzFgdF9d612rt0ZP1sTPD+myHo9qWI+c6usDAAAAAIBQpfx+/wl3vFhJT09XIBCwH+QXnzxTCc3vdpcAAICTdXD+KN0zSXpw6uPqRGkbAAAAAEAxEf/9W0qI620/Q87j8ah06eLbf52e9wAAAAAAAAAARBnCewAAAAAAAAAAogzhPQAAyKJyt8c1+x+UzAEAAAAA4EwhvAcAAAAAAAAAIMoQ3gMAAAAAAAAAEGUI7wEAAAAAAAAAiDKE9wAAAAAAAAAARBnCewAAAAAAAAAAogzhPQAAAAAAAAAAUYbwHgAAAAAAAACAKEN4DwAAAAAAAABAlCG8BwAAAAAAAAAgyhDeAwAAAAAAAAAQZQjvAQAAAAAAAACIMoT3AAAAAAAAAABEmVJ+v/+EO16spKenKxAIyOfzKT55phKa3+0uKRpLPv3SHQMAAAAAAAAAnAodfneVO1Y04r9/SwlxveX1euXxeFS6dPHtv054DwAAAAAAAAAoEUpSeE/ZHAAAAAAAAAAAogzhPQAAAAAAAAAAUYbwHgAAAAAAAACAKEN4DwAAAAAAAABAlCG8BwAAAAAAAAAgyhDeAwAAAAAAAAAQZQjvAQAAAAAAAACIMoT3AAAAAAAAAABEGcJ7AAAAAAAAAACiDOE9AAAAAAAAAABRhvAeAAAAAAAAAIAoQ3gPAAAAAAAAAECUIbwHAAAAAAAAACDKEN4DAAAAAAAAABBlCO9xRsQsn6qKU5crxp3Ot4PLVWHgVJU/6E4DAAAAAAAAQAlEeA/LNlX4ene+g/TQD03Zo4EsH6KyR4+pbLo7kYP0hl0UuKaJIlcLbstst4w7HlTmeN7bBQBEgcNJGjc4UdxnBQAAAACg8AjvS6iA76h8h48qkObOyEa5z6ap8japzNd/V/lbp+lcd362fviXKg6crApvvSDv8iMqnbJKFZ57ROWHDVXsq3NV7qBUNvlzd95wlX/oEVX8ZGt4T/mQ8dKbF8rz7w3WB/CIyk+11p08zXrvvxRzfKu1vSft7XqfmypvcsB64zGVmzNO3sHWdp+aplL2AQEAopVv2RItdccBAAAAAEDhEN6XSHu15KkBurPPAL23yp2VxSF5Vv1L5zT7vaqNnifd1kqBQ4d0zs/u4hycuPgm+ZtVUMzXf1epq4Yqdfzz+qXqpyq7Yb88336gUs3u17Hx4+S/3n1DfpWLU1q/K6XVi1W66i3ONq7arzLf/qjSKd+r7L9jlPb4OB1+7g6dcN8CACXGyunqaXqq+7Yr8flh6n1dvB6YusldKB38eqbG9L1PPa35d/YdrQ+WH3KXBB1V8vzJeuzmeGud+3TPg5O1dMdOJQ6O19sr3VWsvw1metT8ve500Fq9bW03cz1L2l59N2W0Hna39/Dwmfpun7vMSDuk76a/rMf6OMfU8+ZH9MyziUr2H9V3rw7TPePWSuum6x6zLHLbAAAAAAAgXwjv88v0YA/txZ4WsHu2+46505GCy83gM73HC8nvbsPvTkfITw/77FXS4UFTdHSUVGrBKunlXqpYu54qzdvtLs/OhfrlsiY6Xv6ISu88Is0Zo9iBw1U2ySxLVSnrrScaxKkwZ3uixa90NK6CtNc6lqSpKjfwEcXM+dFZeGi/Sqm+0mtb43xiAZRUhzfp789PVvKvBmrSjAl6sW8je7Zv8cvq//xmXfzEGM2c94ZeHXyBVox8WjNWZf5ru2f+yxoydZ86jBxnrTNBrw6/ROuefkZvb3FXKJBDSnr2cY3a2EwPT3lDsz8aowcbr9WowdO13v2bt2fOaD2zsp7+OG6CZlvH9M6EP6nn1fVUJaa8Ln5otCb1t479or568x8Jmm0Nd7V23gcAAAAAAPKPKDQHB+ePcnoTjlyoFVNG6Z6bRynR7nV4VFumP607u99n92y/8+Z43fnIh9ris98m01sxafTjmcvN0Mv0TLTeb+fiTs/H8J6ITq/HzHUsZjum9+WN7jZuvE9Dn0/SHjekD6z5UKP63KfevZzlvbvHq3efl5W0z2x/mCauc9ab90ROvR53q/Kfu6v81KZKe7SD9Og8HTh6UHt61XSX56aCTpjV/vCg3UP+8PgxOvareva8UluS5UkPqFQwU6pcTSe0SqX3SGUCecf66VVbSW166/irZrvjdPT39ZVeyWxjq0r/FFDZ4ydxIwQAotnO5fJ1HKa7Ol+gyhXLy2s/iGST/jlllS57cKCuvaiSPGU8qty6t/7YNaAPPrDWN6ukrdU/p24KW8dbt63uHdxR3hxu/OZq3T/19vJGGjC8mxpU8UgxldT0rjt0sz9R//zqqL3KgV07VeOiVmpQ01pu9lfzAl3820by2ksBAAAAAEBRILzPy1czNWrOJh10A5DAV9P02Izt8p3XTN27ddK1jT3ybZyvx15OskOUPXPGacxnO61xj5pe3kE3d2mmOOetBWJv5/O9UoPLdHO3DmpfU9ry+WSNsvZtwpy5I+drxeGAvFWqq0EdZ/D+XNmajpH3vOqq7D59Nrjcmh2hpo71G6mjX72mff1u0YmX/6XyeZTMCRW4+Aad+GKi3UO+4sDnVO77Y868lZNV7qHn5PnKXdHaT9pvq6n0q4/I+/qiPOvV+5v8SieSZ+ocUzPf2nb5pT9KVZsore1+lRk1VOVf+Qc17wGUUJepw5WV3HHX7m1af/gCtWkRPr9mw0bSd5uUbCb27VSyv5HatIp4b4PGauOOFsTBjZu1p8ElalrFnWGUqaO4xlLShm32ZIP2XRS7YLSeeTVR63dyUxUAAAAAgFOB8D4vdTvpkeef1ZsfPa5ONY9q+T+T7LIw3R8aprv699W9z9+va63pwFdrtSXtqLZ8u9N+W9tHxuivT8erz0PdChGebNKSD8x2LtC9wweqT/94PfJ0NzWw5iQvW6s9vn3ac9isd5kefG2UxkwZbQ9vfhSvi8tUUtvhQ3WbWdnSabCzrHsLZzrU8aaX60isNdLwDh3aM1IHc3ti7YW/1+Hxv1cw3//lgt/pyF/H6OjoMfKNH6EjLctlznt5hPwd3BVVTsdueVK+sdZ6Tz1pbaOfjlaW/Jf10+F+l8mvCjrab5yOXFbBWb1yKx15apy13ed11PTq73i+NdNap6+7jb+OyNgGAJQsXnnLuaNBu3/Sd9quifc6v6IKDneOXWX9Q+qus/MnrXBHw5Qrryz3bfNh94/bpC0z9UDI/npeN0Bjllt/69xff3la9daYSY+qvZI0esB9uvORBC3d6PTKBwAAAAAARYPwPi8XX6b2rS5we7L75LNrFHi0ZMIwDb3XGh6apqVmlg5ay4LLpRrnRfSALBBTL9+8/qR5T7v7efYT7TCz9h1QqreO4s4zE8udBxjeOEBDh59ccHLchPgF5tEv5T1hjwKw53nc0RBp50Sul7tfypfTL+54UEG3AQDFXs3auliN9OBUp3Z8+NBXTc06dWpnf5P42NGMfD9XEevVPL9eWL36sGFAM3ctS81m6vTQ43rzg9EaetFWTRj2spbm9tgUAAAAAABQIIT3hRLQwd17tWWnGQ45NYdVXVUq2iN5iFFMGXc0TwEl2/uwht1HnQfB1qmuqrpA3ccO04NdmqlBRY/9UNstq5Zo3CPjtfSA/cYz7udrx+nwtfXdKQBAodSsp6YVt2lLbjdnz6ujuJhNWr8uYp0tG7PtkZ/lAecR61Vu3FA1tmzKfJZLXspU18X9B+reOOs9zo/PAAAAAABAESC8L5DM4P3a4W9E9Eg0PSAzl+/Zd8gZyaKSatRzxn7YttcZyUaM3dO/uu6dGLoPaxjbSXbFmPNMj8dhGjPDOo6PHtdddczMtdqy1bwCAEqGRvrDvc2UOPb/NOOz7Tp4+Kh81rBn3RJ9sthNystYfw961VHi1KlKXLdXgWMB+Xas0owpixV+P7e6mraupO8++lArdhxVwG/WS9KUSc7vxzJc9AfddfFyjf7LdK3Ystfen+/wTm1ZNF9JTsl7rZ8xXp98bR3PMWvCbx3P1wuVuKWOatq/CpMqx9WTZ12StX5ASgtkvWEAAAAAAADyVMrv959wx4uV9PR0BQIBu1RNfPJMJTS/211SNA7OH6V7Jm2Sug4LKxOwZ/bjemDqTimmvBqc53XnWhpcr8eHd5A/uFwexdWprJg0n3bYveZN2QNTNz9k28FtHDuoLQdMv/rgOgF9N3aAnllszStXSQ1Cnzb7m/s05i7pg7te1rKY4P792m3/AiDz/StG36dRn1lHUbG66sZeoJ7PD1RbN1QBAESZldPV8wnpr8FSOBEOLv9Qb72ZqKRt5u+JR5VrNlKHe+N115XV3TWOasusyfrbrFVaf8xaXu8y3T38Sm3p/7I0MkF3tXZXS9urpLHjNOWrnTrot9ZrcaUGDOqiA6MfV3K/0PUO6bsZUzXjH2u1/rD1t8j8vbroV+rzSLzamL9jXyVoypT/abn9983sr5lu6X+/rm1V3t2AdTzTX9ao2Zt0UOXVZ+QE3ZzNs1cAAAAAAChq8d+/pYS43vJ6vfJ4PCpduvj2Xye8z0FO4b0dfIweo3Gf73XK2Ng8qnx5X419uoMq+7brk+dHaspKd2k5j7ymF2RIeC/fWs0Y9LI+2O2s461bR1V27FRy2DqbNO/x0Xp7Y+Ze7BsCvYbpFRPe9xmtGSZQCYopr/Z9/6wBPS+w1pICq2bqsacXaotdyNj04B+ta90e/wCAs8FavX3d6PDwHgAAAACAEo7wPgqc6vA+T/6j8v1sRjzymrrzkY5ZywNm2SY7PJkXGsy7Ar6j8pcuL285d0Z27O1Yr2WsbXkj9pNmzt8J8GO85eWJrKUfXH6utY+QzvsAgLMB4T0AAAAA4OxTksJ7at4XVkx5eSuaIZvg3iiXyzKXx5tHcG/Y27GGyODeMIG+fQzZBPdGcDnBPQAAAAAAAAAUK4T3AAAAAAAAAABEGcL7U66OOj39qJ55+iZdXNGdBQDAKddMd/2DkjkAAAAAABRXhPenXCXFXd5KF1/eTDXyKpEDAAAAAAAAAICF8B4AAAAAAAAAgChDeA8AAAAAAAAAQJQhvAcAAAAAAAAAIMoQ3gMAAAAAAAAAEGUI7wEAAAAAAAAAiDKE9wAAAAAAAAAARBnCewAAAAAAAAAAogzhPQAAAAAAAAAAUYbwHgAAAAAAAACAKEN4DwAAAAAAAABAlCG8BwAAAAAAAAAgyhDeAwAAAAAAAAAQZQjvAQAAAAAAAACIMoT3AAAAAAAAAABEGcL7gji0Tv+a/K6+3u9OnxE+rfv7FH3weYo7DQAAAAAAAAAoaQjv88u3RvPfWSp16KHLq7nz1szVpNHv6OtD7nRhrf9YU/K9Ha8ubFpVB5IW6dvj7iwAAAAAAAAAQIlCeJ8f6T9p6fQl0m9v0++bed2Z0o/bd0qV6qpBJXdGIf24ZYfSCrCdc1pdrsbn/KTt690ZAAAAAAAAAIAShfA+H/Yt/qfWVbpKnVplBvdSirYnH1cZT4q+mjJek0aP05SpS7Q73V3s36s1s9/RlBfHadKL4/Xu/HU66i6S7wctfW+K/Z5Jr83W1z9Z26lVV+dZi7bMtbY19Usdcda01l2hj16cov9sdadtdVW9unR4z153GgAAAAAAAABQkhDe5yV9nVasTlPjqy5ReXeW7fhW7TognVPtIl1910Dde+NFKrtvlb7daC0zPfXffldfp12i3g89Yi1rpLS1n+g/a8yyTfrX3+ZqU9nLdfsj1rJrvTq4T6p1YSN7s+fXNql8ipxY/rg2frJMR1pcq6vr2zNch+U7KpU59xx3GgAAAAAAAABQkhDe52XjJm0rU1+NL3Cngzbt0G7V1iXXtlCFGKmM9xyVcRcd/HyR1vga6Tc3X+Isu7C2qljz0wLSkS+/1JYTIcvSf9Evqqqa9Zz3nhNXQ+X9Kdpn6t+vX6TPdzVSpy51nYUZ9ujg4bKqWr2iOw0AAFat/MYdAwAAAACg+CO8z8O+HXuUVr2Gzneng5x699Z8t/P7wU07dDSmvi5sLO3alSKdV0cXBFt3/Q7tMgF9Xet9O61lteqqsbssS737WlVVRcd1/NBPWvqfn3ThdZ11fuRV2vqDflR9NWrqTgMAAAAAAAAAShTC+/woXdYdCXLq3Uu/6LhfStv+pf69MkWVf3WVHcrHnGOtf2iPdlvLdGid/rV4k8o2u0qXV7PWNTXxD6XYtfHT9nytrzdk1ru3la6jypV8+vHfi/TDBZHlcgyfvv18jWJaXqEG7hwAAAAAAAAAQMlCeJ+HChW90v492u1O2+x691XVoN4e/evVcZrywTqV/+2d6v2bqvbiBtdco8Yxm7Rg3DhNevNLHb+sp+7s5tS0b9GhjSr7vtVHL43XzKWHZHL+YL17R3XVOk86eKx2NuVypKPffKIVxy7RNR2ru3MAAAAAAAAAACVNKb/ff8IdL1bS09MVCATk8/kUnzxTCc3vdpcUseMr9NFry+Tt9oB+fxrK1KQd+FYLpi9X5Z791L6OO9N15JvZ+uAz6co/9tRFXncmAACwmZr3rVpf6k4BAAAAAM5G8d+/pYS43vJ6vfJ4PCpduvj2X6fnfV7OaaP2v/Jq76YflObOOiX2f6mZo8dpynvrVLnrrVmCe7N84X+9+g3BPQCUOAHfUfkORwym9NoZ4NuySt99vV0+dzpXaYGsx5rdvAgF2kdROua0bSDyD7p7zFnm52HP4ulK2uZOZGunkmavPf3nCQAAAAAoEQjv8+G8q+/U7dddqDLu9ClR7Sr1HvaI+g+4Ve0bZpPOW8tvvvdaNSa4B4ASZq+WPDVAd/YJH8Yt3OsuP72S//mynnl2iZLd6VztW6Jx1rE+M3unO8PyzXT7+N/7OuDOyKpA+yhC66cO0JD7R2nuOneGa8+ckXps0FC9t8qdkU8H1iZqfYo7ka1DWv/lTuXcEgAAAAAA5IzwHgCAaNDgJo2ZMUHvuMMjXfJ+tondY/+YOxEh4AuJjE3P8vysl4NATr3Sa9ZT04rSlrWZveiTN6y1/reRGjT2ODMK2as9g/3+oou/23a+WCu+3OROGTu14j919IdrI3/yZs47h/36c/hlgTnWM/SLCQAAAABAyUN4DwBANIgpr6oVy8sbHGKk5BmPq+d1o7X0gORb/LJ6X/e4PtkmHVz0su68Ll69ew3QnTfH684nluigtYmD80dZ6w/Q0H73WcvuU8+bn9aYYQPUu/t99noPT1hr9wJ31rtP9/TJXG/euqxBdWDdfD1jva93H2cbYxZE/hqgkZpeYb18t8ntRX9UyWutdSo21IU1Ny8bwT4AAECYSURBVOkDa/s9zb7N+28epg9WZd2HcyyjlGg/GX6vEgfHq6d1nPayz8Zr6M3m/dZ2bhymGSuP2vNPSutfqc3y/2lL8GbCju+UdFEHtYl1py2BldP1WN9Reuu9qRrV9/HM/abt1dInHtFjz7+veZNe1tufOrPNeW+ZPkpDh0/VvHFP6+EnErWnsDcrAAAAAABwEd4DABANtnyoUfcO01AzPO+E8XE9+qp7xbV67+2Z+mDKKlXp2led6kmVr+qnV90e+n/tVV2+lUu13A6/Da9a3vqo/vp0F7U5tl1JMdfq8eeH6ZHfllfygk+0/LC7mjxqa6/XTW3Stuvt95ZH1GbfqyVTPtR39XrrlRmj9Uy3ykqaMF1JGe93NGjVSvJvVLJdOWebfvjOermiuRqonv4wcZzzS4Kp8erk36sZS0N7vOchba3mjluu1N8O1JszRumRFnv1weh52uIuLrxGanP5d1rhls7Z8/WXuvCqZopxJi07lTjxoG6e/Lju7X+/Hp9yk1InJto3JwJff6gP6g202ixefR56VHf9znmHdizVOzuv1V9H368+w57V0BYLNferovu1AAAAAADg7ER4DwBANDi3jppc1kptzNCkuuyiM+Wa6eZ7W+nAooWa93Nb3Xt3M2e+fNryyYea99Zkvf2JiflDVVLcpc3U9PIOusxUgqndSBe3aqb2nX5lTYSW2amjBlea9a5Vp4utSZ8vojb7PiWvk2qU2aml7y3U6t1mz1nL9HgbNlIDbdeWLda7d27Xer/UvlUja4lHgR1fKfG9D/XeuA+V5Kyef/t2KtnaVpVDa/XP9xZrnb+8dPiXIqkf36BTW623S+eYkjmN1baVM99xSLsrNlOD4DNmyl2gBhUP2Tc2fPv2qU0bc24R9u2V71yf1n1tHsS7Sgd0nvYciLwuAAAAAAAUDOE9AADRoE5b3dK/r/qYoWczZTyfPC3gBNb+fTqQakYC+m7SMxo1Y5s8l3TSH66sbGZmwyNPRXfUKO3WoC+sms10c7dfKa6cOx0U10gtY6QVG7YpsGWrvlN1XdSwvLRjoUYPn65EX221vbGTzP2BkxHb4Epr/41UxZ0+KfUu02Xr/qct277T8lZt1bQgT6TPz/9zanitbr4sp+sCAAAAAED+EN4DABANDm+3e20Hh/U7A9Kxtfpg6lrV6NxF3Stu0pS3lyugozq421p2XjNd3LqRalQyb/YrUOAHpR6Sb7e1rXWJSjSlbrxet1d/UCXVrCPtSSunNtfdpO63ddQVbZopLvSGgFGmnppebK33vyTN/XKVFNNKF8ZZ8w/stUvcNG3VSg3qVXJuRvyctd985Trm5wE7teWbTdqyaoW22OV3LBUrq4b1cqDcBWp/o7X/GzuozVUNiya8Vx1rW5s1Y8L/1PSqyJ701nkfto4l+AuDY9u15bBz/B5vea1es92ZH6pqJXkCXl10eStd7A5N65zkzRIAAAAAwFmP8B4AgGiwc4nGPfuynnGHD5YfVPKc6Zp3uJFu7tPbLp+jz6Zp7rpKurhTM3l3ztdjfQZo1CKpcsx2Lf8m8mGyedmrt4cP0D2DP9SKMs30SP+2mb39bXXU6cFOarBloR7rP0B39nlcQ0d/6T6YNlR5NWhzgbQtUTM+Oypd3Ehxpid748t0c02PEscN053939cPVTzS4lVa77wpU/O26lMzoE9eHaWhzyVqgztb5S7TDQOayfdZgh7uZ+2/39N6etbaiLr8hVfj8raK8bdSm4vcGRnMeXv1wb2jNGXSZI2690PFWu1g7kd4r7xWVyz+Pz1mXZ8x9z6tt7923qF6HXRzmQ81ZNhkzZiUoHGPDNO8Ne4yAAAAAAAKqZTf7z/hjhcr6enpCgQC8vl8ik+eqYTmd7tLAAA4C/iPypdWXl5TxsaU1knzyJP51NVcHZw/SvdMkh6c+KjanueR15t7L/HA4aOSt7w8BSkv4wp777GAVC77fQUOB+SpmM0y69x8voBi8rH/VSu/UavWl7pTJy+nYwpYx+PJrs1CrwkAAAAA4IyI//4tJcT1tv5b1yuPx6PSpYtv/3V63gMAUBzFhITEZfIf3Ic519pGHsG94alYuODeCHtvDsG9kW1wb1jn5j2J/Z+MnI4p2+DeCL0mAAAAAACcJMJ7AADOMp56v8r+4bMAAAAAACBqEN4DAHCW8bbqoj79u6hp5MNnAQAAAABA1CC8BwAAAAAAAAAgyhDeAwCAEqEoH1YLAAAAAMCZRngPAAAAAAAAAECUIbwHAAAAAAAAACDKEN4DAAAAAAAAABBlCO8BAAAAAAAAAIgyhPcAAAAAAAAAAEQZwnsAAAAAAAAAAKIM4T0AAAAAAAAAAFGG8B4AAAAAAAAAgChDeA8AAAAAAAAAQJQp5ff7T7jjxUp6eroCgYB8Pp/ik2cqofnd7hIAAIqXHzZv1Ycz52jVN9/JfzzgzgUAAAAAoOSJOcejVpderJt699CFDeu7c4tO/PdvKSGut7xerzwej0qXLr791+l5DwDAGWSC+2f+MkL/W7aC4B4AAAAAUOKZ//Y1/w1s/lvY/DcxckZ4DwDAGWR63BPaAwAAAADONua/hc1/EyNnhPcAAJxBplQOAAAAAABnI/6bOHeE9wAAnEH0ugcAAAAAnK34b+LcEd4DAAAAAAAAABBlCO8BAAAAAAAAAIgyhPcAAAAAAAAAAEQZwnsAAAAAAAAAAKIM4T0AAAAAAAAAAFGG8B4AAAAAAAAAgChDeA8AAAAAAAAAQJQhvAcAAAAAAAAAIMoQ3gMAUNwMmaDFi+baQ8IQdx4AAAAAAChRCO8BAChmhjSPU+o3CerY+QbFv+jOBAAAAAAAJQrhPQAAAAAAAAAAUYbwHgAAAAAAAACAKEN4DwBAsdJDtau4owAAAAAAoMQivAcAoLiwH1Qbr6pf3KDuQ+e4MwEAAAAAQElEeA8AQHHx4gD7IbVrms/VvDE93JkAAAAAAKAkIrwHAAAAAAAAACDKEN4DAAAAAAAAABBlCO8BAAAAAAAAAIgyhPcAABQzL36frNhL47V40VwlDHFnAgAAAACAEoXwHgCA4sZ9cK0Z4l905wEAAAAAgBKF8B4AAAAAAAAAgChDeA8AAAAAAAAAQJQhvAcAAAAAAAAAIMoQ3gMAAJysIRN4gDAAAAAAoEgR3gMAUOL10NiP5mrxRyPUK2w8Gz1HaN6i9zS2pzudF3v9CSpYZl2A4ymI0AC9EGH6kKlzNW9MD3eqYHrVrGK/VqtZuPeHO0XtAwAAAAAoVgjvAQA4Gx3YrVnu6Em5sKpi3dGTUlTHE8anlB/c0Tz1UG0nfy+UWUNvU8fON6j70DnunCJ2StoHAAAAABDNCO8BACjx5uinA9aLHQC746Hs3vNz7Z7qi/s2dGe63B7swSGzZ/pAJZh5XeKs8Th1Da4zdaCzONhjPDg/rHd+Hsdj6TXmvYjt5cMPKUoNBvb2eKjI48n8dYGzr3i1jpViL43Pfrk5jpC2CLaD6a2fuc3wnv5OT/6BIfsN/0VD5Hsz3593+wAAAAAASj7CewAAzgLb9/uUuj85y7gdwvdvJX2TYPcc7/jFgZCe9NaydimaZOabYdIq6dJebgA9XvFm3kKznWQtCK7Tb7xZqF5jeqnqF+48a1iwI05dQ4L4nI/HcUE1rzNSpWb+y8XM3q39OqCfZkeMG0M6q3VsyHFO+lJV2zrH4/SaT9DKVCk12A6db9Pg4HuNup21uPlad1lmD/sX+wW3tyriZoEj9tKrpOlmHbN9r1pf57bBkAnqWjd4PIu0TT6tnHSD4l90FufVPgAAAACAko/wHgCAs4AJqIOBc+i4hjRTPfm0McmdDuuxPl7xNy7XFcGe4/1bKVZeVb3QXZwLs494ZfZU71rXmhkSxOd4PK6MUPzGJwtQLsbcUBggJ/8OHbe8uFbbgr8QMDcRZlvLhzo3GvInWQvcGxMFsuNL9yZAeA/6YI38TOHtmlf7AAAAAABKPsJ7AACQA1MaJ16tDyxygnS7h3j+2KVmulSxe5Ob9076xucuOVPcXwpYwwJ1dm4qhPwS4HQzgbz9awT75kZn1duxKKPXPQAAAAAABuE9AABnM7unvVeN2zo13Hu1bZhZNqdnTVUz5Vz+4fY4t3vpZ6eKaofUcjfssjcZvc576IpGbhmcfCpUzfvcDJmQUY/e9Oq3byZkU5Intpqp4X/qmfPrquBNEWsoaK9+63zO9A0IAAAAAMCpRXgPAMDZbPaT6r4wOeNBrX21ObN3vbVsyQ6vWvc3vcOtoXmKXRc+zIsDtCB0nY9G2IH4i/9YpVRTJ97MW2TN2VSwmu2Fqnmfox4a27yKqnVxj9Ea+l8qrZweWpJnjgZPDz3m8IfPFrVZQ7/UtpB9OUPoQ31zl1F2p26zfL8HAAAAAFC8lPL7/Sfc8WIlPT1dgUBAPp9P8ckzldD8bncJAADFR5/ud7pjOJsMmTpXLb7PfECtU6Kos7QwdF4eTO9780DhAj0XAAAAAACiy4x577hjRSP++7eUENdbXq9XHo9HpUsX3/7r9LwHAAA4rXpo+/5k1Qv5JYCpe1+g4L7nCM3rEqdtXxDcAwAAAEBJRXgPAABwWs3RrKEDMuvdu0NBHlg75LqqWlLA9wAAAAAAihfCewAAgGLmxX4DRG4PAAAAACUb4T0AAAAAAAAAAFGG8B4AAAAAAAAAgChDeA8AAM6QHhr70Vwt/miEerlzEIr2sR/Mu2iu5o3p4c4AAAAAgLMH4T0AACVeaAgcEQi74ehie3hPY3vab8iXIVNPNliOU9VY6yW2qi5wZuRLrzHvafHUge5UUXLbJtgeZzw0z0f72Ncv87rZ12TRBA2JGD85uXx+8sM+xkIex4VVZTdBtThn+mQNmWBf2wS7gULGAQAAACAKEd4DAHA2OrBbs8zr7CfVvfMN6rgw2Z59eo1XvNl354I9fPWCal53rIgN6azWsclaYB+TNdz4pNNGZ0zh2idMaoq2u6NFKvj5yQ83gC+UFwc416LfeHdGUfMp5Qd3FAAAAACiDOE9AAAl3hz9dMB6sQNXdzxfBirB9OoeEtI7P8ce12bdfPb0DuvtH7nNXPbp9pTuWtcar9s54/2hPaed3uYR77O52+0Z2rs+eKzusXcxvbvj1NVeFvIrBHe/wSGyhEvYPiPOP+fjyUWu7WMJXd63oTvTsX2/LyOwt8cjZby3ID3h8/j8RLRP5q8ismvXkOUZPfKDnx1rcM/V/nVFcJ41hLV58H2h+83YpyWy/cwQbMMfUpQaDOztcQAAAACIXoT3AACcBUyQm7rf6V0fOp43r1q3k6ab3s+TVik1tpX+kCX1NYF4Z9XbsSh/vcSDvf2tYcEOd16YHPbp9sK232Pvy9lGvLtDE/h2Veb8SZsaqn9oqGu227+XtWFneeaxOj3cJ31jwu5gz/vbNHi2WTZQCe1SNMndpjkeXdorrExN1yqrQpanqLbbPnkfTw5ybR/rePq3kr5JcLb7xYGwXu2zdh/I6BUfOp4hoxd8FdUuQImknD8/1rVvF6fU4PGY89zfzG0f95cD9q86Qn7RENaL3oT6zbQmuMz9tcOsobe521ukbc6KEaz3NV/rrGO2X/cqd5/W8fTNbB/7mprPSvBXFLN3a78O6CdzbUPHAQAAACAKEd4DAHAWMGFo96Fzsoznx7YvQoPPrK6YGq/WWqVJRVjaJK99ZtVDVzTyhvXI73+pNV2lZliv9dRvZrmhfH6NV/yNy3VFsLd+/1aKlVdVL7QW9RyhDnVDjtWY/aQG23cE8nc8BTakmerJp41J7vWL7D1ubnAEr0PoeFCwDE3GzYn8yfnzM0fLNvkUe2m8dY7OrxVmDR1QoG1vW1iYskA+rfyHe25hbeA+JyBUWJubGwqhN21OoiQRAAAAAJxihPcAAKDwYlupdRVfDj3yTycntA3tAW4PJ1233pR0iVfrA8Ee9Dn1BI90qo4n+mT0kp+0WY37mxsVISWHTrvxird/HWFuJpgbJtLK6SWvzQEAAACcHQjvAQBA4et/p67SpBtvU/eFyarX5TSGtll6sI/XP78xPcAzS9oUiZ41VS20l7fd8901e7k2Wo1Wr11ITfohA91a8qfoeOzr5FXjtk4N+F5tGxbsYbAZ9eALUvM+Nz00dqp7/na5H3Nzw/1lQpiClekpPFNWqKE2TgreMCnYLwwy6vQXWfsAAAAAQOER3gMAADt4XbLD1IR3SrxEPpQ1Ty8O0KRvZL8/9AGyp8KL/RZpW2wr9bdD1sxjNT3AF4Scgz3kp8Z8biLaZXHzFK3MuMsxR4NvTNBKZR7L4i6d1eEUH4+5UeKUqZmrvtqcz18CuApZ8z5HQy5T4yoh57/IefZB8DkENuuzEdYO+X1wb6GYmybO5zCjza0h359n+2aNEacWpPcAAAAAzrBSfr//hDterKSnpysQCMjn8yk+eaYSmt/tLgEAoPjo0/1OdwzASTO/LOgrTQ8pT2QeHNy/0WZNynfJItP7/iqlTCpor30AAAAAhTFj3jvuWNGI//4tJcT1ltfrlcfjUenSxbf/OuE9AABnUMkM73to7Efxap2lnkuyFvCAUAvtc8r0HKiEvp1VL7Rt7dJO+Q3u3WtjnnFQhA9gBgAAAJAzwvucEd4DAHAG0fMeiCJDJihBA8LL/gAAAAA4pQjvc0bNewAAAMB4keAeAAAAQPQgvAcAAAAAAAAAIMoQ3gMAAAAAAAAAEGUI7wEAAODoOULzFs3VvDE93BkAAAAAgDOF8B4AgBKvh8Z+NFeLPxqhXmHjFjesXWwP72lsT/sN+TJkash2TqNeY97T4qkD3akI9vlM0BB38lSz28DdX+j4ycnleuXHybTBhVUVa73EVotzpk/WkAn2ZyvBbqCQcQAAAABAngjvAQA4Gx3YrVnmdfaT6t75BnVcmGzPLg4uqOZ1x7Lhhs9nTGqKtrujRSp4vfLjZNrgxQHqaD4P/ca7M4qaTyk/uKMAAAAAgFwR3gMAUOLN0U8HrBc7AHbH82WgEkxv/CEhvfNz7AFu1s1nz3O3Z/hY04Pe3W5YmRa3h3aWZe78rnWt8bqdM5Y7Pbnd/XcxPcbj1NVdFtpD3+6xH5wfcZym17zZT+g6mdvNuQ227/dlBPb2eKSMXzYUpCd8Htcron0yzzGPNsjokR+8Vtbgnkt420Rcj+D7Qvcb0q6Z5xgyBNvohxSlBgN7exwAAAAAkF+E9wAAnAVMsJy63+ldHzqeN69at5Omm97Yk1YpNbaV/pAlhTalXTqr3o5F6th5gF505+YuTo01y+nlvTBZsZf2ckv2DFRCuxRNMvPdfSq4zO0VvmCHNW7vy1kn3t7heMWbafsXBMla4C7L6EE+ZIL6N9qcud2FUteIGxGxl8arb/CYrMHZrpFzG8zafSCjV3zoeIaMXvBVVLsAJYlyvl5WW7eLU+o3CRnHOWl/M7ft8mgDmwn1m2lNcNmNTzrHPvQ2d3uLtM1ZMYL1vuZrnXXM9ute5e7TOp6+rST3eCZ943Oujbtdzd6t/Tqgn2ZHjAMAAAAA8kR4DwDAWcCEs92Hzskynh/bvggNYrO6Ymq8WmuVJhWo1IpPG5PcY3hxrbbJq6oXmonxir9xua4wdd5ND+7+rRSbsazwhjSPk2JbqX+wZ7jpnR5bVRe4y22pqzQ9h3bJsQ3MDYXgeYeOBwXL0HS+TYMLEFrnfL3maNkmn32jIfiMgllDBxRo29sW5vcGSyifVv7DPbewHvRxqhpZo6dKzZCbIuaGQnB/oeMAAAAAgLwQ3gMAgMKLbaXWVXw59MgvDFPSJV6tDwR71ufUE7wgeqh2FeslpLe+MxTPIDmjl/ykzWrc39yMKNiDhovWeMXbv44wNxPmqv+l0srp7o0OAAAAAMBJIbwHAACFr0eeukqTbrxN3Rcmq16XgoTImb3pe425SvWUrDUmSe9ZU9VCe3kPaWYty0ZY7+5IkSVq5mjwF6bUS2e3jv1pVKia97npobFT3XI/9sOGzc2N7H6ZULAyPYU3UAn9G2rjpOANkYL9wiCjTn+RtQ8AAAAAlByE9wAAwA6Cl+zwqrXdkzvigaX58eIATfpG9vvzF5D7VK2ds6/+l3ozS7lEHMfi5ilaGXFX4cV+i7QtpARO2LFax7Eg9P3Buvb28flUr4s7P3TZqVTImvc5GnKZGlcJKf+zyHnWQGZ9fktObXBKjNc/3eue0a7WkO/Pj32zxohTC9J7AAAAAAhTyu/3n3DHi5X09HQFAgH5fD7FJ89UQvO73SUAABQffbrf6Y6dRUxvdLu3dkF7aSPqmGvZV5oefECtpdeY95yHA4fMy53pfX+VUvg8AAAAAGelGfPecceKRvz3bykhrre8Xq88Ho9Kly6+/dfpeQ8AAIpYD40NPnA2bKA0SsljHuAb+kuAuQUM7s1nxfx64EuCewAAAACIQM97AADOoLOy5z0QNGSCEjQgvOwPAAAAgLMKPe9zRs97AAAAnBkvEtwDAAAAQE4I7wEAAAAAAAAAiDKE9wAAAAAAAAAARBnCewAAADh6jtC8RXM1b0wPdwYAAAAA4EwhvAcAoMTrobEfzdXij0aoV9i4xQ1rF9vDexrb035DvgyZGrKds5TdBosmaEjE+MnJ5Xrlh31NC3kcF1ZVrPUSWy3OmT5ZQybYn60Eu4FCxgEAAAAAeSK8BwDgbHRgt2aZ19lPqnvnG9RxYbI9GycpNUXb3dEiFbxe+eEG8IXy4gB1NJ+HfuPdGUXNp5Qf3FEAAAAAQK4I7wEAKPHm6KcD1osdALvj+TJQCaY3/pCQ3vk59gA36+a/53mvMe8523OH0DIt9rKpAzN6akcud3q4B4f89zAPe1/EeZhlZh+hx5XRQzzs1wnh79++35cR2NvjkTLeW5Ce8Hlcr5B2sQfTVjb3GnQxvebj1DVyeUaP/OC1sgb3PHK7HhnvC91vxj4tubSPfkhRajCwt8cBAAAAAPlFeA8AwFnABMup+53e9aHjefOqdTtpuumNPWmVUmNb6Q9ZUmhT2qWz6u1YpI6dB+hFd27OBuoPl3q1baG1TbPdzglaUu2y8HC7bmctbr7WXX6Dug+dY882IXvXKqs0yZ3fcVKKaucjFTfhdNe6yVrg7m+lWql/aABtib00Xn01K2Of8faJWOfWt5X0TYI9b9I3Psmc541P2j3hZ+0+kNErPnQ8Q0Yv+CqqXYCSRDlfL+t42sUp1T0e+5j2N3PLHY1XvJln/4oieK7WENaL3oT6zbQmuCx4HkNvc7e3SNucFSNY7wteD7P9ule5+8y9fTR7t/brgH6aHTEOAAAAAMgT4T0AAGcBE84GA/DQ8fzY9kVoEJvVFVPj1VqrNCnfpVbGa80OqV4X00vb9ASfoxf7PRkR+idrQeT2eo5Qh7ohx2PMflKD87xb0ENXNPJKO9a6+5ijwV+YALpZ+A2D1FWanqVd4lQ1sgZNlZqZvfZNmZngcYaOBwXL0HS+TYMLEFrnfL3maNkmn32jIfiMgllDBxRo29sW5ucGSySfVv7DPbewHvR5tI99QyG4v9BxAAAAAEBeCO8BAEDhxbZS6yq+HHrk5+zFfm7P74Vyy7sUpKzM6TRe8ZNWSXZYPlf9L5VWTg+5eXAGZPSSn7RZjfubtivYg4aLVvS1DwAAAACUFIT3AACg8PXIU1dp0o23qfvCZNXrkt8QeaASgiVrTM90U44nP2VlZi/XRusg67ULqVc/ZGA+Qn+nt3pmT3un9ExmT/zcWMfav6E2TnJvNhSwB33hat7nxjr2qe752w8bNmVuvKp6ob0wRMHK9BTeSbZPRv39aL15AwAAAABnDuE9AACwg+AlO7xqbffkjnhgaX68OECTvpH9/owHveag15hmqlals70fe+hvaqbPykfoO0eDb3Tr1Qff26WzOuTjWE1v9QU7gg9xLUiZn/H6p3teGcdrDflun0LWvM/RkMvUuErI+S9ynjXg1Od3WddiQci1zPkhw0XhJNunZ01Vs0fi1IL0HgAAAADClPL7/Sfc8WIlPT1dgUBAPp9P8ckzldD8bncJAADFR5/ud7pjiEqm53xfaXrwAawW8/Db/o02a1LIvLNWkbSP6X1/lVImFbTXPgAAAICSYMa8d9yxohH//VtKiOstr9crj8ej0qWLb/91wnsAAM6gkhne99DYj+LVOvJBpuYhtKfsgaUmAO6seu5UBrusz0mE7D2t7fa1tht6Lie7zZLkpNvH/awcWJT1Yb8AAAAAzgqE9zkjvAcA4Ayi5z3OakMmKEEDwsv+AAAAADirEN7njJr3AAAAODNeJLgHAAAAgJwQ3gMAAAAAAAAAEGUI7wEAAAAAAAAAiDKE9wAAAKfSkAlavGiuEoa406fBkKlzrX1O0GncZdShDQAAAAAUd4T3AACUeD009qO5WvzRCPUKG7f0HKF5i0zIaYb3NLan/YZ8scPR4HYKwbx/3pge7lTx1WvMe1o8daA7lVWvmlXs12o1T9e59lBte5dVVDvH6+l8DjLa3/0c2NOh4ycr9MZFgW9iDFRCAT+TmfLTBgVwqtoHAAAAAHJBeA8AwNnowG7NMq+zn1T3zjeo48Jke/bpEwxXi78LqnndsezNGnqbOlpt3H3oHHfOqTZHg2+0rmnn2zR4tjurEPbvPhXH61PKD+5oXnrWVDV3tOCKpg1yc2raBwAAAAAyEd4DAFDizdFPB6wXO7B3x/PF7fk8JKR3fo497c26Zp28y5TYPdUXxat1rBR7abyz3ZAe1hk92d2e2mbI6OUcMi9svsXpyT/Q+WWBvTy017b7i4OM94b36HaOKXN5ZO9wpwRLcHDP0T2WrnWt8bqdM5YH3xv+njy2Gdquds9uax+h52raI0/BaxAcIq9FaBv0UmN3rm32bu23XuxA2h2PFDzeAvU4/yFFqcHA3h4PldPxusfZv5Vi5VXr/u7ykDZyrnWPsOvmtG/ubeC8L7+fkZDl+WgfAAAAAChqhPcAAJwFtu/3KXW/07s+dDxvXrVuJ003vfMnrVJqbCv9ISKEdkLPzqq3Y5E6dh6gF925OXF6oidoZaqU+k2C3Ss9Sw9pE4Y3X+suC/ZaH6iEdima5M4zx6NLe4WF8LGXXmUdrFlutm8d+3Vu6D2ks1rHJmtBxnu/VNW27rKeI9S32pcZ+zK/QqjXJTP0NYFv1yqrQvabotpm4YsD7OkFO6xx+9yd5fFuA7zYL7i+1W7OrAwmdO5aN3g81rGqlfqHBfRx6ho8f/OriLpXhZ1n9sYr3j2GSd/43HmZhkyNV2sFz+NL7Y91F9iSlZIa7BUfOh6U+UuJ2Gpxzkh+2EH3Af1krm3ouKXXmKtULzW8XVvYNwbcXvN2u/m0cpK7/MYnnV+LuMyNn77WHHuZNTjtnnsbGDl9RnqN6ZXZPva+zfUJfi7zah8AAAAAKHqE9wAAnAVMYB4s2xI6nh/bvnBD0xx6HF8RDIX7jXfnFIVkLciyvfGKv3G5rgj2jnZ7Zle90F1s7PjSDVsjfmHw4lptM4G4eZ8JyWdb2xrqbt+UDuqnzB7bXUw47dZK7zlCHeqGtIFhrT84rzsUueqhKxp5rWNd697omKPBX5iAvllIL3GfVv7DPb4sPdYLY6BaWOeRumm5ex4mgLZHXCYwDwbVoeNBwTI01lCg62zC9OANndBx63OYtNm+GdTfanO7N7/VrvEFKS2UukrTC1OKKIfPSNbyR6H18vNqHwAAAAAoeoT3AACg8GJbqXUVXw498ouaKYkSr9YHgr3cF2mbuyRvmT2yF8gtcRPs6d7TlKnprGrBXwFk01Mep0DweQudE7SxkVM+qUAleYrYi/3cX0CYz0b/VtI3swjoAQAAAJxRhPcAAKDwvbtN2ZMbb1N3u9RMeB35/ChQCRb7AaYhPdKHNFM9ZyxvQyZk1Jw35WzskipVajo11C+sqlgla4nbi7tX24bWtGv2cm20GqZeu5Ca9EMGRtSStwS3lS9ztGyTtf+MnvY9NLad1Q4ZPfFPBaenfWyjy5zj7HmZGoeVzclboWre56LXmAnu58Xp1W/KD2X9PET8suIUMmWFGm8KlnEq+AOGg/X3z+QNCAAAAAAlC+E9AACwe0Ev2ZH5cND/b+9eoKOoEvyP/wC7Z6CZYBREYzBjAJEgGQFHwVFnJCIQJIAgAjJAUNf8BUc8PP5/RUV3Ft3lsbIueDI+CKMIDKICjiAiUYF18KgTFiXggjiBGA2ggSwdZrpJ+Netrg6d9wOku8P3c07TVffW41YVdZL8+vatBgeQ8yYpc7vs9Ss/mLV6qzV16Q4dq+ZBrzWq1MbspB/scfPrNlTzk2J1YX9nPeuVcbWUs9QZCmfeRms7zpA61musvgrp0W+C5ZAe2ebVv59uCjk/8yZuVJ4z/Iupr8+5M0MXrTsQ3OePMexQZeY4Qto5Vtpjxuqvt0aOeV+jybquU+ypa2m97GcAhJ4D63ov3e5VQvl1q/wA3jNr3tvmGQrBByg7rxof0FxVcNid8g9IAAAAAOA0NfP5fCed6ahSVlYmv98vr9er9PwVykqa4NQAABA9RqeNc6YAhI956PJIaWnIWPZmOKWMjtqTWf/x7U3v+wzz8OMf9YMYAAAAoGlZvvZlZ+rMSM9doqz4UfJ4PHK5XGrePHr7rxPeAwAQRk0zvDdBaLp6VBmWJV/rQh5YikaYtsh5oG5Fx7ZnNXiYF4QaqmmLRyq1Q+hDa73KaUBwH7g2sQ1bBwAAAADhfS0I7wEACCN63gNNwVDNX9xLH090hmICAAAAUG+E9zVjzHsAAADgtKzWVIJ7AAAAAGcY4T0AAAAAAAAAABGG8B4AAAAAAAAAgAhDeA8AAICA4b/X2o1rtHbuUKcAAAAAABAuhPcAADR5QzX/zTXKfvP3Gllh2uKEtdn2a5nmD7dXqJdpi0O20whm/WgPie1zsHGRplWaPj21XK/6sK9pI9tx+QVqbb21vjA+MH+6pi2y/29l2ScoZBoAAAAAUCfCewAAzkVFhYGHa77+mNL6DVHfDfl28dkzVJfEOpNNybEftN+ZPKOC16s+nAC+UeZNUl/z/2HiQqfgTPPqh6+dSQAAAABArQjvAQBo8lbr2yLrzQ6Anel6maws0xt/Wkjv/Bp7gJtl69fzfOTcZdZy6erRWmp9dXpguyG9/u36xZPLe2qbV3kP/QrfFHBe9eyVHugZX/06wW8BBNoWWKa8h3gt+9z/vbc8sLenKytftyE94eu4XiHnxX6Zc2VzrkF/02s+XqmV68t75AevlfVyjiP0uM2rwjciguuF7rd8n5barsnXP+hYMLC3pwEAAAAA9UV4DwDAOcAEy8e+D/SuD52um0c9fiUtNb2xM3foWOtkDaySQpuhXfop4cBG9e03SfOc0pqsnD7GWi5LOcekY9uzAj29+43R1NedBYwO/ZSdtMupG6K06autQms/Y5MlZ53M7V7J7HPYY3X2SjfhdGqHfK2zt2ftW8nKCA2gLeaDhLHWloL7TLcPpPZ9riwsKu8VHzpdrrwXfKwuacCQRDVfL6s9v4oPOW9Wm77v6nzwsVDppsz+FkXwWK1XhV70JtTvqp3BuuBx2NfElG1UXmDBSqz1gtfDbL/D9c4+67gmrxfqexXpW3NtQ6cBAAAAAHUivAcA4BxgwtlAAF5xuj7y/is0iK3qusXp6qEdyjyjQ63ka12V7cXrgsrjwcS2r0ev+6G6rpNHOrDL+WBhtab+lwmgu1bsDX9sh5ZWOS917NMMMxNsZ+h0UHAYmsofTtSh5uu1Wh/v9TrfWAh8W2Hl9EkN2nbehro/YKnKq5y3nWOr0IO+rmtiPlAI7i90GgAAAABQF8J7AADQeK2T1SPWW0OP/DNtodIzd0jOUDsZV0s5S+vudX96wrHP2pX3ks/8Sp0zzDA1DXvQ8JkVeecHAAAAAJoKwnsAAND48ciP7VDmsDFK25CvhP4ND5FbX2jGZ6+vycrK6Kg9maYne0N6swd6q5/qaR8YeuZUT/zaNHafjkaNeV8bq+2LnfHk7YcNm2FuPLrgcrsyRMOG6Wm80zw/AAAAAIAaEd4DAAA7CN58wKMedk/uSg8srY95k5S5Xfb65Q96rdVqTV26Q8fM2PZ2uF2f9RZqvbOP4Dr1bavprb7uQPAhrg0Z5qfx+7Q1csz7Gk3rpc6xycoob0vgWQOB8fkd1rVYF3It6/tA38Y5zfMDAAAAAKhRM5/Pd9KZjiplZWXy+/3yer1Kz1+hrKQJTg0AANFjdNo4Zwp1Mr3Yx0pLQx5Qax5Em9HpK2XW46G1jRKOfUYTzg8AAACA07R87cvO1JmRnrtEWfGj5PF45HK51Lx59PZfJ7wHACCMmmZ4P1Tz30xXj8oPMjUPoT2dB5YOn6yssf2UELpde9geExJbdaYXulNcrry+kWrdJzg/AAAAAE4X4X3NCO8BAAgjet4DAAAAAM5lhPc1Y8x7AAAAAAAAAAAiDOE9AAAAAAAAAAARhvAeAAAAAAAAAIAIQ3gPAECUGDl3mbI3rrFeyzR/uFMIAAAAAACaJMJ7AACixMrpY9S33xCtO+BRj0GTnVIAAAAAANAUEd4DABBl9n/v1bHv8505AAAAAADQFBHeAwAAAAAAAAAQYQjvAQCIMpdd6FHrC+OdOQAAAAAA0BQR3gMAEGXmTRyizO+v58G1AAAAAAA0YYT3AABEmZFzlynjwo/Ut98YTX3dKQQAAAAAAE0K4T0AAFHGDJvDA2sBAAAAAGjaCO8BAIgy+7/3OlMAAAAAAKCpIrwHACDK8MBaAAAAAACaPsJ7AACihBnrPnvjGqV28Crn7YVOKQAAAAAAaIoI7wEAiBIrp49R335DeFAtAAAAAADnAMJ7AAAAAAAAAAAiDOE9AAAAAAAAAAARhvAeAAAAAAAAAIAIQ3gPAAAAAAAAAECEIbwHAAAAAAAAACDCEN4DAAAAAAAAABBhCO8BAAgj909czhQAAAAAAOcW/iauHeE9AABhlHx1d2cKAAAAAIBzC38T147wHgCAMLp91FB6GgAAAAAAzjnmb2HzNzFqRngPAEAYXd7x53riXx/TNdf1JMQHAAAAADR55m9f8zew+VvY/E2MmjXz+XwnnemoUlZWJr/fL6/Xq/T8FcpKmuDUAAAAAAAAAADORem5S5QVP0oej0cul0vNm0dv/3V63gMAAAAAAAAAEGEI7wEAAAAAAAAAiDCE9wAAAAAAAAAARBjCewAAAAAAAAAAIgzhPQAAAAAAAAAAEYbwHgAAAAAAAACACEN4DwAAAAAAAABAhCG8BwAAAAAAAAAgwhDeAwAAAAAAAAAQYQjvAQAAAAAAAACIMIT3AAAAAAAAAABEGMJ7AAAAAAAAAAAiDOE9AABh5veWyFscfPmdUgAAAAAAcC4jvAcAIKwOafPjkzRudPD1Txo+YqZW5ZQ49eF3MHuplmdu00FnPtzORHtq20akHS8AAAAA4NxEeA8AQCRIvF1zly/Sy5n3aYCnQMvnrNU+p0qlfrtXvr/Uma8stPx4ibzeGnrvW3Xl2zDbrG45n7X+cWfaUbRrk1a9tVdFznyQv642VVNnf8vA58wE1XF8/krtbFR7Qo/dUtM2jNrqalK5jTb7uPgmBQAAAACgcZr5fL6TznRUKSsrk99vggev0vNXKCtpglMDAEA0OaRNU2foOY3VS/NTdL5VcnD1LP2fF9y6f/GdKpoyR8uDAbC7nUY/OVsjko8E1inurRGd92t9YV89O/GQpj66QUecYNzVvr+eXDRKXXYv1fBHNym+fTsVFh6S39pGzytd+nJHgbxmuW5j9ezTKbqoxSFte3quFmy1lrHXT9GT/zlWXf4nsH5Q2r9kaUzLtzT70Tf0uR3yu9R70mxNT22nI2/N1t2ZRzVgcEd9/d5hpSyaqZT29mqSd5eWP/CMVhU6x5I6Q69P6qojHy7U7AWfaZ9pt7uVbrz3CU1JVeD4Ctop0X9I+6z9uNoP1lMv3K7EHQ1tT4ES2/u1z+zXOvbxT89R2vGq2xjfw5nJqVw3R/GLrbZ0mKwVM3rJdfwzvTBiob65d46mtHje2n6ezo+Rjphr1PIyjf+XR5Vmnd+Kx9VOIx5/QqN7tApsFAAAAADwo0nPXaKs+FHyeDxyuVxq3jx6+6/T8x4AgIhSovwv9lvvbRUbk6CBzy3Qy6ZH/uJ0pfgOafmWvYHFjILPtK2grVJSEuRJTNP8P1rLWcu+NKWX/IUbtG23s5wlvt9YPfl0ugb89JD+eriT7n16hp4Y3kn+nW9o8x5rgZwNWrDVq4GPztHLmWPVq3CTFvzJ2tfPb3KC7a4aP+shpfz8kDa/8IY+Txil/1g+R08MPl/bFi3VtmKzjHFIW7YW6KKbeuvyGKfIcvCdpVpV2EoDMmZo7nxr3wPjpNJdWrPgMx3obLY1W9P7SFvMtoM9/1t3Vdrj1rIjO0mF7+jjnVZZg9vj0VV3PqSnZg1WT6ttyz7YVc027AUDqtS10+UmdP/LrsA3IfL26K9qpauubGfmLC71Dm6/dL/+uOwzeZ3jOvbryXrJOq4p3Q5pVeg3KQAAAAAAqAfCewAAIsG+NzT73hmaPnG65vxFih98k7q3dMl/4C/atOwNLVvwhrY5i5a78k49ueAhjU/tJJfbr8IP39HaZa/ohT/ucBY45aIrk9UluY96mWA65jJ1T+6q7gOuUXcFhsk5kp8nv85X0X9v0Nq398sXIx087pdiL1OXS8wW4tTl2mTFxx5W/m5rey0KtGXZBn1R6LLqQofa6aTx85/UlN+lKLGlU2Qp+q7A+vca3TS4qxKvtPad2EY6XKB8n5SS1lfxMXHqnXKN5NuhL/MC65xqZ2+rnX7tyzvUiPa0UfzVXa1lb1TvRMm/p0BHqmzDXjCgmrrEXwTa9bXVroO7d+mgdRxdOttLW+KU2Mdsf4BSuluzXq/8znHFHt2l9cuytdvXSio+YR0BAAAAAAD1R3gPAEAk+GmcruiVrJ7X9tGEGbP11L1d5TqwQXMeXqpN3kvUe1iKTDZck4Or5+iRzM06dmkfDRjUySmtzCWPx5k0WpxnlVTHpcRfp2hE1zbOfC3ad9WIwdcoPiSobyivLzTW9svvDP3TKGegPVV07qobdUi7vyrQvr/ul3p1VWILp64eWif2sdrUSaGfEQAAAAAAUBfCewAAIkFcb92RMVajrdeAX8fJY8LhokP2UCtdkpOVmNBGdu7+9+r7bxcdOmT920ndr+2kDm0DY6tXyMTr4Ilta/17RJ7Lb9LAMbdr4K291LN8aBijQAd371V+URu1j5MOlrZUz0G3K21MX13Xs6viQ4bIqU7sxdZK+lSb39qlL3fs0Of7jkpt4xTvlra9s0X5xQXatulTyd1LV5X3aq/N6bUnILgNZ7aCkLqYjuqeKG3J/pO2fS5179kxcC1sR+UtLNGR3Zu0yaozn464Ys7XRdZkUcvLdOMwq03DblLP6zsS3gMAAAAAGoTwHgCASNW5l0a0d2nTghkal/EnfR3rkrJ36EunOlTi9X2V6P5McydOUsbi/XbP83c+2eXU1s3V53ZN6eHXO8/O0t2jJ+nuB57R2s9L7LrEG1MUr11aMHW2Nv0tTin3pyhx3wY9kjFJ40bP1PQ5HynfXrJmFw0Yax1Lid7JnKNHHn5GT6wvkFp01ZjHU9Rhzwo9aG1n7l88SnngdnWvo9f8mWhPxW04hY6qdc649zk7tMUXOt69cUh/fNg6X1Pf0F+t45mS0Vuelr00ZFJXeT/M0oPW9Rg3cZZmrdxlPyAYAAAAAID6aubz+U4601GlrKxMfr9fXq9X6fkrlJU0wakBAKBp8ReXSJ5Wcpne+GYc+pbVD3ajUuvn4t9N5+9Avf+45Gro8DG+Enn9ZnidSvsw2/ZZ5SHbq9CuevJ7S+RztZLH7RQ4GrytM9GearZRrpq6I2/N1t2ZbTVz1X3qaZUH5qX7n3tIvdvWcM68frkbeI4AAAAAAI2XnrtEWfGjrL/RPHK5XGrePHr7r9PzHgCACOeKCQl/awrujRYVA+QGB/eGu1XVENow2660vQrtqieXp2pwbzR4W2eiPdVso1yVuhLt/mSv1OsX6lJ5nZ/Wcs4acY4AAAAAADAI7wEAAOp0RIpL0fiBp8a7dyVcc+YfjgsAAAAAgIPwHgAAoE5x6p0xVml9To1370nur9EZ/dWlXg/HBQAAAACgYQjvAQAAAAAAAACIMIT3AAAAAAAAAABEGMJ7AAAAAAAAAAAiTDOfz3fSmY4qZWVl8vv98nq9Ss9foaykCU4NAADR4+TJwI9h83PNCM4DOHuaNWtmvzdvHujXEpwHAAAAEH3Sc5coK36UPB6PXC5X+e/50YjwHgCAMDFBvfl5tvfLr7R21Z/1xY6d8vn8Ti2As8Xtdumq5G5KG3GbOnXpaP9yT4APAAAARCfC+whAeA8AiGbB4P5/du/Vv86ao3sm/lZ9b75JrVq1dJYAcLaUlBxX9vub9eLiV/T/npyhK67sRIAPAAAARKmmFN4z5j0AAGFSeuKE1r621g7ubxvUn+AeCBNz75l70NyL5p409yYAAAAAhBvhPQAAYWB63pshcnK/2G33uAcQfuZeNPekuTd5/gQAAACAcCO8BwAgDEwwWFp6wg4J6XEPRAZzL5p70tybhPcAAAAAwo3wHgCAMAiOeQ8g8ph7k/AeAAAAQLgR3gMAAAAAAAAAEGEI7wEAAAAAAAAAiDCE9wAAAAAAAAAARBjCewAAIB1+X/PvmaKMJXvs2dwl1rQ1v2qnPXvG/Fjb1e6lyrhrtrI+PnjqWJ56X0VONQAAAAAA0YbwHgAASKV+/VBwUHu9vsC815q25g87s42Ss0S3pI7RzLUHnQLLmdhuNfZu/kB7i47ogriLTh3LYb9TCwAAAABA9CG8BwAg2pT65S0ukddbSzh93Ko/7kxX5qzvK3Xmq5E08UWtWfGiJiY7BUZwv5WD9/q0x1Htdi0+r7V+cS3r2/uoof74J1q/rkTqkapbOljzbW/WI9Y+1vz+ZsUGlrD5TBtrOCd17r+284mzJj8/X1988YUzV5Wp++abb5w5AAAAAIhuhPcAAESNo9r6+HjdMni8hoy6R0PuGK/U9CXK9QZqcxeN0S2p9ygj3VpmuFU/fLwynvlEdnXhu5qZatWPm6IMq9ysnzpyttb/rfrAOnextb61zOIdZq5Ee195WEOC+x06RqmZZtybWtpj9jfzXbOyPs6cYvfAz8ypvF1LwUeab7U39Q5Tbtr9sFbtLAnUOT33x6ZP1x12m039bGUXBqqDvFvf1Rqf1DflOnlMweH39ZRpz2OBYXN8O1dq+nCrzabMer9l6D3K+tQ57lr2X34+77POlX0+x2jITIbiCadVq1bp2muv1SuvvOKUnPLyyy/rl7/8pb0MAAAAADQFhPcAAEQNly74xSBN/b8zNHfWDD0y6FL5Ct/Vqx8cdeqNEvnb36C70m7WDW392rtxoV7JcaqM4pbqPOBW3XVDgtzHd2r+s/UIow98oGeX58nrTtDANGtd63XHFedbFbW0p+Wluva6S+3VL+52s73OVaHd4G1Hlb1oodYXttLAuydrdsbNSirNU+a//Vl5zhLGd+52SrXaPCK5jWS1efGfA+PyB3yj997cKbmv18A+rZyyUHv02u9XK6f0VNvvGnC1Lm7psurqs/8SueNu0B32+ZS8Oa9q3W6nCmfdAw88oKFDh+q+++7T888/75TKns7IyNCwYcPsZQAAAACgKSC8BwAgarRS0vCRSrnmCl0R51HsBSZAt5T+I/Du+OWd9yo941498k/XW3N+HTgQMuZ84s2amDFB6Y9M1n1x1vzuAn0bqKmRL2+fcq33HhMe0lSzrnn1NcF8Le2J6aYhad3s2YQbh9jr3PBze/aU4p3aZj5YSBysu4Zfr+vSJuiuPtb84Z3KDe1dnzzIXj/joWG6zpr97vARlY/cs/N9vfY36eLU/urR0imrwCff3wNTF3S8WjcOGqm77p2sgaZp9dx/klVuzueDIzpbcyX6gbH0w6ZFixZ2r/tBgwbpwQcf1MKFCzVnzhx72pSZuubN+fUWAAAAQNPAXzcAAESL0oPKnukM8XLfLE1/xQxdUzO3p7UzVR2X3DHOZB28Pxyy392Vf2toYHuqOH4sMKRPxzhdbBe49DO7yXuUV2AXVK+wKLCe/MpZv1Hf6VLdMdAE69Xppr6/TZDHl6dXn5kTGAJn5Gxlm+03cv/f/cDAOeFkAvzly5fr1ltv1fTp0zVr1izddtttdpmpAwAAAICmgvAeAIBoceAjrczxS30ma81by/Te7Fudiur5vMecqer45St2JuvguaCd/e4rs99OaWB7qmjZOjBG/VcF+s4u8Ot/7SZ3VoL5VkBdirZqTba1/+CDamuQMPxprVn9opb+e2BoH3vonfV7Tn//CJvzzjtPr732msaNG6f09HQ7uDdlAAAAANCUEN4DABAt3G79zLwX7dMXn25X9keBnu45u/JODSNjyf3ofeVsXKmnnv/ImnOpQ4eLAhVGwXZt/vAjrX9mof5gepdfGadLAjU1cickKsl6z1nyjOZnLlGWeWV/U3d7WliLmPl3X7XWWafcyh8WxHRT7x7W+7639OrrH+nj1xfq+Q+t+bbdlNTeXqJWRVs+0Fbr+IbcdkMghK/WUX380gvKWrxS6z/YrrzDgdLWrVqd9v4RXm7r/98f/vAHPffccwT3AAAAAJokwnsAAKJF3DUa2MMl7V6nmU/O0bxPpaSWku/DndrrLGLkvv2Cpj+zWlsPu5Q0dIYmmoA6qHi7/vPfFmr+xjwp5mo9Mu1WVXmObGUdfqPfjQ4MPbN+7bt61bx2Ham7Pd1+pYntXfLt+8RaZ4vyqnwRoI36Tpqsge1LtP6lhZr50if61mrTA4/dpgRniZp9o83v7LGOoZ8GXmsePlsz776tgTab18ffyN3+Vv0uzYzZfzr7BwAAAADgx9XM5/OddKajSllZmfx+v7xer9LzVygraYJTAwBA5Dtx4oT+t7hY90+YonVv/ckprR+ft0T+5q3kcR7Q6iv2yx3jUu6iMfrd29KIx17Ub7tJLk8ruYNDgBe+q5npS/TxlWP10hO/UdsWLnk8tYfeVZSan7v+itu11NSeIF+xVf9Tq950w6+BvQ01sE2+o8orlBI6tHEKHH9brYz7V2pvvxl676GrA2VO2+U61c5Qjdo/mqTUwXfquSUL9LOYGHr0AwAAAFEoPXeJsuJHWX/feeRyudS8efT2X6fnPQAAUcbtqRhAhwblNhOUx1QM2E85TzFWXaNCahP4V7PdutrjNvurJbg37G00tE3uNlWD+8PblTXvTe2VS31/cblTaHHaXl1wbzRq/wAAAAAA/IgI7wEAQNPRokTffhurgRn/rGl9KwX7AAAAAABEEcJ7AACaiKRJy/TeumXKCB3jPqj9rZpt1b337/UY4z6axV6vR15foKlpCfbDcgEAAAAAiFaE9wAAAAAAAAAARBjCewAAwsjtdqmk5LgzByCczL1o7kkAAAAAiASE9wAAhEGzZs3sJ95f0aWTst/f7JQCCCdzL5p70tyb5h4FAAAAgHAivAcAIAxMMNiixXm6uf+v9eLiV/TntzfQAx8IE3PvmXvQ3IvmnjT3JuE9AAAAgHBr5vP5TjrTUaWsrEx+v19er1fp+SuUlTTBqQEAIPKdPHlSfp9PxcXFyv18lz7YuFl793xtlfmdJQCcLS63S506X67f9LtJSd27KiYmxipzE+ADAAAAUSg9d4my4kfJ4/HI5XLZ36yNVoT3AACEgQnvzc8y3z981s+yY/Ie81rT/1CpVWbqAJwd9rdgrF/m3T/5iTytPdYv+K2taTdD5wAAAABRivA+AhDeAwCiXTDAP2H9PPP7T6i09IQ9D+DsMr/Mm6FyXK7zdJ7zyz3BPQAAABCdCO8jAOE9AKApCPayD4b29LoHzr5gUB/8pZ7gHgAAAIhehPcRgPAeAAAAAAAAABCqKYX30dtyAAAAAAAAAACaKMJ7AAAAAAAAAAAiDOE9AAAAAAAAAAARhvAeAAAAAAAAAIAIQ3gPAAAAAAAAAECEIbwHAAAAAAAAACCiSP8fksx1Fq43ALUAAAAASUVORK5CYII=;" parent="1" vertex="1">
          <mxGeometry x="70" y="90" width="1519" height="918" as="geometry" />
        </mxCell>
      </root>
    </mxGraphModel>
  </diagram>
</mxfile>
